<?xml version="1.0" encoding="utf-8" standalone="no"?>
<!DOCTYPE svg PUBLIC "-//W3C//DTD SVG 1.1//EN"
  "http://www.w3.org/Graphics/SVG/1.1/DTD/svg11.dtd">
<svg xmlns:xlink="http://www.w3.org/1999/xlink" width="424.7725pt" height="277.086125pt" viewBox="0 0 424.7725 277.086125" xmlns="http://www.w3.org/2000/svg" version="1.1">
 <metadata>
  <rdf:RDF xmlns:dc="http://purl.org/dc/elements/1.1/" xmlns:cc="http://creativecommons.org/ns#" xmlns:rdf="http://www.w3.org/1999/02/22-rdf-syntax-ns#">
   <cc:Work>
    <dc:type rdf:resource="http://purl.org/dc/dcmitype/StillImage"/>
    <dc:date>2025-04-10T12:53:21.242441</dc:date>
    <dc:format>image/svg+xml</dc:format>
    <dc:creator>
     <cc:Agent>
      <dc:title>Matplotlib v3.10.1, https://matplotlib.org/</dc:title>
     </cc:Agent>
    </dc:creator>
   </cc:Work>
  </rdf:RDF>
 </metadata>
 <defs>
  <style type="text/css">*{stroke-linejoin: round; stroke-linecap: butt}</style>
 </defs>
 <g id="figure_1">
  <g id="patch_1">
   <path d="M 0 277.086125 
L 424.7725 277.086125 
L 424.7725 0 
L 0 0 
z
" style="fill: #ffffff"/>
  </g>
  <g id="axes_1">
   <g id="patch_2">
    <path d="M 26.925 253.208 
L 299.685 253.208 
L 299.685 7.2 
L 26.925 7.2 
z
" style="fill: #ffffff"/>
   </g>
   <g id="LineCollection_1">
    <path d="M 287.286818 140.291815 
L 287.286818 18.382182 
" clip-path="url(#pf59a960953)" style="fill: none; stroke: #56b4e9; stroke-width: 1.5"/>
    <path d="M 200.627246 122.556245 
L 200.627246 104.075008 
" clip-path="url(#pf59a960953)" style="fill: none; stroke: #56b4e9; stroke-width: 1.5"/>
    <path d="M 125.982754 152.689058 
L 125.982754 96.067813 
" clip-path="url(#pf59a960953)" style="fill: none; stroke: #56b4e9; stroke-width: 1.5"/>
    <path d="M 39.323182 234.735739 
L 39.323182 206.56669 
" clip-path="url(#pf59a960953)" style="fill: none; stroke: #56b4e9; stroke-width: 1.5"/>
   </g>
   <g id="line2d_1">
    <defs>
     <path id="m154890a164" d="M 4 0 
L -4 -0 
" style="stroke: #56b4e9"/>
    </defs>
    <g clip-path="url(#pf59a960953)">
     <use xlink:href="#m154890a164" x="287.286818" y="140.291815" style="fill: #56b4e9; stroke: #56b4e9"/>
     <use xlink:href="#m154890a164" x="200.627246" y="122.556245" style="fill: #56b4e9; stroke: #56b4e9"/>
     <use xlink:href="#m154890a164" x="125.982754" y="152.689058" style="fill: #56b4e9; stroke: #56b4e9"/>
     <use xlink:href="#m154890a164" x="39.323182" y="234.735739" style="fill: #56b4e9; stroke: #56b4e9"/>
    </g>
   </g>
   <g id="line2d_2">
    <g clip-path="url(#pf59a960953)">
     <use xlink:href="#m154890a164" x="287.286818" y="18.382182" style="fill: #56b4e9; stroke: #56b4e9"/>
     <use xlink:href="#m154890a164" x="200.627246" y="104.075008" style="fill: #56b4e9; stroke: #56b4e9"/>
     <use xlink:href="#m154890a164" x="125.982754" y="96.067813" style="fill: #56b4e9; stroke: #56b4e9"/>
     <use xlink:href="#m154890a164" x="39.323182" y="206.56669" style="fill: #56b4e9; stroke: #56b4e9"/>
    </g>
   </g>
   <g id="LineCollection_2">
    <path d="M 287.286818 165.296901 
L 287.286818 140.354417 
" clip-path="url(#pf59a960953)" style="fill: none; stroke: #d55e00; stroke-width: 1.5"/>
    <path d="M 125.982754 197.822159 
L 125.982754 145.758789 
" clip-path="url(#pf59a960953)" style="fill: none; stroke: #d55e00; stroke-width: 1.5"/>
    <path d="M 39.323182 242.025818 
L 39.323182 172.936589 
" clip-path="url(#pf59a960953)" style="fill: none; stroke: #d55e00; stroke-width: 1.5"/>
    <path d="M 200.627246 166.49717 
L 200.627246 140.471149 
" clip-path="url(#pf59a960953)" style="fill: none; stroke: #d55e00; stroke-width: 1.5"/>
   </g>
   <g id="line2d_3">
    <defs>
     <path id="m5febc0c715" d="M 4 0 
L -4 -0 
" style="stroke: #d55e00"/>
    </defs>
    <g clip-path="url(#pf59a960953)">
     <use xlink:href="#m5febc0c715" x="287.286818" y="165.296901" style="fill: #d55e00; stroke: #d55e00"/>
     <use xlink:href="#m5febc0c715" x="125.982754" y="197.822159" style="fill: #d55e00; stroke: #d55e00"/>
     <use xlink:href="#m5febc0c715" x="39.323182" y="242.025818" style="fill: #d55e00; stroke: #d55e00"/>
     <use xlink:href="#m5febc0c715" x="200.627246" y="166.49717" style="fill: #d55e00; stroke: #d55e00"/>
    </g>
   </g>
   <g id="line2d_4">
    <g clip-path="url(#pf59a960953)">
     <use xlink:href="#m5febc0c715" x="287.286818" y="140.354417" style="fill: #d55e00; stroke: #d55e00"/>
     <use xlink:href="#m5febc0c715" x="125.982754" y="145.758789" style="fill: #d55e00; stroke: #d55e00"/>
     <use xlink:href="#m5febc0c715" x="39.323182" y="172.936589" style="fill: #d55e00; stroke: #d55e00"/>
     <use xlink:href="#m5febc0c715" x="200.627246" y="140.471149" style="fill: #d55e00; stroke: #d55e00"/>
    </g>
   </g>
   <g id="LineCollection_3">
    <path d="M 125.982754 123.394635 
L 125.982754 93.75421 
" clip-path="url(#pf59a960953)" style="fill: none; stroke: #009e73; stroke-width: 1.5"/>
    <path d="M 287.286818 123.601394 
L 287.286818 107.771063 
" clip-path="url(#pf59a960953)" style="fill: none; stroke: #009e73; stroke-width: 1.5"/>
    <path d="M 39.323182 207.128407 
L 39.323182 187.815584 
" clip-path="url(#pf59a960953)" style="fill: none; stroke: #009e73; stroke-width: 1.5"/>
    <path d="M 200.627246 110.867763 
L 200.627246 90.74047 
" clip-path="url(#pf59a960953)" style="fill: none; stroke: #009e73; stroke-width: 1.5"/>
   </g>
   <g id="line2d_5">
    <defs>
     <path id="m6980d777b6" d="M 4 0 
L -4 -0 
" style="stroke: #009e73"/>
    </defs>
    <g clip-path="url(#pf59a960953)">
     <use xlink:href="#m6980d777b6" x="125.982754" y="123.394635" style="fill: #009e73; stroke: #009e73"/>
     <use xlink:href="#m6980d777b6" x="287.286818" y="123.601394" style="fill: #009e73; stroke: #009e73"/>
     <use xlink:href="#m6980d777b6" x="39.323182" y="207.128407" style="fill: #009e73; stroke: #009e73"/>
     <use xlink:href="#m6980d777b6" x="200.627246" y="110.867763" style="fill: #009e73; stroke: #009e73"/>
    </g>
   </g>
   <g id="line2d_6">
    <g clip-path="url(#pf59a960953)">
     <use xlink:href="#m6980d777b6" x="125.982754" y="93.75421" style="fill: #009e73; stroke: #009e73"/>
     <use xlink:href="#m6980d777b6" x="287.286818" y="107.771063" style="fill: #009e73; stroke: #009e73"/>
     <use xlink:href="#m6980d777b6" x="39.323182" y="187.815584" style="fill: #009e73; stroke: #009e73"/>
     <use xlink:href="#m6980d777b6" x="200.627246" y="90.74047" style="fill: #009e73; stroke: #009e73"/>
    </g>
   </g>
   <g id="line2d_7"/>
   <g id="line2d_8"/>
   <g id="line2d_9"/>
   <g id="matplotlib.axis_1">
    <g id="xtick_1">
     <g id="line2d_10">
      <defs>
       <path id="mc5350fc809" d="M 0 0 
L 0 3.5 
" style="stroke: #000000; stroke-width: 0.8"/>
      </defs>
      <g>
       <use xlink:href="#mc5350fc809" x="237.771018" y="253.208" style="stroke: #000000; stroke-width: 0.8"/>
      </g>
     </g>
     <g id="text_1">
      <!-- $\mathdefault{10^{2}}$ -->
      <g transform="translate(228.971018 267.806437) scale(0.1 -0.1)">
       <defs>
        <path id="DejaVuSans-31" d="M 794 531 
L 1825 531 
L 1825 4091 
L 703 3866 
L 703 4441 
L 1819 4666 
L 2450 4666 
L 2450 531 
L 3481 531 
L 3481 0 
L 794 0 
L 794 531 
z
" transform="scale(0.015625)"/>
        <path id="DejaVuSans-30" d="M 2034 4250 
Q 1547 4250 1301 3770 
Q 1056 3291 1056 2328 
Q 1056 1369 1301 889 
Q 1547 409 2034 409 
Q 2525 409 2770 889 
Q 3016 1369 3016 2328 
Q 3016 3291 2770 3770 
Q 2525 4250 2034 4250 
z
M 2034 4750 
Q 2819 4750 3233 4129 
Q 3647 3509 3647 2328 
Q 3647 1150 3233 529 
Q 2819 -91 2034 -91 
Q 1250 -91 836 529 
Q 422 1150 422 2328 
Q 422 3509 836 4129 
Q 1250 4750 2034 4750 
z
" transform="scale(0.015625)"/>
        <path id="DejaVuSans-32" d="M 1228 531 
L 3431 531 
L 3431 0 
L 469 0 
L 469 531 
Q 828 903 1448 1529 
Q 2069 2156 2228 2338 
Q 2531 2678 2651 2914 
Q 2772 3150 2772 3378 
Q 2772 3750 2511 3984 
Q 2250 4219 1831 4219 
Q 1534 4219 1204 4116 
Q 875 4013 500 3803 
L 500 4441 
Q 881 4594 1212 4672 
Q 1544 4750 1819 4750 
Q 2544 4750 2975 4387 
Q 3406 4025 3406 3419 
Q 3406 3131 3298 2873 
Q 3191 2616 2906 2266 
Q 2828 2175 2409 1742 
Q 1991 1309 1228 531 
z
" transform="scale(0.015625)"/>
       </defs>
       <use xlink:href="#DejaVuSans-31" transform="translate(0 0.765625)"/>
       <use xlink:href="#DejaVuSans-30" transform="translate(63.623047 0.765625)"/>
       <use xlink:href="#DejaVuSans-32" transform="translate(128.203125 39.046875) scale(0.7)"/>
      </g>
     </g>
    </g>
    <g id="xtick_2">
     <g id="line2d_11">
      <g>
       <use xlink:href="#mc5350fc809" x="113.7892" y="253.208" style="stroke: #000000; stroke-width: 0.8"/>
      </g>
     </g>
     <g id="text_2">
      <!-- $\mathdefault{10^{3}}$ -->
      <g transform="translate(104.9892 267.806437) scale(0.1 -0.1)">
       <defs>
        <path id="DejaVuSans-33" d="M 2597 2516 
Q 3050 2419 3304 2112 
Q 3559 1806 3559 1356 
Q 3559 666 3084 287 
Q 2609 -91 1734 -91 
Q 1441 -91 1130 -33 
Q 819 25 488 141 
L 488 750 
Q 750 597 1062 519 
Q 1375 441 1716 441 
Q 2309 441 2620 675 
Q 2931 909 2931 1356 
Q 2931 1769 2642 2001 
Q 2353 2234 1838 2234 
L 1294 2234 
L 1294 2753 
L 1863 2753 
Q 2328 2753 2575 2939 
Q 2822 3125 2822 3475 
Q 2822 3834 2567 4026 
Q 2313 4219 1838 4219 
Q 1578 4219 1281 4162 
Q 984 4106 628 3988 
L 628 4550 
Q 988 4650 1302 4700 
Q 1616 4750 1894 4750 
Q 2613 4750 3031 4423 
Q 3450 4097 3450 3541 
Q 3450 3153 3228 2886 
Q 3006 2619 2597 2516 
z
" transform="scale(0.015625)"/>
       </defs>
       <use xlink:href="#DejaVuSans-31" transform="translate(0 0.765625)"/>
       <use xlink:href="#DejaVuSans-30" transform="translate(63.623047 0.765625)"/>
       <use xlink:href="#DejaVuSans-33" transform="translate(128.203125 39.046875) scale(0.7)"/>
      </g>
     </g>
    </g>
    <g id="xtick_3">
     <g id="line2d_12">
      <defs>
       <path id="m14f51dab60" d="M 0 0 
L 0 2 
" style="stroke: #000000; stroke-width: 0.6"/>
      </defs>
      <g>
       <use xlink:href="#m14f51dab60" x="287.108344" y="253.208" style="stroke: #000000; stroke-width: 0.6"/>
      </g>
     </g>
    </g>
    <g id="xtick_4">
     <g id="line2d_13">
      <g>
       <use xlink:href="#m14f51dab60" x="275.093264" y="253.208" style="stroke: #000000; stroke-width: 0.6"/>
      </g>
     </g>
    </g>
    <g id="xtick_5">
     <g id="line2d_14">
      <g>
       <use xlink:href="#m14f51dab60" x="265.276229" y="253.208" style="stroke: #000000; stroke-width: 0.6"/>
      </g>
     </g>
    </g>
    <g id="xtick_6">
     <g id="line2d_15">
      <g>
       <use xlink:href="#m14f51dab60" x="256.976045" y="253.208" style="stroke: #000000; stroke-width: 0.6"/>
      </g>
     </g>
    </g>
    <g id="xtick_7">
     <g id="line2d_16">
      <g>
       <use xlink:href="#m14f51dab60" x="249.786098" y="253.208" style="stroke: #000000; stroke-width: 0.6"/>
      </g>
     </g>
    </g>
    <g id="xtick_8">
     <g id="line2d_17">
      <g>
       <use xlink:href="#m14f51dab60" x="243.444115" y="253.208" style="stroke: #000000; stroke-width: 0.6"/>
      </g>
     </g>
    </g>
    <g id="xtick_9">
     <g id="line2d_18">
      <g>
       <use xlink:href="#m14f51dab60" x="200.448772" y="253.208" style="stroke: #000000; stroke-width: 0.6"/>
      </g>
     </g>
    </g>
    <g id="xtick_10">
     <g id="line2d_19">
      <g>
       <use xlink:href="#m14f51dab60" x="178.616657" y="253.208" style="stroke: #000000; stroke-width: 0.6"/>
      </g>
     </g>
    </g>
    <g id="xtick_11">
     <g id="line2d_20">
      <g>
       <use xlink:href="#m14f51dab60" x="163.126526" y="253.208" style="stroke: #000000; stroke-width: 0.6"/>
      </g>
     </g>
    </g>
    <g id="xtick_12">
     <g id="line2d_21">
      <g>
       <use xlink:href="#m14f51dab60" x="151.111446" y="253.208" style="stroke: #000000; stroke-width: 0.6"/>
      </g>
     </g>
    </g>
    <g id="xtick_13">
     <g id="line2d_22">
      <g>
       <use xlink:href="#m14f51dab60" x="141.294411" y="253.208" style="stroke: #000000; stroke-width: 0.6"/>
      </g>
     </g>
    </g>
    <g id="xtick_14">
     <g id="line2d_23">
      <g>
       <use xlink:href="#m14f51dab60" x="132.994226" y="253.208" style="stroke: #000000; stroke-width: 0.6"/>
      </g>
     </g>
    </g>
    <g id="xtick_15">
     <g id="line2d_24">
      <g>
       <use xlink:href="#m14f51dab60" x="125.804279" y="253.208" style="stroke: #000000; stroke-width: 0.6"/>
      </g>
     </g>
    </g>
    <g id="xtick_16">
     <g id="line2d_25">
      <g>
       <use xlink:href="#m14f51dab60" x="119.462297" y="253.208" style="stroke: #000000; stroke-width: 0.6"/>
      </g>
     </g>
    </g>
    <g id="xtick_17">
     <g id="line2d_26">
      <g>
       <use xlink:href="#m14f51dab60" x="76.466954" y="253.208" style="stroke: #000000; stroke-width: 0.6"/>
      </g>
     </g>
    </g>
    <g id="xtick_18">
     <g id="line2d_27">
      <g>
       <use xlink:href="#m14f51dab60" x="54.634839" y="253.208" style="stroke: #000000; stroke-width: 0.6"/>
      </g>
     </g>
    </g>
    <g id="xtick_19">
     <g id="line2d_28">
      <g>
       <use xlink:href="#m14f51dab60" x="39.144707" y="253.208" style="stroke: #000000; stroke-width: 0.6"/>
      </g>
     </g>
    </g>
    <g id="xtick_20">
     <g id="line2d_29">
      <g>
       <use xlink:href="#m14f51dab60" x="27.129628" y="253.208" style="stroke: #000000; stroke-width: 0.6"/>
      </g>
     </g>
    </g>
   </g>
   <g id="matplotlib.axis_2">
    <g id="ytick_1">
     <g id="line2d_30">
      <defs>
       <path id="m356bd9a89d" d="M 0 0 
L -3.5 0 
" style="stroke: #000000; stroke-width: 0.8"/>
      </defs>
      <g>
       <use xlink:href="#m356bd9a89d" x="26.925" y="243.303633" style="stroke: #000000; stroke-width: 0.8"/>
      </g>
     </g>
     <g id="text_3">
      <!-- 0 -->
      <g transform="translate(13.5625 247.102852) scale(0.1 -0.1)">
       <use xlink:href="#DejaVuSans-30"/>
      </g>
     </g>
    </g>
    <g id="ytick_2">
     <g id="line2d_31">
      <g>
       <use xlink:href="#m356bd9a89d" x="26.925" y="203.793601" style="stroke: #000000; stroke-width: 0.8"/>
      </g>
     </g>
     <g id="text_4">
      <!-- 10 -->
      <g transform="translate(7.2 207.592819) scale(0.1 -0.1)">
       <use xlink:href="#DejaVuSans-31"/>
       <use xlink:href="#DejaVuSans-30" transform="translate(63.623047 0)"/>
      </g>
     </g>
    </g>
    <g id="ytick_3">
     <g id="line2d_32">
      <g>
       <use xlink:href="#m356bd9a89d" x="26.925" y="164.283568" style="stroke: #000000; stroke-width: 0.8"/>
      </g>
     </g>
     <g id="text_5">
      <!-- 20 -->
      <g transform="translate(7.2 168.082787) scale(0.1 -0.1)">
       <use xlink:href="#DejaVuSans-32"/>
       <use xlink:href="#DejaVuSans-30" transform="translate(63.623047 0)"/>
      </g>
     </g>
    </g>
    <g id="ytick_4">
     <g id="line2d_33">
      <g>
       <use xlink:href="#m356bd9a89d" x="26.925" y="124.773536" style="stroke: #000000; stroke-width: 0.8"/>
      </g>
     </g>
     <g id="text_6">
      <!-- 30 -->
      <g transform="translate(7.2 128.572755) scale(0.1 -0.1)">
       <use xlink:href="#DejaVuSans-33"/>
       <use xlink:href="#DejaVuSans-30" transform="translate(63.623047 0)"/>
      </g>
     </g>
    </g>
    <g id="ytick_5">
     <g id="line2d_34">
      <g>
       <use xlink:href="#m356bd9a89d" x="26.925" y="85.263503" style="stroke: #000000; stroke-width: 0.8"/>
      </g>
     </g>
     <g id="text_7">
      <!-- 40 -->
      <g transform="translate(7.2 89.062722) scale(0.1 -0.1)">
       <defs>
        <path id="DejaVuSans-34" d="M 2419 4116 
L 825 1625 
L 2419 1625 
L 2419 4116 
z
M 2253 4666 
L 3047 4666 
L 3047 1625 
L 3713 1625 
L 3713 1100 
L 3047 1100 
L 3047 0 
L 2419 0 
L 2419 1100 
L 313 1100 
L 313 1709 
L 2253 4666 
z
" transform="scale(0.015625)"/>
       </defs>
       <use xlink:href="#DejaVuSans-34"/>
       <use xlink:href="#DejaVuSans-30" transform="translate(63.623047 0)"/>
      </g>
     </g>
    </g>
    <g id="ytick_6">
     <g id="line2d_35">
      <g>
       <use xlink:href="#m356bd9a89d" x="26.925" y="45.753471" style="stroke: #000000; stroke-width: 0.8"/>
      </g>
     </g>
     <g id="text_8">
      <!-- 50 -->
      <g transform="translate(7.2 49.55269) scale(0.1 -0.1)">
       <defs>
        <path id="DejaVuSans-35" d="M 691 4666 
L 3169 4666 
L 3169 4134 
L 1269 4134 
L 1269 2991 
Q 1406 3038 1543 3061 
Q 1681 3084 1819 3084 
Q 2600 3084 3056 2656 
Q 3513 2228 3513 1497 
Q 3513 744 3044 326 
Q 2575 -91 1722 -91 
Q 1428 -91 1123 -41 
Q 819 9 494 109 
L 494 744 
Q 775 591 1075 516 
Q 1375 441 1709 441 
Q 2250 441 2565 725 
Q 2881 1009 2881 1497 
Q 2881 1984 2565 2268 
Q 2250 2553 1709 2553 
Q 1456 2553 1204 2497 
Q 953 2441 691 2322 
L 691 4666 
z
" transform="scale(0.015625)"/>
       </defs>
       <use xlink:href="#DejaVuSans-35"/>
       <use xlink:href="#DejaVuSans-30" transform="translate(63.623047 0)"/>
      </g>
     </g>
    </g>
   </g>
   <g id="PathCollection_1">
    <defs>
     <path id="m558009f453" d="M -3.535534 3.535534 
L 3.535534 3.535534 
L 3.535534 -3.535534 
L -3.535534 -3.535534 
z
" style="stroke: #000000"/>
    </defs>
    <g clip-path="url(#pf59a960953)">
     <use xlink:href="#m558009f453" x="287.286818" y="79.336998" style="fill: #56b4e9; stroke: #000000"/>
     <use xlink:href="#m558009f453" x="200.627246" y="113.315626" style="fill: #56b4e9; stroke: #000000"/>
     <use xlink:href="#m558009f453" x="125.982754" y="124.378435" style="fill: #56b4e9; stroke: #000000"/>
     <use xlink:href="#m558009f453" x="39.323182" y="220.651214" style="fill: #56b4e9; stroke: #000000"/>
    </g>
   </g>
   <g id="PathCollection_2">
    <defs>
     <path id="m0f295479e4" d="M -0 4.472136 
L 4.472136 0 
L 0 -4.472136 
L -4.472136 -0 
z
" style="stroke: #000000"/>
    </defs>
    <g clip-path="url(#pf59a960953)">
     <use xlink:href="#m0f295479e4" x="287.286818" y="152.825659" style="fill: #d55e00; stroke: #000000"/>
     <use xlink:href="#m0f295479e4" x="125.982754" y="171.790474" style="fill: #d55e00; stroke: #000000"/>
     <use xlink:href="#m0f295479e4" x="39.323182" y="207.481204" style="fill: #d55e00; stroke: #000000"/>
     <use xlink:href="#m0f295479e4" x="200.627246" y="153.484159" style="fill: #d55e00; stroke: #000000"/>
    </g>
   </g>
   <g id="PathCollection_3">
    <defs>
     <path id="md2552a64b4" d="M 3.535534 0 
L -3.535534 -3.535534 
L -3.535534 3.535534 
z
" style="stroke: #000000"/>
    </defs>
    <g clip-path="url(#pf59a960953)">
     <use xlink:href="#md2552a64b4" x="125.982754" y="108.574422" style="fill: #009e73; stroke: #000000"/>
     <use xlink:href="#md2552a64b4" x="287.286818" y="115.686228" style="fill: #009e73; stroke: #000000"/>
     <use xlink:href="#md2552a64b4" x="39.323182" y="197.471995" style="fill: #009e73; stroke: #000000"/>
     <use xlink:href="#md2552a64b4" x="200.627246" y="100.804116" style="fill: #009e73; stroke: #000000"/>
    </g>
   </g>
   <g id="patch_3">
    <path d="M 26.925 253.208 
L 26.925 7.2 
" style="fill: none; stroke: #000000; stroke-width: 0.8; stroke-linejoin: miter; stroke-linecap: square"/>
   </g>
   <g id="patch_4">
    <path d="M 26.925 253.208 
L 299.685 253.208 
" style="fill: none; stroke: #000000; stroke-width: 0.8; stroke-linejoin: miter; stroke-linecap: square"/>
   </g>
   <g id="legend_1">
    <g id="PathCollection_4">
     <g>
      <use xlink:href="#m558009f453" x="318.685" y="115.66025" style="fill: #56b4e9; stroke: #000000"/>
     </g>
    </g>
    <g id="text_9">
     <!-- 30Bp Linear -->
     <g transform="translate(336.685 118.28525) scale(0.1 -0.1)">
      <defs>
       <path id="DejaVuSans-42" d="M 1259 2228 
L 1259 519 
L 2272 519 
Q 2781 519 3026 730 
Q 3272 941 3272 1375 
Q 3272 1813 3026 2020 
Q 2781 2228 2272 2228 
L 1259 2228 
z
M 1259 4147 
L 1259 2741 
L 2194 2741 
Q 2656 2741 2882 2914 
Q 3109 3088 3109 3444 
Q 3109 3797 2882 3972 
Q 2656 4147 2194 4147 
L 1259 4147 
z
M 628 4666 
L 2241 4666 
Q 2963 4666 3353 4366 
Q 3744 4066 3744 3513 
Q 3744 3084 3544 2831 
Q 3344 2578 2956 2516 
Q 3422 2416 3680 2098 
Q 3938 1781 3938 1306 
Q 3938 681 3513 340 
Q 3088 0 2303 0 
L 628 0 
L 628 4666 
z
" transform="scale(0.015625)"/>
       <path id="DejaVuSans-70" d="M 1159 525 
L 1159 -1331 
L 581 -1331 
L 581 3500 
L 1159 3500 
L 1159 2969 
Q 1341 3281 1617 3432 
Q 1894 3584 2278 3584 
Q 2916 3584 3314 3078 
Q 3713 2572 3713 1747 
Q 3713 922 3314 415 
Q 2916 -91 2278 -91 
Q 1894 -91 1617 61 
Q 1341 213 1159 525 
z
M 3116 1747 
Q 3116 2381 2855 2742 
Q 2594 3103 2138 3103 
Q 1681 3103 1420 2742 
Q 1159 2381 1159 1747 
Q 1159 1113 1420 752 
Q 1681 391 2138 391 
Q 2594 391 2855 752 
Q 3116 1113 3116 1747 
z
" transform="scale(0.015625)"/>
       <path id="DejaVuSans-20" transform="scale(0.015625)"/>
       <path id="DejaVuSans-4c" d="M 628 4666 
L 1259 4666 
L 1259 531 
L 3531 531 
L 3531 0 
L 628 0 
L 628 4666 
z
" transform="scale(0.015625)"/>
       <path id="DejaVuSans-69" d="M 603 3500 
L 1178 3500 
L 1178 0 
L 603 0 
L 603 3500 
z
M 603 4863 
L 1178 4863 
L 1178 4134 
L 603 4134 
L 603 4863 
z
" transform="scale(0.015625)"/>
       <path id="DejaVuSans-6e" d="M 3513 2113 
L 3513 0 
L 2938 0 
L 2938 2094 
Q 2938 2591 2744 2837 
Q 2550 3084 2163 3084 
Q 1697 3084 1428 2787 
Q 1159 2491 1159 1978 
L 1159 0 
L 581 0 
L 581 3500 
L 1159 3500 
L 1159 2956 
Q 1366 3272 1645 3428 
Q 1925 3584 2291 3584 
Q 2894 3584 3203 3211 
Q 3513 2838 3513 2113 
z
" transform="scale(0.015625)"/>
       <path id="DejaVuSans-65" d="M 3597 1894 
L 3597 1613 
L 953 1613 
Q 991 1019 1311 708 
Q 1631 397 2203 397 
Q 2534 397 2845 478 
Q 3156 559 3463 722 
L 3463 178 
Q 3153 47 2828 -22 
Q 2503 -91 2169 -91 
Q 1331 -91 842 396 
Q 353 884 353 1716 
Q 353 2575 817 3079 
Q 1281 3584 2069 3584 
Q 2775 3584 3186 3129 
Q 3597 2675 3597 1894 
z
M 3022 2063 
Q 3016 2534 2758 2815 
Q 2500 3097 2075 3097 
Q 1594 3097 1305 2825 
Q 1016 2553 972 2059 
L 3022 2063 
z
" transform="scale(0.015625)"/>
       <path id="DejaVuSans-61" d="M 2194 1759 
Q 1497 1759 1228 1600 
Q 959 1441 959 1056 
Q 959 750 1161 570 
Q 1363 391 1709 391 
Q 2188 391 2477 730 
Q 2766 1069 2766 1631 
L 2766 1759 
L 2194 1759 
z
M 3341 1997 
L 3341 0 
L 2766 0 
L 2766 531 
Q 2569 213 2275 61 
Q 1981 -91 1556 -91 
Q 1019 -91 701 211 
Q 384 513 384 1019 
Q 384 1609 779 1909 
Q 1175 2209 1959 2209 
L 2766 2209 
L 2766 2266 
Q 2766 2663 2505 2880 
Q 2244 3097 1772 3097 
Q 1472 3097 1187 3025 
Q 903 2953 641 2809 
L 641 3341 
Q 956 3463 1253 3523 
Q 1550 3584 1831 3584 
Q 2591 3584 2966 3190 
Q 3341 2797 3341 1997 
z
" transform="scale(0.015625)"/>
       <path id="DejaVuSans-72" d="M 2631 2963 
Q 2534 3019 2420 3045 
Q 2306 3072 2169 3072 
Q 1681 3072 1420 2755 
Q 1159 2438 1159 1844 
L 1159 0 
L 581 0 
L 581 3500 
L 1159 3500 
L 1159 2956 
Q 1341 3275 1631 3429 
Q 1922 3584 2338 3584 
Q 2397 3584 2469 3576 
Q 2541 3569 2628 3553 
L 2631 2963 
z
" transform="scale(0.015625)"/>
      </defs>
      <use xlink:href="#DejaVuSans-33"/>
      <use xlink:href="#DejaVuSans-30" transform="translate(63.623047 0)"/>
      <use xlink:href="#DejaVuSans-42" transform="translate(127.246094 0)"/>
      <use xlink:href="#DejaVuSans-70" transform="translate(195.849609 0)"/>
      <use xlink:href="#DejaVuSans-20" transform="translate(259.326172 0)"/>
      <use xlink:href="#DejaVuSans-4c" transform="translate(291.113281 0)"/>
      <use xlink:href="#DejaVuSans-69" transform="translate(346.826172 0)"/>
      <use xlink:href="#DejaVuSans-6e" transform="translate(374.609375 0)"/>
      <use xlink:href="#DejaVuSans-65" transform="translate(437.988281 0)"/>
      <use xlink:href="#DejaVuSans-61" transform="translate(499.511719 0)"/>
      <use xlink:href="#DejaVuSans-72" transform="translate(560.791016 0)"/>
     </g>
    </g>
    <g id="PathCollection_5">
     <g>
      <use xlink:href="#m0f295479e4" x="318.685" y="130.338375" style="fill: #d55e00; stroke: #000000"/>
     </g>
    </g>
    <g id="text_10">
     <!-- 30Bp Branched -->
     <g transform="translate(336.685 132.963375) scale(0.1 -0.1)">
      <defs>
       <path id="DejaVuSans-63" d="M 3122 3366 
L 3122 2828 
Q 2878 2963 2633 3030 
Q 2388 3097 2138 3097 
Q 1578 3097 1268 2742 
Q 959 2388 959 1747 
Q 959 1106 1268 751 
Q 1578 397 2138 397 
Q 2388 397 2633 464 
Q 2878 531 3122 666 
L 3122 134 
Q 2881 22 2623 -34 
Q 2366 -91 2075 -91 
Q 1284 -91 818 406 
Q 353 903 353 1747 
Q 353 2603 823 3093 
Q 1294 3584 2113 3584 
Q 2378 3584 2631 3529 
Q 2884 3475 3122 3366 
z
" transform="scale(0.015625)"/>
       <path id="DejaVuSans-68" d="M 3513 2113 
L 3513 0 
L 2938 0 
L 2938 2094 
Q 2938 2591 2744 2837 
Q 2550 3084 2163 3084 
Q 1697 3084 1428 2787 
Q 1159 2491 1159 1978 
L 1159 0 
L 581 0 
L 581 4863 
L 1159 4863 
L 1159 2956 
Q 1366 3272 1645 3428 
Q 1925 3584 2291 3584 
Q 2894 3584 3203 3211 
Q 3513 2838 3513 2113 
z
" transform="scale(0.015625)"/>
       <path id="DejaVuSans-64" d="M 2906 2969 
L 2906 4863 
L 3481 4863 
L 3481 0 
L 2906 0 
L 2906 525 
Q 2725 213 2448 61 
Q 2172 -91 1784 -91 
Q 1150 -91 751 415 
Q 353 922 353 1747 
Q 353 2572 751 3078 
Q 1150 3584 1784 3584 
Q 2172 3584 2448 3432 
Q 2725 3281 2906 2969 
z
M 947 1747 
Q 947 1113 1208 752 
Q 1469 391 1925 391 
Q 2381 391 2643 752 
Q 2906 1113 2906 1747 
Q 2906 2381 2643 2742 
Q 2381 3103 1925 3103 
Q 1469 3103 1208 2742 
Q 947 2381 947 1747 
z
" transform="scale(0.015625)"/>
      </defs>
      <use xlink:href="#DejaVuSans-33"/>
      <use xlink:href="#DejaVuSans-30" transform="translate(63.623047 0)"/>
      <use xlink:href="#DejaVuSans-42" transform="translate(127.246094 0)"/>
      <use xlink:href="#DejaVuSans-70" transform="translate(195.849609 0)"/>
      <use xlink:href="#DejaVuSans-20" transform="translate(259.326172 0)"/>
      <use xlink:href="#DejaVuSans-42" transform="translate(291.113281 0)"/>
      <use xlink:href="#DejaVuSans-72" transform="translate(359.716797 0)"/>
      <use xlink:href="#DejaVuSans-61" transform="translate(400.830078 0)"/>
      <use xlink:href="#DejaVuSans-6e" transform="translate(462.109375 0)"/>
      <use xlink:href="#DejaVuSans-63" transform="translate(525.488281 0)"/>
      <use xlink:href="#DejaVuSans-68" transform="translate(580.46875 0)"/>
      <use xlink:href="#DejaVuSans-65" transform="translate(643.847656 0)"/>
      <use xlink:href="#DejaVuSans-64" transform="translate(705.371094 0)"/>
     </g>
    </g>
    <g id="PathCollection_6">
     <g>
      <use xlink:href="#md2552a64b4" x="318.685" y="145.0165" style="fill: #009e73; stroke: #000000"/>
     </g>
    </g>
    <g id="text_11">
     <!-- 4 Way Star -->
     <g transform="translate(336.685 147.6415) scale(0.1 -0.1)">
      <defs>
       <path id="DejaVuSans-57" d="M 213 4666 
L 850 4666 
L 1831 722 
L 2809 4666 
L 3519 4666 
L 4500 722 
L 5478 4666 
L 6119 4666 
L 4947 0 
L 4153 0 
L 3169 4050 
L 2175 0 
L 1381 0 
L 213 4666 
z
" transform="scale(0.015625)"/>
       <path id="DejaVuSans-79" d="M 2059 -325 
Q 1816 -950 1584 -1140 
Q 1353 -1331 966 -1331 
L 506 -1331 
L 506 -850 
L 844 -850 
Q 1081 -850 1212 -737 
Q 1344 -625 1503 -206 
L 1606 56 
L 191 3500 
L 800 3500 
L 1894 763 
L 2988 3500 
L 3597 3500 
L 2059 -325 
z
" transform="scale(0.015625)"/>
       <path id="DejaVuSans-53" d="M 3425 4513 
L 3425 3897 
Q 3066 4069 2747 4153 
Q 2428 4238 2131 4238 
Q 1616 4238 1336 4038 
Q 1056 3838 1056 3469 
Q 1056 3159 1242 3001 
Q 1428 2844 1947 2747 
L 2328 2669 
Q 3034 2534 3370 2195 
Q 3706 1856 3706 1288 
Q 3706 609 3251 259 
Q 2797 -91 1919 -91 
Q 1588 -91 1214 -16 
Q 841 59 441 206 
L 441 856 
Q 825 641 1194 531 
Q 1563 422 1919 422 
Q 2459 422 2753 634 
Q 3047 847 3047 1241 
Q 3047 1584 2836 1778 
Q 2625 1972 2144 2069 
L 1759 2144 
Q 1053 2284 737 2584 
Q 422 2884 422 3419 
Q 422 4038 858 4394 
Q 1294 4750 2059 4750 
Q 2388 4750 2728 4690 
Q 3069 4631 3425 4513 
z
" transform="scale(0.015625)"/>
       <path id="DejaVuSans-74" d="M 1172 4494 
L 1172 3500 
L 2356 3500 
L 2356 3053 
L 1172 3053 
L 1172 1153 
Q 1172 725 1289 603 
Q 1406 481 1766 481 
L 2356 481 
L 2356 0 
L 1766 0 
Q 1100 0 847 248 
Q 594 497 594 1153 
L 594 3053 
L 172 3053 
L 172 3500 
L 594 3500 
L 594 4494 
L 1172 4494 
z
" transform="scale(0.015625)"/>
      </defs>
      <use xlink:href="#DejaVuSans-34"/>
      <use xlink:href="#DejaVuSans-20" transform="translate(63.623047 0)"/>
      <use xlink:href="#DejaVuSans-57" transform="translate(95.410156 0)"/>
      <use xlink:href="#DejaVuSans-61" transform="translate(187.912109 0)"/>
      <use xlink:href="#DejaVuSans-79" transform="translate(249.191406 0)"/>
      <use xlink:href="#DejaVuSans-20" transform="translate(308.371094 0)"/>
      <use xlink:href="#DejaVuSans-53" transform="translate(340.158203 0)"/>
      <use xlink:href="#DejaVuSans-74" transform="translate(403.634766 0)"/>
      <use xlink:href="#DejaVuSans-61" transform="translate(442.84375 0)"/>
      <use xlink:href="#DejaVuSans-72" transform="translate(504.123047 0)"/>
     </g>
    </g>
   </g>
  </g>
 </g>
 <defs>
  <clipPath id="pf59a960953">
   <rect x="26.925" y="7.2" width="272.76" height="246.008"/>
  </clipPath>
 </defs>
</svg>
