<?xml version="1.0" encoding="utf-8" standalone="no"?>
<!DOCTYPE svg PUBLIC "-//W3C//DTD SVG 1.1//EN"
  "http://www.w3.org/Graphics/SVG/1.1/DTD/svg11.dtd">
<svg xmlns:xlink="http://www.w3.org/1999/xlink" width="424.525937pt" height="279.99625pt" viewBox="0 0 424.525937 279.99625" xmlns="http://www.w3.org/2000/svg" version="1.1">
 <metadata>
  <rdf:RDF xmlns:dc="http://purl.org/dc/elements/1.1/" xmlns:cc="http://creativecommons.org/ns#" xmlns:rdf="http://www.w3.org/1999/02/22-rdf-syntax-ns#">
   <cc:Work>
    <dc:type rdf:resource="http://purl.org/dc/dcmitype/StillImage"/>
    <dc:date>2024-11-21T13:23:03.692323</dc:date>
    <dc:format>image/svg+xml</dc:format>
    <dc:creator>
     <cc:Agent>
      <dc:title>Matplotlib v3.7.1, https://matplotlib.org/</dc:title>
     </cc:Agent>
    </dc:creator>
   </cc:Work>
  </rdf:RDF>
 </metadata>
 <defs>
  <style type="text/css">*{stroke-linejoin: round; stroke-linecap: butt}</style>
 </defs>
 <g id="figure_1">
  <g id="patch_1">
   <path d="M -0 279.99625 
L 424.525937 279.99625 
L 424.525937 0 
L -0 0 
z
" style="fill: #ffffff"/>
  </g>
  <g id="axes_1">
   <g id="patch_2">
    <path d="M 40.603125 242.44 
L 309.993125 242.44 
L 309.993125 7.2 
L 40.603125 7.2 
z
" style="fill: #ffffff"/>
   </g>
   <g id="PolyCollection_1">
    <defs>
     <path id="mfa6f9973b2" d="M 52.848125 -67.365834 
L 52.848125 -64.908928 
L 56.998972 -66.038033 
L 61.149819 -64.306582 
L 65.300667 -65.7893 
L 69.451515 -65.717093 
L 73.60236 -63.313715 
L 77.753208 -63.213113 
L 81.904055 -61.745453 
L 86.054904 -63.814951 
L 90.205752 -62.751538 
L 94.356599 -62.908005 
L 98.507446 -58.539432 
L 102.658293 -61.564634 
L 106.809141 -62.456973 
L 110.959988 -59.841178 
L 115.110835 -61.320436 
L 119.261683 -60.089674 
L 123.41253 -61.273065 
L 127.563377 -58.440046 
L 131.714225 -58.901902 
L 135.865072 -59.824864 
L 140.015919 -57.390177 
L 144.166767 -57.828211 
L 148.317614 -52.64251 
L 152.468461 -57.093806 
L 156.619309 -60.275856 
L 160.770156 -59.738623 
L 164.921003 -57.298039 
L 169.07185 -55.125634 
L 173.222698 -56.156817 
L 177.373545 -57.419478 
L 181.524392 -58.70618 
L 185.675248 -55.349678 
L 189.826095 -57.674907 
L 193.976942 -52.369904 
L 198.12779 -57.087107 
L 202.278637 -54.426332 
L 206.429484 -53.409185 
L 210.580331 -54.617565 
L 214.731179 -54.70858 
L 218.882026 -54.787008 
L 223.032873 -52.19896 
L 227.183721 -55.15871 
L 231.334568 -55.021488 
L 235.485415 -55.614566 
L 239.636263 -48.973147 
L 243.78711 -52.757243 
L 247.937957 -51.504603 
L 252.088805 -54.291975 
L 256.239652 -51.97864 
L 260.390499 -56.237944 
L 264.541347 -49.149698 
L 268.692194 -48.939812 
L 272.843041 -51.010392 
L 276.993888 -48.248977 
L 281.144736 -51.18057 
L 285.295583 -52.019779 
L 289.44643 -49.133976 
L 293.597278 -48.941348 
L 297.748125 -54.316642 
L 297.748125 -62.035352 
L 297.748125 -62.035352 
L 293.597278 -59.250846 
L 289.44643 -60.870918 
L 285.295583 -61.161644 
L 281.144736 -61.458427 
L 276.993888 -60.021661 
L 272.843041 -59.931233 
L 268.692194 -59.613284 
L 264.541347 -61.858684 
L 260.390499 -60.401553 
L 256.239652 -62.984488 
L 252.088805 -62.102608 
L 247.937957 -62.365314 
L 243.78711 -59.282335 
L 239.636263 -62.058688 
L 235.485415 -61.101516 
L 231.334568 -63.071204 
L 227.183721 -63.104646 
L 223.032873 -62.911089 
L 218.882026 -60.383824 
L 214.731179 -62.870984 
L 210.580331 -64.57301 
L 206.429484 -62.334196 
L 202.278637 -62.034097 
L 198.12779 -61.082435 
L 193.976942 -62.575809 
L 189.826095 -61.860464 
L 185.675248 -62.026882 
L 181.524392 -61.841048 
L 177.373545 -63.696776 
L 173.222698 -61.081417 
L 169.07185 -62.890855 
L 164.921003 -61.709681 
L 160.770156 -64.500869 
L 156.619309 -62.058553 
L 152.468461 -62.678418 
L 148.317614 -61.452255 
L 144.166767 -62.772006 
L 140.015919 -64.20078 
L 135.865072 -63.800605 
L 131.714225 -63.758652 
L 127.563377 -65.441904 
L 123.41253 -63.758579 
L 119.261683 -60.776802 
L 115.110835 -66.402299 
L 110.959988 -62.852082 
L 106.809141 -67.207463 
L 102.658293 -64.0092 
L 98.507446 -66.827903 
L 94.356599 -68.104979 
L 90.205752 -66.464416 
L 86.054904 -68.449898 
L 81.904055 -66.327263 
L 77.753208 -64.403424 
L 73.60236 -65.417327 
L 69.451515 -66.928716 
L 65.300667 -67.652915 
L 61.149819 -66.513987 
L 56.998972 -67.735255 
L 52.848125 -67.365834 
z
"/>
    </defs>
    <g clip-path="url(#pbbb2e9c125)">
     <use xlink:href="#mfa6f9973b2" x="0" y="279.99625" style="fill: #56b4e9; fill-opacity: 0.2"/>
    </g>
   </g>
   <g id="PolyCollection_2">
    <defs>
     <path id="mbdaf3cdb14" d="M 52.848125 -147.555355 
L 52.848125 -92.726539 
L 56.998972 -96.042467 
L 61.149819 -98.090326 
L 65.300667 -99.63259 
L 69.451515 -102.428577 
L 73.60236 -102.070903 
L 77.753208 -102.485553 
L 81.904055 -104.427761 
L 86.054904 -104.781769 
L 90.205752 -107.392359 
L 94.356599 -105.800683 
L 98.507446 -106.518116 
L 102.658293 -104.553962 
L 106.809141 -106.750322 
L 110.959988 -106.610736 
L 115.110835 -104.598853 
L 119.261683 -104.252088 
L 123.41253 -105.590297 
L 127.563377 -103.041384 
L 131.714225 -103.068106 
L 135.865072 -103.283634 
L 140.015919 -102.003044 
L 144.166767 -102.302385 
L 148.317614 -101.130968 
L 152.468461 -101.758339 
L 156.619309 -101.48412 
L 160.770156 -98.957983 
L 164.921003 -100.035909 
L 169.07185 -99.327407 
L 173.222698 -98.507834 
L 177.373545 -99.405481 
L 181.524392 -98.307681 
L 185.675248 -98.567445 
L 189.826095 -97.222476 
L 193.976942 -98.312125 
L 198.12779 -99.427573 
L 202.278637 -97.073487 
L 206.429484 -97.486098 
L 210.580331 -96.116268 
L 214.731179 -99.243061 
L 218.882026 -99.369664 
L 223.032873 -96.123596 
L 227.183721 -97.566406 
L 231.334568 -97.867235 
L 235.485415 -96.635653 
L 239.636263 -98.266924 
L 243.78711 -97.389601 
L 247.937957 -97.301075 
L 252.088805 -99.375263 
L 256.239652 -100.209336 
L 260.390499 -96.892547 
L 264.541347 -97.855608 
L 268.692194 -98.519723 
L 272.843041 -100.247512 
L 276.993888 -99.873493 
L 281.144736 -99.978427 
L 285.295583 -98.512075 
L 289.44643 -99.98776 
L 293.597278 -98.120321 
L 297.748125 -98.333196 
L 297.748125 -154.807607 
L 297.748125 -154.807607 
L 293.597278 -154.271051 
L 289.44643 -156.553023 
L 285.295583 -154.943924 
L 281.144736 -152.630414 
L 276.993888 -156.193598 
L 272.843041 -155.940245 
L 268.692194 -153.97634 
L 264.541347 -156.776863 
L 260.390499 -155.538767 
L 256.239652 -158.363681 
L 252.088805 -157.770116 
L 247.937957 -156.567967 
L 243.78711 -154.119617 
L 239.636263 -157.145375 
L 235.485415 -153.812174 
L 231.334568 -154.678115 
L 227.183721 -154.700537 
L 223.032873 -155.81894 
L 218.882026 -157.658602 
L 214.731179 -160.376306 
L 210.580331 -154.139034 
L 206.429484 -155.768565 
L 202.278637 -154.033023 
L 198.12779 -157.916308 
L 193.976942 -157.294887 
L 189.826095 -156.15387 
L 185.675248 -157.283709 
L 181.524392 -158.183155 
L 177.373545 -161.547733 
L 173.222698 -157.831325 
L 169.07185 -161.714783 
L 164.921003 -160.777916 
L 160.770156 -159.638489 
L 156.619309 -166.156527 
L 152.468461 -166.079511 
L 148.317614 -169.964834 
L 144.166767 -170.097069 
L 140.015919 -173.498103 
L 135.865072 -176.102151 
L 131.714225 -180.570041 
L 127.563377 -183.546681 
L 123.41253 -184.030691 
L 119.261683 -193.463316 
L 115.110835 -197.135901 
L 110.959988 -195.225891 
L 106.809141 -199.076058 
L 102.658293 -199.98869 
L 98.507446 -205.528337 
L 94.356599 -212.74559 
L 90.205752 -208.378459 
L 86.054904 -193.566602 
L 81.904055 -188.952157 
L 77.753208 -185.411404 
L 73.60236 -179.30904 
L 69.451515 -173.550963 
L 65.300667 -169.594867 
L 61.149819 -170.232583 
L 56.998972 -163.875966 
L 52.848125 -147.555355 
z
"/>
    </defs>
    <g clip-path="url(#pbbb2e9c125)">
     <use xlink:href="#mbdaf3cdb14" x="0" y="279.99625" style="fill: #d55e00; fill-opacity: 0.2"/>
    </g>
   </g>
   <g id="PolyCollection_3">
    <defs>
     <path id="m3dbddba6ed" d="M 52.848125 -175.147591 
L 52.848125 -86.61584 
L 56.998972 -86.669821 
L 61.149819 -86.666328 
L 65.300667 -85.976246 
L 69.451515 -88.802683 
L 73.60236 -88.843665 
L 77.753208 -86.0783 
L 81.904055 -87.440374 
L 86.054904 -89.319241 
L 90.205752 -87.6453 
L 94.356599 -86.023427 
L 98.507446 -89.540805 
L 102.658293 -88.725966 
L 106.809141 -88.812768 
L 110.959988 -91.30551 
L 115.110835 -89.703993 
L 119.261683 -92.994586 
L 123.41253 -93.854865 
L 127.563377 -92.579353 
L 131.714225 -93.535177 
L 135.865072 -93.236332 
L 140.015919 -95.05866 
L 144.166767 -94.178722 
L 148.317614 -97.190224 
L 152.468461 -95.485724 
L 156.619309 -97.104281 
L 160.770156 -99.739153 
L 164.921003 -99.885785 
L 169.07185 -97.849951 
L 173.222698 -100.548593 
L 177.373545 -101.803819 
L 181.524392 -101.771833 
L 185.675248 -102.476931 
L 189.826095 -102.937273 
L 193.976942 -105.027575 
L 198.12779 -105.67647 
L 202.278637 -106.697291 
L 206.429484 -106.536843 
L 210.580331 -106.155191 
L 214.731179 -106.710927 
L 218.882026 -106.55142 
L 223.032873 -107.317212 
L 227.183721 -107.745767 
L 231.334568 -110.522474 
L 235.485415 -109.424206 
L 239.636263 -108.861359 
L 243.78711 -109.762571 
L 247.937957 -108.020962 
L 252.088805 -110.640373 
L 256.239652 -109.55759 
L 260.390499 -111.129141 
L 264.541347 -109.033916 
L 268.692194 -111.922498 
L 272.843041 -108.435231 
L 276.993888 -111.676337 
L 281.144736 -111.803516 
L 285.295583 -111.940878 
L 289.44643 -109.997429 
L 293.597278 -110.682723 
L 297.748125 -113.177722 
L 297.748125 -247.342143 
L 297.748125 -247.342143 
L 293.597278 -256.353387 
L 289.44643 -246.192483 
L 285.295583 -247.166872 
L 281.144736 -254.930617 
L 276.993888 -252.78863 
L 272.843041 -250.183924 
L 268.692194 -254.471946 
L 264.541347 -255.174703 
L 260.390499 -253.538608 
L 256.239652 -252.609007 
L 252.088805 -262.037702 
L 247.937957 -261.033939 
L 243.78711 -255.714666 
L 239.636263 -258.854548 
L 235.485415 -258.136532 
L 231.334568 -259.401006 
L 227.183721 -256.867877 
L 223.032873 -261.367268 
L 218.882026 -257.726416 
L 214.731179 -261.123287 
L 210.580331 -262.103523 
L 206.429484 -260.588132 
L 202.278637 -257.196183 
L 198.12779 -255.647028 
L 193.976942 -254.126941 
L 189.826095 -252.272215 
L 185.675248 -242.95713 
L 181.524392 -241.683836 
L 177.373545 -231.667752 
L 173.222698 -227.314756 
L 169.07185 -215.268852 
L 164.921003 -205.599963 
L 160.770156 -199.74325 
L 156.619309 -192.619817 
L 152.468461 -178.765066 
L 148.317614 -185.855508 
L 144.166767 -166.866536 
L 140.015919 -173.792461 
L 135.865072 -166.798275 
L 131.714225 -169.677344 
L 127.563377 -171.656281 
L 123.41253 -163.379482 
L 119.261683 -155.944743 
L 115.110835 -152.44969 
L 110.959988 -149.596336 
L 106.809141 -147.210463 
L 102.658293 -143.90995 
L 98.507446 -146.925317 
L 94.356599 -139.448184 
L 90.205752 -141.769508 
L 86.054904 -149.315384 
L 81.904055 -147.461659 
L 77.753208 -145.321279 
L 73.60236 -157.892474 
L 69.451515 -171.962234 
L 65.300667 -162.890255 
L 61.149819 -166.250208 
L 56.998972 -167.442708 
L 52.848125 -175.147591 
z
"/>
    </defs>
    <g clip-path="url(#pbbb2e9c125)">
     <use xlink:href="#m3dbddba6ed" x="0" y="279.99625" style="fill: #009e73; fill-opacity: 0.2"/>
    </g>
   </g>
   <g id="PolyCollection_4">
    <defs>
     <path id="mab9cd9bae0" d="M 52.848125 -130.135462 
L 52.848125 -108.208098 
L 56.998972 -111.882379 
L 61.149819 -115.804469 
L 65.300667 -114.617942 
L 69.451515 -116.18431 
L 73.60236 -118.119038 
L 77.753208 -115.918307 
L 81.904055 -119.098294 
L 86.054904 -122.272235 
L 90.205752 -122.053279 
L 94.356599 -122.768992 
L 98.507446 -122.11961 
L 102.658293 -123.442085 
L 106.809141 -126.311997 
L 110.959988 -128.101891 
L 115.110835 -127.322952 
L 119.261683 -129.002285 
L 123.41253 -127.706618 
L 127.563377 -131.112895 
L 131.714225 -131.973361 
L 135.865072 -134.152326 
L 140.015919 -136.077085 
L 144.166767 -132.696463 
L 148.317614 -136.275365 
L 152.468461 -139.957162 
L 156.619309 -139.811588 
L 160.770156 -140.643323 
L 164.921003 -139.728978 
L 169.07185 -140.483236 
L 173.222698 -140.84218 
L 177.373545 -143.34775 
L 181.524392 -140.580719 
L 185.675248 -144.577994 
L 189.826095 -143.895843 
L 193.976942 -143.030136 
L 198.12779 -141.190006 
L 202.278637 -145.312304 
L 206.429484 -140.243657 
L 210.580331 -145.368731 
L 214.731179 -142.58709 
L 218.882026 -142.203746 
L 223.032873 -142.143886 
L 227.183721 -137.953878 
L 231.334568 -140.815707 
L 235.485415 -144.930433 
L 239.636263 -140.486781 
L 243.78711 -143.752069 
L 247.937957 -142.813525 
L 252.088805 -142.787659 
L 256.239652 -140.302166 
L 260.390499 -140.438301 
L 264.541347 -141.3794 
L 268.692194 -141.422009 
L 272.843041 -140.981995 
L 276.993888 -139.86439 
L 281.144736 -141.128968 
L 285.295583 -141.848639 
L 289.44643 -140.064431 
L 293.597278 -141.761492 
L 297.748125 -139.897592 
L 297.748125 -230.19062 
L 297.748125 -230.19062 
L 293.597278 -230.567902 
L 289.44643 -225.983242 
L 285.295583 -234.605561 
L 281.144736 -234.915811 
L 276.993888 -223.656237 
L 272.843041 -229.114883 
L 268.692194 -232.272022 
L 264.541347 -228.207748 
L 260.390499 -228.686394 
L 256.239652 -228.900691 
L 252.088805 -229.729856 
L 247.937957 -230.446283 
L 243.78711 -232.29698 
L 239.636263 -227.912089 
L 235.485415 -232.187256 
L 231.334568 -231.653449 
L 227.183721 -229.173352 
L 223.032873 -234.131101 
L 218.882026 -227.82262 
L 214.731179 -232.037565 
L 210.580331 -231.888798 
L 206.429484 -229.200702 
L 202.278637 -234.821661 
L 198.12779 -230.187031 
L 193.976942 -232.035366 
L 189.826095 -226.626487 
L 185.675248 -228.759226 
L 181.524392 -215.76737 
L 177.373545 -222.644933 
L 173.222698 -216.213886 
L 169.07185 -209.321314 
L 164.921003 -215.659029 
L 160.770156 -205.686376 
L 156.619309 -206.389876 
L 152.468461 -199.878323 
L 148.317614 -207.222278 
L 144.166767 -195.257303 
L 140.015919 -200.259299 
L 135.865072 -199.986043 
L 131.714225 -198.627399 
L 127.563377 -192.891693 
L 123.41253 -186.448637 
L 119.261683 -186.559956 
L 115.110835 -180.781376 
L 110.959988 -188.633215 
L 106.809141 -178.639571 
L 102.658293 -177.799677 
L 98.507446 -166.450314 
L 94.356599 -164.036929 
L 90.205752 -164.402913 
L 86.054904 -159.460227 
L 81.904055 -157.216966 
L 77.753208 -149.802183 
L 73.60236 -149.619629 
L 69.451515 -150.556033 
L 65.300667 -148.342916 
L 61.149819 -143.404882 
L 56.998972 -139.345696 
L 52.848125 -130.135462 
z
"/>
    </defs>
    <g clip-path="url(#pbbb2e9c125)">
     <use xlink:href="#mab9cd9bae0" x="0" y="279.99625" style="fill: #f0e442; fill-opacity: 0.2"/>
    </g>
   </g>
   <g id="line2d_1">
    <path d="M 52.848125 213.858869 
L 56.998972 213.109606 
L 61.149819 214.585965 
L 65.300667 213.275142 
L 69.451515 213.673346 
L 73.60236 215.630729 
L 77.753208 216.187981 
L 81.904055 215.959892 
L 86.054904 213.863826 
L 90.205752 215.388273 
L 94.356599 214.489758 
L 98.507446 217.312582 
L 102.658293 217.209333 
L 106.809141 215.164032 
L 110.959988 218.64962 
L 115.110835 216.134882 
L 119.261683 219.563012 
L 123.41253 217.480428 
L 127.563377 218.055275 
L 131.714225 218.665973 
L 135.865072 218.183515 
L 140.015919 219.200771 
L 144.166767 219.696142 
L 148.317614 222.948867 
L 152.468461 220.110138 
L 156.619309 218.829046 
L 160.770156 217.876504 
L 164.921003 220.49239 
L 169.07185 220.988005 
L 173.222698 221.377133 
L 177.373545 219.438123 
L 181.524392 219.722636 
L 185.675248 221.30797 
L 189.826095 220.228565 
L 193.976942 222.523394 
L 198.12779 220.911479 
L 202.278637 221.766035 
L 206.429484 222.12456 
L 210.580331 220.400962 
L 214.731179 221.206468 
L 218.882026 222.410834 
L 223.032873 222.441226 
L 227.183721 220.864572 
L 231.334568 220.949904 
L 235.485415 221.638209 
L 239.636263 224.480333 
L 243.78711 223.976461 
L 247.937957 223.061291 
L 252.088805 221.798958 
L 256.239652 222.514686 
L 260.390499 221.676502 
L 264.541347 224.492059 
L 268.692194 225.719702 
L 272.843041 224.525437 
L 276.993888 225.860931 
L 281.144736 223.676752 
L 285.295583 223.405538 
L 289.44643 224.993803 
L 293.597278 225.900153 
L 297.748125 221.820253 
" clip-path="url(#pbbb2e9c125)" style="fill: none; stroke: #56b4e9; stroke-width: 1.5; stroke-linecap: square"/>
   </g>
   <g id="line2d_2">
    <path d="M 52.848125 159.855303 
L 56.998972 150.037033 
L 61.149819 145.834796 
L 65.300667 145.382522 
L 69.451515 142.00648 
L 73.60236 139.306278 
L 77.753208 136.047772 
L 81.904055 133.306291 
L 86.054904 130.822065 
L 90.205752 122.110841 
L 94.356599 120.723114 
L 98.507446 123.973024 
L 102.658293 127.724924 
L 106.809141 127.08306 
L 110.959988 129.077937 
L 115.110835 129.128873 
L 119.261683 131.138548 
L 123.41253 135.185756 
L 127.563377 136.702217 
L 131.714225 138.177177 
L 135.865072 140.303357 
L 140.015919 142.245676 
L 144.166767 143.796523 
L 148.317614 144.448349 
L 152.468461 146.077325 
L 156.619309 146.175926 
L 160.770156 150.698014 
L 164.921003 149.589337 
L 169.07185 149.475155 
L 173.222698 151.82667 
L 177.373545 149.519643 
L 181.524392 151.750832 
L 185.675248 152.070673 
L 189.826095 153.308077 
L 193.976942 152.192744 
L 198.12779 151.324309 
L 202.278637 154.442995 
L 206.429484 153.368919 
L 210.580331 154.868599 
L 214.731179 150.186567 
L 218.882026 151.482117 
L 223.032873 154.024982 
L 227.183721 153.862778 
L 231.334568 153.723575 
L 235.485415 154.772337 
L 239.636263 152.290101 
L 243.78711 154.241641 
L 247.937957 153.061729 
L 252.088805 151.42356 
L 256.239652 150.709741 
L 260.390499 153.780593 
L 264.541347 152.680014 
L 268.692194 153.748219 
L 272.843041 151.902372 
L 276.993888 151.962704 
L 281.144736 153.69183 
L 285.295583 153.26825 
L 289.44643 151.725859 
L 293.597278 153.800564 
L 297.748125 153.425849 
" clip-path="url(#pbbb2e9c125)" style="fill: none; stroke: #d55e00; stroke-width: 1.5; stroke-linecap: square"/>
   </g>
   <g id="line2d_3">
    <path d="M 52.848125 149.114534 
L 56.998972 152.939986 
L 61.149819 153.537982 
L 65.300667 155.562999 
L 69.451515 149.613791 
L 73.60236 156.62818 
L 77.753208 164.29646 
L 81.904055 162.545233 
L 86.054904 160.678938 
L 90.205752 165.288846 
L 94.356599 167.260444 
L 98.507446 161.763189 
L 102.658293 163.678292 
L 106.809141 161.984635 
L 110.959988 159.545327 
L 115.110835 158.919409 
L 119.261683 155.526585 
L 123.41253 151.379077 
L 127.563377 147.878433 
L 131.714225 148.389989 
L 135.865072 149.978946 
L 140.015919 145.57069 
L 144.166767 149.473621 
L 148.317614 138.473384 
L 152.468461 142.870855 
L 156.619309 135.134201 
L 160.770156 130.255049 
L 164.921003 127.253376 
L 169.07185 123.436849 
L 173.222698 116.064576 
L 177.373545 113.260464 
L 181.524392 108.268415 
L 185.675248 107.279219 
L 189.826095 102.391506 
L 193.976942 100.418992 
L 198.12779 99.334501 
L 202.278637 98.049513 
L 206.429484 96.433763 
L 210.580331 95.866893 
L 214.731179 96.079143 
L 218.882026 97.857332 
L 223.032873 95.65401 
L 227.183721 97.689428 
L 231.334568 95.03451 
L 235.485415 96.215881 
L 239.636263 96.138296 
L 243.78711 97.257632 
L 247.937957 95.468799 
L 252.088805 93.657212 
L 256.239652 98.912952 
L 260.390499 97.662376 
L 264.541347 97.89194 
L 268.692194 96.799028 
L 272.843041 100.686673 
L 276.993888 97.763767 
L 281.144736 96.629183 
L 285.295583 100.442375 
L 289.44643 101.901294 
L 293.597278 96.478195 
L 297.748125 99.736318 
" clip-path="url(#pbbb2e9c125)" style="fill: none; stroke: #009e73; stroke-width: 1.5; stroke-linecap: square"/>
   </g>
   <g id="line2d_4">
    <path d="M 52.848125 160.82447 
L 56.998972 154.382213 
L 61.149819 150.391575 
L 65.300667 148.515821 
L 69.451515 146.626079 
L 73.60236 146.126916 
L 77.753208 147.136005 
L 81.904055 141.83862 
L 86.054904 139.130019 
L 90.205752 136.768154 
L 94.356599 136.59329 
L 98.507446 135.711288 
L 102.658293 129.375369 
L 106.809141 127.520466 
L 110.959988 121.628697 
L 115.110835 125.944086 
L 119.261683 122.21513 
L 123.41253 122.918622 
L 127.563377 117.993956 
L 131.714225 114.69587 
L 135.865072 112.927066 
L 140.015919 111.828058 
L 144.166767 116.019367 
L 148.317614 108.247428 
L 152.468461 110.078507 
L 156.619309 106.895518 
L 160.770156 106.831401 
L 164.921003 102.302246 
L 169.07185 105.093975 
L 173.222698 101.468217 
L 177.373545 96.999908 
L 181.524392 101.822206 
L 185.675248 93.32764 
L 189.826095 94.735085 
L 193.976942 92.463499 
L 198.12779 94.307731 
L 202.278637 89.929268 
L 206.429484 95.27407 
L 210.580331 91.367485 
L 214.731179 92.683922 
L 218.882026 94.983067 
L 223.032873 91.858756 
L 227.183721 96.432635 
L 231.334568 93.761672 
L 235.485415 91.437405 
L 239.636263 95.796815 
L 243.78711 91.971726 
L 247.937957 93.366346 
L 252.088805 93.737492 
L 256.239652 95.394821 
L 260.390499 95.433903 
L 264.541347 95.202676 
L 268.692194 93.149234 
L 272.843041 94.947811 
L 276.993888 98.235936 
L 281.144736 91.97386 
L 285.295583 91.76915 
L 289.44643 96.972414 
L 293.597278 93.831553 
L 297.748125 94.952144 
" clip-path="url(#pbbb2e9c125)" style="fill: none; stroke: #f0e442; stroke-width: 1.5; stroke-linecap: square"/>
   </g>
   <g id="line2d_5"/>
   <g id="line2d_6"/>
   <g id="line2d_7"/>
   <g id="line2d_8"/>
   <g id="matplotlib.axis_1">
    <g id="xtick_1">
     <g id="line2d_9">
      <defs>
       <path id="m0753978a29" d="M 0 0 
L 0 3.5 
" style="stroke: #000000; stroke-width: 0.8"/>
      </defs>
      <g>
       <use xlink:href="#m0753978a29" x="52.844666" y="242.44" style="stroke: #000000; stroke-width: 0.8"/>
      </g>
     </g>
     <g id="text_1">
      <!-- 0 -->
      <g transform="translate(49.663416 257.038437) scale(0.1 -0.1)">
       <defs>
        <path id="DejaVuSans-30" d="M 2034 4250 
Q 1547 4250 1301 3770 
Q 1056 3291 1056 2328 
Q 1056 1369 1301 889 
Q 1547 409 2034 409 
Q 2525 409 2770 889 
Q 3016 1369 3016 2328 
Q 3016 3291 2770 3770 
Q 2525 4250 2034 4250 
z
M 2034 4750 
Q 2819 4750 3233 4129 
Q 3647 3509 3647 2328 
Q 3647 1150 3233 529 
Q 2819 -91 2034 -91 
Q 1250 -91 836 529 
Q 422 1150 422 2328 
Q 422 3509 836 4129 
Q 1250 4750 2034 4750 
z
" transform="scale(0.015625)"/>
       </defs>
       <use xlink:href="#DejaVuSans-30"/>
      </g>
     </g>
    </g>
    <g id="xtick_2">
     <g id="line2d_10">
      <g>
       <use xlink:href="#m0753978a29" x="94.353139" y="242.44" style="stroke: #000000; stroke-width: 0.8"/>
      </g>
     </g>
     <g id="text_2">
      <!-- 10 -->
      <g transform="translate(87.990639 257.038437) scale(0.1 -0.1)">
       <defs>
        <path id="DejaVuSans-31" d="M 794 531 
L 1825 531 
L 1825 4091 
L 703 3866 
L 703 4441 
L 1819 4666 
L 2450 4666 
L 2450 531 
L 3481 531 
L 3481 0 
L 794 0 
L 794 531 
z
" transform="scale(0.015625)"/>
       </defs>
       <use xlink:href="#DejaVuSans-31"/>
       <use xlink:href="#DejaVuSans-30" x="63.623047"/>
      </g>
     </g>
    </g>
    <g id="xtick_3">
     <g id="line2d_11">
      <g>
       <use xlink:href="#m0753978a29" x="135.861612" y="242.44" style="stroke: #000000; stroke-width: 0.8"/>
      </g>
     </g>
     <g id="text_3">
      <!-- 20 -->
      <g transform="translate(129.499112 257.038437) scale(0.1 -0.1)">
       <defs>
        <path id="DejaVuSans-32" d="M 1228 531 
L 3431 531 
L 3431 0 
L 469 0 
L 469 531 
Q 828 903 1448 1529 
Q 2069 2156 2228 2338 
Q 2531 2678 2651 2914 
Q 2772 3150 2772 3378 
Q 2772 3750 2511 3984 
Q 2250 4219 1831 4219 
Q 1534 4219 1204 4116 
Q 875 4013 500 3803 
L 500 4441 
Q 881 4594 1212 4672 
Q 1544 4750 1819 4750 
Q 2544 4750 2975 4387 
Q 3406 4025 3406 3419 
Q 3406 3131 3298 2873 
Q 3191 2616 2906 2266 
Q 2828 2175 2409 1742 
Q 1991 1309 1228 531 
z
" transform="scale(0.015625)"/>
       </defs>
       <use xlink:href="#DejaVuSans-32"/>
       <use xlink:href="#DejaVuSans-30" x="63.623047"/>
      </g>
     </g>
    </g>
    <g id="xtick_4">
     <g id="line2d_12">
      <g>
       <use xlink:href="#m0753978a29" x="177.370085" y="242.44" style="stroke: #000000; stroke-width: 0.8"/>
      </g>
     </g>
     <g id="text_4">
      <!-- 30 -->
      <g transform="translate(171.007585 257.038437) scale(0.1 -0.1)">
       <defs>
        <path id="DejaVuSans-33" d="M 2597 2516 
Q 3050 2419 3304 2112 
Q 3559 1806 3559 1356 
Q 3559 666 3084 287 
Q 2609 -91 1734 -91 
Q 1441 -91 1130 -33 
Q 819 25 488 141 
L 488 750 
Q 750 597 1062 519 
Q 1375 441 1716 441 
Q 2309 441 2620 675 
Q 2931 909 2931 1356 
Q 2931 1769 2642 2001 
Q 2353 2234 1838 2234 
L 1294 2234 
L 1294 2753 
L 1863 2753 
Q 2328 2753 2575 2939 
Q 2822 3125 2822 3475 
Q 2822 3834 2567 4026 
Q 2313 4219 1838 4219 
Q 1578 4219 1281 4162 
Q 984 4106 628 3988 
L 628 4550 
Q 988 4650 1302 4700 
Q 1616 4750 1894 4750 
Q 2613 4750 3031 4423 
Q 3450 4097 3450 3541 
Q 3450 3153 3228 2886 
Q 3006 2619 2597 2516 
z
" transform="scale(0.015625)"/>
       </defs>
       <use xlink:href="#DejaVuSans-33"/>
       <use xlink:href="#DejaVuSans-30" x="63.623047"/>
      </g>
     </g>
    </g>
    <g id="xtick_5">
     <g id="line2d_13">
      <g>
       <use xlink:href="#m0753978a29" x="218.878558" y="242.44" style="stroke: #000000; stroke-width: 0.8"/>
      </g>
     </g>
     <g id="text_5">
      <!-- 40 -->
      <g transform="translate(212.516058 257.038437) scale(0.1 -0.1)">
       <defs>
        <path id="DejaVuSans-34" d="M 2419 4116 
L 825 1625 
L 2419 1625 
L 2419 4116 
z
M 2253 4666 
L 3047 4666 
L 3047 1625 
L 3713 1625 
L 3713 1100 
L 3047 1100 
L 3047 0 
L 2419 0 
L 2419 1100 
L 313 1100 
L 313 1709 
L 2253 4666 
z
" transform="scale(0.015625)"/>
       </defs>
       <use xlink:href="#DejaVuSans-34"/>
       <use xlink:href="#DejaVuSans-30" x="63.623047"/>
      </g>
     </g>
    </g>
    <g id="xtick_6">
     <g id="line2d_14">
      <g>
       <use xlink:href="#m0753978a29" x="260.387032" y="242.44" style="stroke: #000000; stroke-width: 0.8"/>
      </g>
     </g>
     <g id="text_6">
      <!-- 50 -->
      <g transform="translate(254.024532 257.038437) scale(0.1 -0.1)">
       <defs>
        <path id="DejaVuSans-35" d="M 691 4666 
L 3169 4666 
L 3169 4134 
L 1269 4134 
L 1269 2991 
Q 1406 3038 1543 3061 
Q 1681 3084 1819 3084 
Q 2600 3084 3056 2656 
Q 3513 2228 3513 1497 
Q 3513 744 3044 326 
Q 2575 -91 1722 -91 
Q 1428 -91 1123 -41 
Q 819 9 494 109 
L 494 744 
Q 775 591 1075 516 
Q 1375 441 1709 441 
Q 2250 441 2565 725 
Q 2881 1009 2881 1497 
Q 2881 1984 2565 2268 
Q 2250 2553 1709 2553 
Q 1456 2553 1204 2497 
Q 953 2441 691 2322 
L 691 4666 
z
" transform="scale(0.015625)"/>
       </defs>
       <use xlink:href="#DejaVuSans-35"/>
       <use xlink:href="#DejaVuSans-30" x="63.623047"/>
      </g>
     </g>
    </g>
    <g id="xtick_7">
     <g id="line2d_15">
      <g>
       <use xlink:href="#m0753978a29" x="301.895505" y="242.44" style="stroke: #000000; stroke-width: 0.8"/>
      </g>
     </g>
     <g id="text_7">
      <!-- 60 -->
      <g transform="translate(295.533005 257.038437) scale(0.1 -0.1)">
       <defs>
        <path id="DejaVuSans-36" d="M 2113 2584 
Q 1688 2584 1439 2293 
Q 1191 2003 1191 1497 
Q 1191 994 1439 701 
Q 1688 409 2113 409 
Q 2538 409 2786 701 
Q 3034 994 3034 1497 
Q 3034 2003 2786 2293 
Q 2538 2584 2113 2584 
z
M 3366 4563 
L 3366 3988 
Q 3128 4100 2886 4159 
Q 2644 4219 2406 4219 
Q 1781 4219 1451 3797 
Q 1122 3375 1075 2522 
Q 1259 2794 1537 2939 
Q 1816 3084 2150 3084 
Q 2853 3084 3261 2657 
Q 3669 2231 3669 1497 
Q 3669 778 3244 343 
Q 2819 -91 2113 -91 
Q 1303 -91 875 529 
Q 447 1150 447 2328 
Q 447 3434 972 4092 
Q 1497 4750 2381 4750 
Q 2619 4750 2861 4703 
Q 3103 4656 3366 4563 
z
" transform="scale(0.015625)"/>
       </defs>
       <use xlink:href="#DejaVuSans-36"/>
       <use xlink:href="#DejaVuSans-30" x="63.623047"/>
      </g>
     </g>
    </g>
    <g id="text_8">
     <!-- Time / min -->
     <g transform="translate(148.773906 270.716562) scale(0.1 -0.1)">
      <defs>
       <path id="DejaVuSans-54" d="M -19 4666 
L 3928 4666 
L 3928 4134 
L 2272 4134 
L 2272 0 
L 1638 0 
L 1638 4134 
L -19 4134 
L -19 4666 
z
" transform="scale(0.015625)"/>
       <path id="DejaVuSans-69" d="M 603 3500 
L 1178 3500 
L 1178 0 
L 603 0 
L 603 3500 
z
M 603 4863 
L 1178 4863 
L 1178 4134 
L 603 4134 
L 603 4863 
z
" transform="scale(0.015625)"/>
       <path id="DejaVuSans-6d" d="M 3328 2828 
Q 3544 3216 3844 3400 
Q 4144 3584 4550 3584 
Q 5097 3584 5394 3201 
Q 5691 2819 5691 2113 
L 5691 0 
L 5113 0 
L 5113 2094 
Q 5113 2597 4934 2840 
Q 4756 3084 4391 3084 
Q 3944 3084 3684 2787 
Q 3425 2491 3425 1978 
L 3425 0 
L 2847 0 
L 2847 2094 
Q 2847 2600 2669 2842 
Q 2491 3084 2119 3084 
Q 1678 3084 1418 2786 
Q 1159 2488 1159 1978 
L 1159 0 
L 581 0 
L 581 3500 
L 1159 3500 
L 1159 2956 
Q 1356 3278 1631 3431 
Q 1906 3584 2284 3584 
Q 2666 3584 2933 3390 
Q 3200 3197 3328 2828 
z
" transform="scale(0.015625)"/>
       <path id="DejaVuSans-65" d="M 3597 1894 
L 3597 1613 
L 953 1613 
Q 991 1019 1311 708 
Q 1631 397 2203 397 
Q 2534 397 2845 478 
Q 3156 559 3463 722 
L 3463 178 
Q 3153 47 2828 -22 
Q 2503 -91 2169 -91 
Q 1331 -91 842 396 
Q 353 884 353 1716 
Q 353 2575 817 3079 
Q 1281 3584 2069 3584 
Q 2775 3584 3186 3129 
Q 3597 2675 3597 1894 
z
M 3022 2063 
Q 3016 2534 2758 2815 
Q 2500 3097 2075 3097 
Q 1594 3097 1305 2825 
Q 1016 2553 972 2059 
L 3022 2063 
z
" transform="scale(0.015625)"/>
       <path id="DejaVuSans-20" transform="scale(0.015625)"/>
       <path id="DejaVuSans-2f" d="M 1625 4666 
L 2156 4666 
L 531 -594 
L 0 -594 
L 1625 4666 
z
" transform="scale(0.015625)"/>
       <path id="DejaVuSans-6e" d="M 3513 2113 
L 3513 0 
L 2938 0 
L 2938 2094 
Q 2938 2591 2744 2837 
Q 2550 3084 2163 3084 
Q 1697 3084 1428 2787 
Q 1159 2491 1159 1978 
L 1159 0 
L 581 0 
L 581 3500 
L 1159 3500 
L 1159 2956 
Q 1366 3272 1645 3428 
Q 1925 3584 2291 3584 
Q 2894 3584 3203 3211 
Q 3513 2838 3513 2113 
z
" transform="scale(0.015625)"/>
      </defs>
      <use xlink:href="#DejaVuSans-54"/>
      <use xlink:href="#DejaVuSans-69" x="57.958984"/>
      <use xlink:href="#DejaVuSans-6d" x="85.742188"/>
      <use xlink:href="#DejaVuSans-65" x="183.154297"/>
      <use xlink:href="#DejaVuSans-20" x="244.677734"/>
      <use xlink:href="#DejaVuSans-2f" x="276.464844"/>
      <use xlink:href="#DejaVuSans-20" x="310.15625"/>
      <use xlink:href="#DejaVuSans-6d" x="341.943359"/>
      <use xlink:href="#DejaVuSans-69" x="439.355469"/>
      <use xlink:href="#DejaVuSans-6e" x="467.138672"/>
     </g>
    </g>
   </g>
   <g id="matplotlib.axis_2">
    <g id="ytick_1">
     <g id="line2d_16">
      <defs>
       <path id="m4a0defbcf7" d="M 0 0 
L -3.5 0 
" style="stroke: #000000; stroke-width: 0.8"/>
      </defs>
      <g>
       <use xlink:href="#m4a0defbcf7" x="40.603125" y="213.031868" style="stroke: #000000; stroke-width: 0.8"/>
      </g>
     </g>
     <g id="text_9">
      <!-- 0 -->
      <g transform="translate(27.240625 216.831087) scale(0.1 -0.1)">
       <use xlink:href="#DejaVuSans-30"/>
      </g>
     </g>
    </g>
    <g id="ytick_2">
     <g id="line2d_17">
      <g>
       <use xlink:href="#m4a0defbcf7" x="40.603125" y="165.113983" style="stroke: #000000; stroke-width: 0.8"/>
      </g>
     </g>
     <g id="text_10">
      <!-- 5 -->
      <g transform="translate(27.240625 168.913202) scale(0.1 -0.1)">
       <use xlink:href="#DejaVuSans-35"/>
      </g>
     </g>
    </g>
    <g id="ytick_3">
     <g id="line2d_18">
      <g>
       <use xlink:href="#m4a0defbcf7" x="40.603125" y="117.196098" style="stroke: #000000; stroke-width: 0.8"/>
      </g>
     </g>
     <g id="text_11">
      <!-- 10 -->
      <g transform="translate(20.878125 120.995316) scale(0.1 -0.1)">
       <use xlink:href="#DejaVuSans-31"/>
       <use xlink:href="#DejaVuSans-30" x="63.623047"/>
      </g>
     </g>
    </g>
    <g id="ytick_4">
     <g id="line2d_19">
      <g>
       <use xlink:href="#m4a0defbcf7" x="40.603125" y="69.278213" style="stroke: #000000; stroke-width: 0.8"/>
      </g>
     </g>
     <g id="text_12">
      <!-- 15 -->
      <g transform="translate(20.878125 73.077431) scale(0.1 -0.1)">
       <use xlink:href="#DejaVuSans-31"/>
       <use xlink:href="#DejaVuSans-35" x="63.623047"/>
      </g>
     </g>
    </g>
    <g id="ytick_5">
     <g id="line2d_20">
      <g>
       <use xlink:href="#m4a0defbcf7" x="40.603125" y="21.360327" style="stroke: #000000; stroke-width: 0.8"/>
      </g>
     </g>
     <g id="text_13">
      <!-- 20 -->
      <g transform="translate(20.878125 25.159546) scale(0.1 -0.1)">
       <use xlink:href="#DejaVuSans-32"/>
       <use xlink:href="#DejaVuSans-30" x="63.623047"/>
      </g>
     </g>
    </g>
    <g id="text_14">
     <!-- Release % -->
     <g transform="translate(14.798438 150.696562) rotate(-90) scale(0.1 -0.1)">
      <defs>
       <path id="DejaVuSans-52" d="M 2841 2188 
Q 3044 2119 3236 1894 
Q 3428 1669 3622 1275 
L 4263 0 
L 3584 0 
L 2988 1197 
Q 2756 1666 2539 1819 
Q 2322 1972 1947 1972 
L 1259 1972 
L 1259 0 
L 628 0 
L 628 4666 
L 2053 4666 
Q 2853 4666 3247 4331 
Q 3641 3997 3641 3322 
Q 3641 2881 3436 2590 
Q 3231 2300 2841 2188 
z
M 1259 4147 
L 1259 2491 
L 2053 2491 
Q 2509 2491 2742 2702 
Q 2975 2913 2975 3322 
Q 2975 3731 2742 3939 
Q 2509 4147 2053 4147 
L 1259 4147 
z
" transform="scale(0.015625)"/>
       <path id="DejaVuSans-6c" d="M 603 4863 
L 1178 4863 
L 1178 0 
L 603 0 
L 603 4863 
z
" transform="scale(0.015625)"/>
       <path id="DejaVuSans-61" d="M 2194 1759 
Q 1497 1759 1228 1600 
Q 959 1441 959 1056 
Q 959 750 1161 570 
Q 1363 391 1709 391 
Q 2188 391 2477 730 
Q 2766 1069 2766 1631 
L 2766 1759 
L 2194 1759 
z
M 3341 1997 
L 3341 0 
L 2766 0 
L 2766 531 
Q 2569 213 2275 61 
Q 1981 -91 1556 -91 
Q 1019 -91 701 211 
Q 384 513 384 1019 
Q 384 1609 779 1909 
Q 1175 2209 1959 2209 
L 2766 2209 
L 2766 2266 
Q 2766 2663 2505 2880 
Q 2244 3097 1772 3097 
Q 1472 3097 1187 3025 
Q 903 2953 641 2809 
L 641 3341 
Q 956 3463 1253 3523 
Q 1550 3584 1831 3584 
Q 2591 3584 2966 3190 
Q 3341 2797 3341 1997 
z
" transform="scale(0.015625)"/>
       <path id="DejaVuSans-73" d="M 2834 3397 
L 2834 2853 
Q 2591 2978 2328 3040 
Q 2066 3103 1784 3103 
Q 1356 3103 1142 2972 
Q 928 2841 928 2578 
Q 928 2378 1081 2264 
Q 1234 2150 1697 2047 
L 1894 2003 
Q 2506 1872 2764 1633 
Q 3022 1394 3022 966 
Q 3022 478 2636 193 
Q 2250 -91 1575 -91 
Q 1294 -91 989 -36 
Q 684 19 347 128 
L 347 722 
Q 666 556 975 473 
Q 1284 391 1588 391 
Q 1994 391 2212 530 
Q 2431 669 2431 922 
Q 2431 1156 2273 1281 
Q 2116 1406 1581 1522 
L 1381 1569 
Q 847 1681 609 1914 
Q 372 2147 372 2553 
Q 372 3047 722 3315 
Q 1072 3584 1716 3584 
Q 2034 3584 2315 3537 
Q 2597 3491 2834 3397 
z
" transform="scale(0.015625)"/>
       <path id="DejaVuSans-25" d="M 4653 2053 
Q 4381 2053 4226 1822 
Q 4072 1591 4072 1178 
Q 4072 772 4226 539 
Q 4381 306 4653 306 
Q 4919 306 5073 539 
Q 5228 772 5228 1178 
Q 5228 1588 5073 1820 
Q 4919 2053 4653 2053 
z
M 4653 2450 
Q 5147 2450 5437 2106 
Q 5728 1763 5728 1178 
Q 5728 594 5436 251 
Q 5144 -91 4653 -91 
Q 4153 -91 3862 251 
Q 3572 594 3572 1178 
Q 3572 1766 3864 2108 
Q 4156 2450 4653 2450 
z
M 1428 4353 
Q 1159 4353 1004 4120 
Q 850 3888 850 3481 
Q 850 3069 1003 2837 
Q 1156 2606 1428 2606 
Q 1700 2606 1854 2837 
Q 2009 3069 2009 3481 
Q 2009 3884 1853 4118 
Q 1697 4353 1428 4353 
z
M 4250 4750 
L 4750 4750 
L 1831 -91 
L 1331 -91 
L 4250 4750 
z
M 1428 4750 
Q 1922 4750 2215 4408 
Q 2509 4066 2509 3481 
Q 2509 2891 2217 2550 
Q 1925 2209 1428 2209 
Q 931 2209 642 2551 
Q 353 2894 353 3481 
Q 353 4063 643 4406 
Q 934 4750 1428 4750 
z
" transform="scale(0.015625)"/>
      </defs>
      <use xlink:href="#DejaVuSans-52"/>
      <use xlink:href="#DejaVuSans-65" x="64.982422"/>
      <use xlink:href="#DejaVuSans-6c" x="126.505859"/>
      <use xlink:href="#DejaVuSans-65" x="154.289062"/>
      <use xlink:href="#DejaVuSans-61" x="215.8125"/>
      <use xlink:href="#DejaVuSans-73" x="277.091797"/>
      <use xlink:href="#DejaVuSans-65" x="329.191406"/>
      <use xlink:href="#DejaVuSans-20" x="390.714844"/>
      <use xlink:href="#DejaVuSans-25" x="422.501953"/>
     </g>
    </g>
   </g>
   <g id="patch_3">
    <path d="M 40.603125 242.44 
L 40.603125 7.2 
" style="fill: none; stroke: #000000; stroke-width: 0.8; stroke-linejoin: miter; stroke-linecap: square"/>
   </g>
   <g id="patch_4">
    <path d="M 40.603125 242.44 
L 309.993125 242.44 
" style="fill: none; stroke: #000000; stroke-width: 0.8; stroke-linejoin: miter; stroke-linecap: square"/>
   </g>
   <g id="legend_1">
    <g id="line2d_21">
     <path d="M 318.993125 102.062187 
L 328.993125 102.062187 
L 338.993125 102.062187 
" style="fill: none; stroke: #56b4e9; stroke-width: 1.5; stroke-linecap: square"/>
    </g>
    <g id="text_15">
     <!-- -ve -->
     <g transform="translate(346.993125 105.562187) scale(0.1 -0.1)">
      <defs>
       <path id="DejaVuSans-2d" d="M 313 2009 
L 1997 2009 
L 1997 1497 
L 313 1497 
L 313 2009 
z
" transform="scale(0.015625)"/>
       <path id="DejaVuSans-76" d="M 191 3500 
L 800 3500 
L 1894 563 
L 2988 3500 
L 3597 3500 
L 2284 0 
L 1503 0 
L 191 3500 
z
" transform="scale(0.015625)"/>
      </defs>
      <use xlink:href="#DejaVuSans-2d"/>
      <use xlink:href="#DejaVuSans-76" x="33.458984"/>
      <use xlink:href="#DejaVuSans-65" x="92.638672"/>
     </g>
    </g>
    <g id="line2d_22">
     <path d="M 318.993125 116.740312 
L 328.993125 116.740312 
L 338.993125 116.740312 
" style="fill: none; stroke: #d55e00; stroke-width: 1.5; stroke-linecap: square"/>
    </g>
    <g id="text_16">
     <!-- No Brush -->
     <g transform="translate(346.993125 120.240312) scale(0.1 -0.1)">
      <defs>
       <path id="DejaVuSans-4e" d="M 628 4666 
L 1478 4666 
L 3547 763 
L 3547 4666 
L 4159 4666 
L 4159 0 
L 3309 0 
L 1241 3903 
L 1241 0 
L 628 0 
L 628 4666 
z
" transform="scale(0.015625)"/>
       <path id="DejaVuSans-6f" d="M 1959 3097 
Q 1497 3097 1228 2736 
Q 959 2375 959 1747 
Q 959 1119 1226 758 
Q 1494 397 1959 397 
Q 2419 397 2687 759 
Q 2956 1122 2956 1747 
Q 2956 2369 2687 2733 
Q 2419 3097 1959 3097 
z
M 1959 3584 
Q 2709 3584 3137 3096 
Q 3566 2609 3566 1747 
Q 3566 888 3137 398 
Q 2709 -91 1959 -91 
Q 1206 -91 779 398 
Q 353 888 353 1747 
Q 353 2609 779 3096 
Q 1206 3584 1959 3584 
z
" transform="scale(0.015625)"/>
       <path id="DejaVuSans-42" d="M 1259 2228 
L 1259 519 
L 2272 519 
Q 2781 519 3026 730 
Q 3272 941 3272 1375 
Q 3272 1813 3026 2020 
Q 2781 2228 2272 2228 
L 1259 2228 
z
M 1259 4147 
L 1259 2741 
L 2194 2741 
Q 2656 2741 2882 2914 
Q 3109 3088 3109 3444 
Q 3109 3797 2882 3972 
Q 2656 4147 2194 4147 
L 1259 4147 
z
M 628 4666 
L 2241 4666 
Q 2963 4666 3353 4366 
Q 3744 4066 3744 3513 
Q 3744 3084 3544 2831 
Q 3344 2578 2956 2516 
Q 3422 2416 3680 2098 
Q 3938 1781 3938 1306 
Q 3938 681 3513 340 
Q 3088 0 2303 0 
L 628 0 
L 628 4666 
z
" transform="scale(0.015625)"/>
       <path id="DejaVuSans-72" d="M 2631 2963 
Q 2534 3019 2420 3045 
Q 2306 3072 2169 3072 
Q 1681 3072 1420 2755 
Q 1159 2438 1159 1844 
L 1159 0 
L 581 0 
L 581 3500 
L 1159 3500 
L 1159 2956 
Q 1341 3275 1631 3429 
Q 1922 3584 2338 3584 
Q 2397 3584 2469 3576 
Q 2541 3569 2628 3553 
L 2631 2963 
z
" transform="scale(0.015625)"/>
       <path id="DejaVuSans-75" d="M 544 1381 
L 544 3500 
L 1119 3500 
L 1119 1403 
Q 1119 906 1312 657 
Q 1506 409 1894 409 
Q 2359 409 2629 706 
Q 2900 1003 2900 1516 
L 2900 3500 
L 3475 3500 
L 3475 0 
L 2900 0 
L 2900 538 
Q 2691 219 2414 64 
Q 2138 -91 1772 -91 
Q 1169 -91 856 284 
Q 544 659 544 1381 
z
M 1991 3584 
L 1991 3584 
z
" transform="scale(0.015625)"/>
       <path id="DejaVuSans-68" d="M 3513 2113 
L 3513 0 
L 2938 0 
L 2938 2094 
Q 2938 2591 2744 2837 
Q 2550 3084 2163 3084 
Q 1697 3084 1428 2787 
Q 1159 2491 1159 1978 
L 1159 0 
L 581 0 
L 581 4863 
L 1159 4863 
L 1159 2956 
Q 1366 3272 1645 3428 
Q 1925 3584 2291 3584 
Q 2894 3584 3203 3211 
Q 3513 2838 3513 2113 
z
" transform="scale(0.015625)"/>
      </defs>
      <use xlink:href="#DejaVuSans-4e"/>
      <use xlink:href="#DejaVuSans-6f" x="74.804688"/>
      <use xlink:href="#DejaVuSans-20" x="135.986328"/>
      <use xlink:href="#DejaVuSans-42" x="167.773438"/>
      <use xlink:href="#DejaVuSans-72" x="236.376953"/>
      <use xlink:href="#DejaVuSans-75" x="277.490234"/>
      <use xlink:href="#DejaVuSans-73" x="340.869141"/>
      <use xlink:href="#DejaVuSans-68" x="392.96875"/>
     </g>
    </g>
    <g id="line2d_23">
     <path d="M 318.993125 131.418437 
L 328.993125 131.418437 
L 338.993125 131.418437 
" style="fill: none; stroke: #009e73; stroke-width: 1.5; stroke-linecap: square"/>
    </g>
    <g id="text_17">
     <!-- Sparse Brush -->
     <g transform="translate(346.993125 134.918437) scale(0.1 -0.1)">
      <defs>
       <path id="DejaVuSans-53" d="M 3425 4513 
L 3425 3897 
Q 3066 4069 2747 4153 
Q 2428 4238 2131 4238 
Q 1616 4238 1336 4038 
Q 1056 3838 1056 3469 
Q 1056 3159 1242 3001 
Q 1428 2844 1947 2747 
L 2328 2669 
Q 3034 2534 3370 2195 
Q 3706 1856 3706 1288 
Q 3706 609 3251 259 
Q 2797 -91 1919 -91 
Q 1588 -91 1214 -16 
Q 841 59 441 206 
L 441 856 
Q 825 641 1194 531 
Q 1563 422 1919 422 
Q 2459 422 2753 634 
Q 3047 847 3047 1241 
Q 3047 1584 2836 1778 
Q 2625 1972 2144 2069 
L 1759 2144 
Q 1053 2284 737 2584 
Q 422 2884 422 3419 
Q 422 4038 858 4394 
Q 1294 4750 2059 4750 
Q 2388 4750 2728 4690 
Q 3069 4631 3425 4513 
z
" transform="scale(0.015625)"/>
       <path id="DejaVuSans-70" d="M 1159 525 
L 1159 -1331 
L 581 -1331 
L 581 3500 
L 1159 3500 
L 1159 2969 
Q 1341 3281 1617 3432 
Q 1894 3584 2278 3584 
Q 2916 3584 3314 3078 
Q 3713 2572 3713 1747 
Q 3713 922 3314 415 
Q 2916 -91 2278 -91 
Q 1894 -91 1617 61 
Q 1341 213 1159 525 
z
M 3116 1747 
Q 3116 2381 2855 2742 
Q 2594 3103 2138 3103 
Q 1681 3103 1420 2742 
Q 1159 2381 1159 1747 
Q 1159 1113 1420 752 
Q 1681 391 2138 391 
Q 2594 391 2855 752 
Q 3116 1113 3116 1747 
z
" transform="scale(0.015625)"/>
      </defs>
      <use xlink:href="#DejaVuSans-53"/>
      <use xlink:href="#DejaVuSans-70" x="63.476562"/>
      <use xlink:href="#DejaVuSans-61" x="126.953125"/>
      <use xlink:href="#DejaVuSans-72" x="188.232422"/>
      <use xlink:href="#DejaVuSans-73" x="229.345703"/>
      <use xlink:href="#DejaVuSans-65" x="281.445312"/>
      <use xlink:href="#DejaVuSans-20" x="342.96875"/>
      <use xlink:href="#DejaVuSans-42" x="374.755859"/>
      <use xlink:href="#DejaVuSans-72" x="443.359375"/>
      <use xlink:href="#DejaVuSans-75" x="484.472656"/>
      <use xlink:href="#DejaVuSans-73" x="547.851562"/>
      <use xlink:href="#DejaVuSans-68" x="599.951172"/>
     </g>
    </g>
    <g id="line2d_24">
     <path d="M 318.993125 146.096563 
L 328.993125 146.096563 
L 338.993125 146.096563 
" style="fill: none; stroke: #f0e442; stroke-width: 1.5; stroke-linecap: square"/>
    </g>
    <g id="text_18">
     <!-- Dense Brush -->
     <g transform="translate(346.993125 149.596563) scale(0.1 -0.1)">
      <defs>
       <path id="DejaVuSans-44" d="M 1259 4147 
L 1259 519 
L 2022 519 
Q 2988 519 3436 956 
Q 3884 1394 3884 2338 
Q 3884 3275 3436 3711 
Q 2988 4147 2022 4147 
L 1259 4147 
z
M 628 4666 
L 1925 4666 
Q 3281 4666 3915 4102 
Q 4550 3538 4550 2338 
Q 4550 1131 3912 565 
Q 3275 0 1925 0 
L 628 0 
L 628 4666 
z
" transform="scale(0.015625)"/>
      </defs>
      <use xlink:href="#DejaVuSans-44"/>
      <use xlink:href="#DejaVuSans-65" x="77.001953"/>
      <use xlink:href="#DejaVuSans-6e" x="138.525391"/>
      <use xlink:href="#DejaVuSans-73" x="201.904297"/>
      <use xlink:href="#DejaVuSans-65" x="254.003906"/>
      <use xlink:href="#DejaVuSans-20" x="315.527344"/>
      <use xlink:href="#DejaVuSans-42" x="347.314453"/>
      <use xlink:href="#DejaVuSans-72" x="415.917969"/>
      <use xlink:href="#DejaVuSans-75" x="457.03125"/>
      <use xlink:href="#DejaVuSans-73" x="520.410156"/>
      <use xlink:href="#DejaVuSans-68" x="572.509766"/>
     </g>
    </g>
   </g>
  </g>
 </g>
 <defs>
  <clipPath id="pbbb2e9c125">
   <rect x="40.603125" y="7.2" width="269.39" height="235.24"/>
  </clipPath>
 </defs>
</svg>
