<?xml version="1.0" encoding="utf-8" standalone="no"?>
<!DOCTYPE svg PUBLIC "-//W3C//DTD SVG 1.1//EN"
  "http://www.w3.org/Graphics/SVG/1.1/DTD/svg11.dtd">
<svg xmlns:xlink="http://www.w3.org/1999/xlink" width="335.266875pt" height="206.889688pt" viewBox="0 0 335.266875 206.889688" xmlns="http://www.w3.org/2000/svg" version="1.1">
 <metadata>
  <rdf:RDF xmlns:dc="http://purl.org/dc/elements/1.1/" xmlns:cc="http://creativecommons.org/ns#" xmlns:rdf="http://www.w3.org/1999/02/22-rdf-syntax-ns#">
   <cc:Work>
    <dc:type rdf:resource="http://purl.org/dc/dcmitype/StillImage"/>
    <dc:date>2026-01-05T16:47:16.019732</dc:date>
    <dc:format>image/svg+xml</dc:format>
    <dc:creator>
     <cc:Agent>
      <dc:title>Matplotlib v3.10.7, https://matplotlib.org/</dc:title>
     </cc:Agent>
    </dc:creator>
   </cc:Work>
  </rdf:RDF>
 </metadata>
 <defs>
  <style type="text/css">*{stroke-linejoin: round; stroke-linecap: butt}</style>
 </defs>
 <g id="figure_1">
  <g id="patch_1">
   <path d="M 0 206.889688 
L 335.266875 206.889688 
L 335.266875 0 
L 0 0 
z
" style="fill: #ffffff"/>
  </g>
  <g id="axes_1">
   <g id="patch_2">
    <path d="M 57.505937 167.397813 
L 277.760938 167.397813 
L 277.760938 23.837813 
L 57.505937 23.837813 
z
" style="fill: #ffffff"/>
   </g>
   <g id="FillBetweenPolyCollection_1">
    <defs>
     <path id="mc2ff632f3f" d="M 57.505937 -63.386137 
L 57.505937 -60.737624 
L 57.681768 -60.286051 
L 57.860266 -59.941452 
L 58.041471 -59.523793 
L 58.225425 -59.142881 
L 58.412169 -58.937194 
L 58.601746 -58.962037 
L 58.794197 -59.149981 
L 58.989568 -59.325235 
L 59.187903 -59.338963 
L 59.389245 -59.292414 
L 59.593642 -59.333487 
L 59.801139 -59.408814 
L 60.011783 -59.503195 
L 60.225622 -59.565763 
L 60.442704 -59.549707 
L 60.663079 -59.426495 
L 60.886797 -59.143684 
L 61.113908 -58.642368 
L 61.344464 -58.115442 
L 61.578517 -57.751333 
L 61.81612 -57.547893 
L 62.057327 -57.415798 
L 62.302193 -57.255147 
L 62.550772 -57.0805 
L 62.803122 -56.978721 
L 63.0593 -56.964888 
L 63.319363 -56.992891 
L 63.583371 -57.035105 
L 63.851383 -57.079611 
L 64.12346 -57.088362 
L 64.399664 -56.996568 
L 64.680058 -56.844625 
L 64.964705 -56.690927 
L 65.253669 -56.536085 
L 65.547016 -56.423932 
L 65.844812 -56.372605 
L 66.147125 -56.3353 
L 66.454024 -56.241619 
L 66.765578 -56.155059 
L 67.081857 -56.124761 
L 67.402934 -56.096073 
L 67.728881 -56.021754 
L 68.059771 -55.945006 
L 68.395681 -55.91403 
L 68.736685 -55.886654 
L 69.082862 -55.858442 
L 69.434289 -55.839941 
L 69.791047 -55.848555 
L 70.153216 -55.862462 
L 70.520879 -55.871655 
L 70.894118 -55.829415 
L 71.273018 -55.731614 
L 71.657665 -55.615583 
L 72.048147 -55.529933 
L 72.444551 -55.494162 
L 72.846968 -55.497911 
L 73.255489 -55.550405 
L 73.670206 -55.644148 
L 74.091214 -55.764375 
L 74.518607 -55.871272 
L 74.952483 -55.995465 
L 75.392939 -56.171245 
L 75.840077 -56.450533 
L 76.293997 -56.793907 
L 76.754801 -57.226336 
L 77.222595 -57.690607 
L 77.697485 -58.175162 
L 78.179577 -58.653508 
L 78.668982 -59.13326 
L 79.16581 -59.621489 
L 79.670174 -60.092513 
L 80.182187 -60.528433 
L 80.701967 -60.905495 
L 81.229631 -61.275106 
L 81.765299 -61.667733 
L 82.309091 -62.08449 
L 82.861132 -62.534286 
L 83.421545 -62.997545 
L 83.990459 -63.478871 
L 84.568002 -64.004196 
L 85.154305 -64.642044 
L 85.749502 -65.449124 
L 86.353725 -66.354051 
L 86.967114 -67.338306 
L 87.589807 -68.434346 
L 88.221944 -69.616902 
L 88.863669 -70.88293 
L 89.515129 -72.191589 
L 90.176469 -73.641032 
L 90.84784 -75.15154 
L 91.529395 -76.719257 
L 92.221287 -78.364039 
L 92.923674 -80.066662 
L 93.636714 -81.825376 
L 94.36057 -83.645488 
L 95.095405 -85.565067 
L 95.841386 -87.555275 
L 96.598682 -89.631064 
L 97.367464 -91.742002 
L 98.147907 -93.90989 
L 98.940187 -96.091212 
L 99.744485 -98.242688 
L 100.560982 -100.34779 
L 101.389864 -102.394776 
L 102.231318 -104.383817 
L 103.085535 -106.31046 
L 103.952709 -108.13356 
L 104.833036 -109.839091 
L 105.726715 -111.441337 
L 106.63395 -112.950963 
L 107.554945 -114.326437 
L 108.48991 -115.509646 
L 109.439056 -116.610596 
L 110.402599 -117.595671 
L 111.380756 -118.495269 
L 112.37375 -119.359458 
L 113.381806 -120.214479 
L 114.405151 -121.01334 
L 115.444019 -121.716627 
L 116.498643 -122.325138 
L 117.569265 -122.873858 
L 118.656125 -123.369361 
L 119.75947 -123.79687 
L 120.879551 -124.122051 
L 122.016621 -124.378744 
L 123.170938 -124.585579 
L 124.342763 -124.702157 
L 125.532362 -124.74232 
L 126.740005 -124.682503 
L 127.965965 -124.516511 
L 129.21052 -124.246493 
L 130.473953 -123.951708 
L 131.756549 -123.668355 
L 133.058599 -123.337895 
L 134.380399 -123.035856 
L 135.722247 -122.749348 
L 137.084448 -122.466775 
L 138.467311 -122.144444 
L 139.871149 -121.7936 
L 141.29628 -121.409245 
L 142.743027 -120.988631 
L 144.211718 -120.520311 
L 145.702685 -120.032094 
L 147.216268 -119.522976 
L 148.752808 -118.995928 
L 150.312655 -118.442222 
L 151.89616 -117.868849 
L 153.503684 -117.274315 
L 155.135591 -116.659517 
L 156.79225 -116.000537 
L 158.474037 -115.308513 
L 160.181333 -114.581092 
L 161.914525 -113.822468 
L 163.674006 -113.046646 
L 165.460174 -112.261842 
L 167.273435 -111.471339 
L 169.114198 -110.667777 
L 170.982882 -109.85246 
L 172.87991 -109.025995 
L 174.805712 -108.188689 
L 176.760723 -107.340625 
L 178.745389 -106.486317 
L 180.760157 -105.634948 
L 182.805484 -104.789829 
L 184.881835 -103.950886 
L 186.98968 -103.122373 
L 189.129496 -102.307423 
L 191.301768 -101.500258 
L 193.506989 -100.703879 
L 195.745658 -99.915458 
L 198.018283 -99.129864 
L 200.325379 -98.350258 
L 202.667468 -97.583605 
L 205.045082 -96.824151 
L 207.458759 -96.075608 
L 209.909046 -95.334767 
L 212.396498 -94.619344 
L 214.92168 -93.92154 
L 217.485164 -93.257799 
L 220.087529 -92.617257 
L 222.729367 -92.004692 
L 225.411276 -91.432453 
L 228.133864 -90.881316 
L 230.897747 -90.332819 
L 233.703552 -89.801566 
L 236.551915 -89.285015 
L 239.443482 -88.770563 
L 242.378907 -88.254877 
L 245.358856 -87.735574 
L 248.384005 -87.229567 
L 251.455039 -86.731112 
L 254.572653 -86.243168 
L 257.737555 -85.764687 
L 260.950461 -85.292814 
L 264.212101 -84.821817 
L 267.523212 -84.357251 
L 270.884545 -83.920025 
L 274.296863 -83.515184 
L 277.760938 -83.135004 
L 277.760938 -89.943096 
L 277.760938 -89.943096 
L 274.296863 -90.377004 
L 270.884545 -90.834184 
L 267.523212 -91.315297 
L 264.212101 -91.817338 
L 260.950461 -92.331857 
L 257.737555 -92.855322 
L 254.572653 -93.392488 
L 251.455039 -93.941847 
L 248.384005 -94.505786 
L 245.358856 -95.081628 
L 242.378907 -95.670557 
L 239.443482 -96.259501 
L 236.551915 -96.846903 
L 233.703552 -97.437721 
L 230.897747 -98.041036 
L 228.133864 -98.650879 
L 225.411276 -99.265487 
L 222.729367 -99.888429 
L 220.087529 -100.532787 
L 217.485164 -101.187011 
L 214.92168 -101.846281 
L 212.396498 -102.519806 
L 209.909046 -103.198631 
L 207.458759 -103.887276 
L 205.045082 -104.580163 
L 202.667468 -105.283454 
L 200.325379 -105.995041 
L 198.018283 -106.724451 
L 195.745658 -107.465497 
L 193.506989 -108.219381 
L 191.301768 -108.988261 
L 189.129496 -109.770488 
L 186.98968 -110.559039 
L 184.881835 -111.360566 
L 182.805484 -112.165719 
L 180.760157 -112.969281 
L 178.745389 -113.772597 
L 176.760723 -114.571779 
L 174.805712 -115.365081 
L 172.87991 -116.151806 
L 170.982882 -116.938617 
L 169.114198 -117.726494 
L 167.273435 -118.509718 
L 165.460174 -119.281999 
L 163.674006 -120.050922 
L 161.914525 -120.80428 
L 160.181333 -121.530731 
L 158.474037 -122.21739 
L 156.79225 -122.866201 
L 155.135591 -123.478262 
L 153.503684 -124.031112 
L 151.89616 -124.5714 
L 150.312655 -125.093653 
L 148.752808 -125.592007 
L 147.216268 -126.062752 
L 145.702685 -126.517744 
L 144.211718 -126.954935 
L 142.743027 -127.36918 
L 141.29628 -127.74353 
L 139.871149 -128.083486 
L 138.467311 -128.405103 
L 137.084448 -128.695357 
L 135.722247 -128.945799 
L 134.380399 -129.200992 
L 133.058599 -129.492487 
L 131.756549 -129.799165 
L 130.473953 -130.051972 
L 129.21052 -130.281362 
L 127.965965 -130.504742 
L 126.740005 -130.608673 
L 125.532362 -130.611743 
L 124.342763 -130.514881 
L 123.170938 -130.349062 
L 122.016621 -130.090155 
L 120.879551 -129.787393 
L 119.75947 -129.426404 
L 118.656125 -128.976102 
L 117.569265 -128.465544 
L 116.498643 -127.930226 
L 115.444019 -127.402775 
L 114.405151 -126.771522 
L 113.381806 -126.010533 
L 112.37375 -125.222883 
L 111.380756 -124.416153 
L 110.402599 -123.542405 
L 109.439056 -122.581065 
L 108.48991 -121.512528 
L 107.554945 -120.354878 
L 106.63395 -118.960036 
L 105.726715 -117.403347 
L 104.833036 -115.772444 
L 103.952709 -114.070074 
L 103.085535 -112.246461 
L 102.231318 -110.300745 
L 101.389864 -108.269681 
L 100.560982 -106.173235 
L 99.744485 -104.022032 
L 98.940187 -101.818119 
L 98.147907 -99.56798 
L 97.367464 -97.28772 
L 96.598682 -95.031171 
L 95.841386 -92.820802 
L 95.095405 -90.664491 
L 94.36057 -88.589199 
L 93.636714 -86.619176 
L 92.923674 -84.733355 
L 92.221287 -82.925115 
L 91.529395 -81.151846 
L 90.84784 -79.458564 
L 90.176469 -77.850504 
L 89.515129 -76.268584 
L 88.863669 -74.806949 
L 88.221944 -73.402325 
L 87.589807 -72.083895 
L 86.967114 -70.864944 
L 86.353725 -69.754763 
L 85.749502 -68.702824 
L 85.154305 -67.773796 
L 84.568002 -67.00678 
L 83.990459 -66.366768 
L 83.421545 -65.796778 
L 82.861132 -65.256735 
L 82.309091 -64.737508 
L 81.765299 -64.266552 
L 81.229631 -63.823843 
L 80.701967 -63.428206 
L 80.182187 -63.048641 
L 79.670174 -62.61744 
L 79.16581 -62.160244 
L 78.668982 -61.675343 
L 78.179577 -61.187318 
L 77.697485 -60.704078 
L 77.222595 -60.224704 
L 76.754801 -59.744677 
L 76.293997 -59.293513 
L 75.840077 -58.915487 
L 75.392939 -58.620498 
L 74.952483 -58.423309 
L 74.518607 -58.289914 
L 74.091214 -58.184329 
L 73.670206 -58.059037 
L 73.255489 -57.95161 
L 72.846968 -57.901087 
L 72.444551 -57.898405 
L 72.048147 -57.947313 
L 71.657665 -58.037387 
L 71.273018 -58.174746 
L 70.894118 -58.328292 
L 70.520879 -58.452778 
L 70.153216 -58.518646 
L 69.791047 -58.546333 
L 69.434289 -58.579649 
L 69.082862 -58.608108 
L 68.736685 -58.638024 
L 68.395681 -58.660018 
L 68.059771 -58.699413 
L 67.728881 -58.81083 
L 67.402934 -58.962557 
L 67.081857 -59.080756 
L 66.765578 -59.169074 
L 66.454024 -59.270577 
L 66.147125 -59.381921 
L 65.844812 -59.447779 
L 65.547016 -59.496051 
L 65.253669 -59.56718 
L 64.964705 -59.657817 
L 64.680058 -59.728311 
L 64.399664 -59.75794 
L 64.12346 -59.741772 
L 63.851383 -59.637417 
L 63.583371 -59.50884 
L 63.319363 -59.413827 
L 63.0593 -59.364325 
L 62.803122 -59.371162 
L 62.550772 -59.479991 
L 62.302193 -59.679936 
L 62.057327 -59.887995 
L 61.81612 -60.07537 
L 61.578517 -60.313885 
L 61.344464 -60.67711 
L 61.113908 -61.192136 
L 60.886797 -61.750622 
L 60.663079 -62.128618 
L 60.442704 -62.305787 
L 60.225622 -62.312137 
L 60.011783 -62.243141 
L 59.801139 -62.19572 
L 59.593642 -62.170103 
L 59.389245 -62.123852 
L 59.187903 -62.10408 
L 58.989568 -62.018984 
L 58.794197 -61.788782 
L 58.601746 -61.565139 
L 58.412169 -61.529896 
L 58.225425 -61.752206 
L 58.041471 -62.148114 
L 57.860266 -62.56691 
L 57.681768 -62.926993 
L 57.505937 -63.386137 
z
"/>
    </defs>
    <g clip-path="url(#pf2c220707b)">
     <use xlink:href="#mc2ff632f3f" x="0" y="206.889688" style="fill: #0173b2; fill-opacity: 0.3"/>
    </g>
   </g>
   <g id="FillBetweenPolyCollection_2">
    <defs>
     <path id="m5c5927eda1" d="M 57.505937 -58.694159 
L 57.505937 -55.744088 
L 57.681768 -55.667449 
L 57.860266 -55.470511 
L 58.041471 -55.268002 
L 58.225425 -55.143624 
L 58.412169 -55.198658 
L 58.601746 -55.220357 
L 58.794197 -55.143952 
L 58.989568 -55.037796 
L 59.187903 -55.009273 
L 59.389245 -55.06277 
L 59.593642 -55.130081 
L 59.801139 -55.180997 
L 60.011783 -55.313229 
L 60.225622 -55.438206 
L 60.442704 -55.455886 
L 60.663079 -55.291294 
L 60.886797 -54.958417 
L 61.113908 -54.520328 
L 61.344464 -54.008144 
L 61.578517 -53.456845 
L 61.81612 -53.066732 
L 62.057327 -52.857722 
L 62.302193 -52.82529 
L 62.550772 -52.910297 
L 62.803122 -52.937534 
L 63.0593 -52.869665 
L 63.319363 -52.756601 
L 63.583371 -52.622923 
L 63.851383 -52.517336 
L 64.12346 -52.443169 
L 64.399664 -52.402692 
L 64.680058 -52.372491 
L 64.964705 -52.284173 
L 65.253669 -52.210001 
L 65.547016 -52.267366 
L 65.844812 -52.435149 
L 66.147125 -52.607536 
L 66.454024 -52.700491 
L 66.765578 -52.771834 
L 67.081857 -52.804136 
L 67.402934 -52.793647 
L 67.728881 -52.70278 
L 68.059771 -52.571241 
L 68.395681 -52.353408 
L 68.736685 -52.056749 
L 69.082862 -51.760676 
L 69.434289 -51.530575 
L 69.791047 -51.426634 
L 70.153216 -51.398908 
L 70.520879 -51.489392 
L 70.894118 -51.616714 
L 71.273018 -51.88043 
L 71.657665 -52.192142 
L 72.048147 -52.544333 
L 72.444551 -52.877423 
L 72.846968 -53.175458 
L 73.255489 -53.45036 
L 73.670206 -53.680197 
L 74.091214 -53.859264 
L 74.518607 -53.981579 
L 74.952483 -54.042213 
L 75.392939 -54.041553 
L 75.840077 -54.018965 
L 76.293997 -54.017547 
L 76.754801 -54.010485 
L 77.222595 -54.020921 
L 77.697485 -54.047384 
L 78.179577 -54.087975 
L 78.668982 -54.117336 
L 79.16581 -54.172716 
L 79.670174 -54.285173 
L 80.182187 -54.447837 
L 80.701967 -54.647046 
L 81.229631 -54.875335 
L 81.765299 -55.138956 
L 82.309091 -55.412572 
L 82.861132 -55.737949 
L 83.421545 -56.165012 
L 83.990459 -56.629264 
L 84.568002 -57.155546 
L 85.154305 -57.730087 
L 85.749502 -58.342964 
L 86.353725 -58.997952 
L 86.967114 -59.741364 
L 87.589807 -60.542043 
L 88.221944 -61.369493 
L 88.863669 -62.215572 
L 89.515129 -63.093876 
L 90.176469 -63.989603 
L 90.84784 -64.878087 
L 91.529395 -65.74076 
L 92.221287 -66.563624 
L 92.923674 -67.360847 
L 93.636714 -68.138699 
L 94.36057 -68.907017 
L 95.095405 -69.683964 
L 95.841386 -70.488397 
L 96.598682 -71.349924 
L 97.367464 -72.304962 
L 98.147907 -73.383996 
L 98.940187 -74.568586 
L 99.744485 -75.872259 
L 100.560982 -77.260971 
L 101.389864 -78.791256 
L 102.231318 -80.456076 
L 103.085535 -82.219054 
L 103.952709 -84.096376 
L 104.833036 -86.051963 
L 105.726715 -88.107579 
L 106.63395 -90.249815 
L 107.554945 -92.432634 
L 108.48991 -94.676794 
L 109.439056 -96.962624 
L 110.402599 -99.311546 
L 111.380756 -101.707404 
L 112.37375 -104.168495 
L 113.381806 -106.672316 
L 114.405151 -109.226009 
L 115.444019 -111.819808 
L 116.498643 -114.43466 
L 117.569265 -117.039246 
L 118.656125 -119.635715 
L 119.75947 -122.218836 
L 120.879551 -124.775938 
L 122.016621 -127.291247 
L 123.170938 -129.715824 
L 124.342763 -131.972075 
L 125.532362 -134.084613 
L 126.740005 -136.052357 
L 127.965965 -137.945671 
L 129.21052 -139.772341 
L 130.473953 -141.46019 
L 131.756549 -143.100473 
L 133.058599 -144.661881 
L 134.380399 -146.136601 
L 135.722247 -147.563793 
L 137.084448 -148.94425 
L 138.467311 -150.241054 
L 139.871149 -151.450701 
L 141.29628 -152.608231 
L 142.743027 -153.741669 
L 144.211718 -154.822112 
L 145.702685 -155.884488 
L 147.216268 -156.937076 
L 148.752808 -157.932906 
L 150.312655 -158.895097 
L 151.89616 -159.786194 
L 153.503684 -160.59062 
L 155.135591 -161.279274 
L 156.79225 -161.874993 
L 158.474037 -162.349921 
L 160.181333 -162.752677 
L 161.914525 -163.080726 
L 163.674006 -163.345621 
L 165.460174 -163.557668 
L 167.273435 -163.761007 
L 169.114198 -163.901145 
L 170.982882 -163.959132 
L 172.87991 -163.961994 
L 174.805712 -163.911297 
L 176.760723 -163.810159 
L 178.745389 -163.687955 
L 180.760157 -163.518458 
L 182.805484 -163.347976 
L 184.881835 -163.134567 
L 186.98968 -162.861391 
L 189.129496 -162.554142 
L 191.301768 -162.201276 
L 193.506989 -161.827297 
L 195.745658 -161.400654 
L 198.018283 -160.909609 
L 200.325379 -160.400402 
L 202.667468 -159.861338 
L 205.045082 -159.276754 
L 207.458759 -158.65048 
L 209.909046 -158.012481 
L 212.396498 -157.353916 
L 214.92168 -156.697202 
L 217.485164 -156.04064 
L 220.087529 -155.383896 
L 222.729367 -154.72999 
L 225.411276 -154.060932 
L 228.133864 -153.377276 
L 230.897747 -152.664263 
L 233.703552 -151.910968 
L 236.551915 -151.13104 
L 239.443482 -150.330559 
L 242.378907 -149.523382 
L 245.358856 -148.72174 
L 248.384005 -147.941659 
L 251.455039 -147.18169 
L 254.572653 -146.443746 
L 257.737555 -145.725818 
L 260.950461 -145.009081 
L 264.212101 -144.29489 
L 267.523212 -143.570394 
L 270.884545 -142.842735 
L 274.296863 -142.112055 
L 277.760938 -141.380884 
L 277.760938 -153.781431 
L 277.760938 -153.781431 
L 274.296863 -154.565817 
L 270.884545 -155.347803 
L 267.523212 -156.12984 
L 264.212101 -156.911762 
L 260.950461 -157.696497 
L 257.737555 -158.490623 
L 254.572653 -159.290473 
L 251.455039 -160.112296 
L 248.384005 -160.952649 
L 245.358856 -161.807227 
L 242.378907 -162.665172 
L 239.443482 -163.514097 
L 236.551915 -164.34335 
L 233.703552 -165.142741 
L 230.897747 -165.909483 
L 228.133864 -166.628357 
L 225.411276 -167.305103 
L 222.729367 -167.956705 
L 220.087529 -168.591398 
L 217.485164 -169.2231 
L 214.92168 -169.863314 
L 212.396498 -170.511963 
L 209.909046 -171.163656 
L 207.458759 -171.783684 
L 205.045082 -172.392048 
L 202.667468 -172.948393 
L 200.325379 -173.45813 
L 198.018283 -173.937359 
L 195.745658 -174.410843 
L 193.506989 -174.837973 
L 191.301768 -175.204553 
L 189.129496 -175.534916 
L 186.98968 -175.813052 
L 184.881835 -176.045208 
L 182.805484 -176.210894 
L 180.760157 -176.327762 
L 178.745389 -176.432938 
L 176.760723 -176.479592 
L 174.805712 -176.52642 
L 172.87991 -176.49954 
L 170.982882 -176.426162 
L 169.114198 -176.304908 
L 167.273435 -176.107392 
L 165.460174 -175.832758 
L 163.674006 -175.53076 
L 161.914525 -175.22771 
L 160.181333 -174.873934 
L 158.474037 -174.472056 
L 156.79225 -173.980888 
L 155.135591 -173.392692 
L 153.503684 -172.721105 
L 151.89616 -171.908113 
L 150.312655 -170.981258 
L 148.752808 -169.925588 
L 147.216268 -168.780001 
L 145.702685 -167.551348 
L 144.211718 -166.297685 
L 142.743027 -165.05176 
L 141.29628 -163.746493 
L 139.871149 -162.419021 
L 138.467311 -161.083611 
L 137.084448 -159.684264 
L 135.722247 -158.142139 
L 134.380399 -156.601537 
L 133.058599 -154.990856 
L 131.756549 -153.270885 
L 130.473953 -151.421372 
L 129.21052 -149.557669 
L 127.965965 -147.54234 
L 126.740005 -145.422099 
L 125.532362 -143.2146 
L 124.342763 -140.839009 
L 123.170938 -138.321422 
L 122.016621 -135.644095 
L 120.879551 -132.868212 
L 119.75947 -130.077314 
L 118.656125 -127.27854 
L 117.569265 -124.499446 
L 116.498643 -121.735651 
L 115.444019 -118.987043 
L 114.405151 -116.252947 
L 113.381806 -113.55338 
L 112.37375 -110.917891 
L 111.380756 -108.328416 
L 110.402599 -105.793971 
L 109.439056 -103.288521 
L 108.48991 -100.830504 
L 107.554945 -98.418037 
L 106.63395 -96.05932 
L 105.726715 -93.732618 
L 104.833036 -91.469972 
L 103.952709 -89.31311 
L 103.085535 -87.238098 
L 102.231318 -85.270713 
L 101.389864 -83.425739 
L 100.560982 -81.707549 
L 99.744485 -80.153426 
L 98.940187 -78.691258 
L 98.147907 -77.348831 
L 97.367464 -76.117122 
L 96.598682 -75.021995 
L 95.841386 -74.032648 
L 95.095405 -73.110296 
L 94.36057 -72.231805 
L 93.636714 -71.379238 
L 92.923674 -70.53184 
L 92.221287 -69.666579 
L 91.529395 -68.778616 
L 90.84784 -67.865884 
L 90.176469 -66.931382 
L 89.515129 -65.990789 
L 88.863669 -65.079463 
L 88.221944 -64.211175 
L 87.589807 -63.374411 
L 86.967114 -62.569502 
L 86.353725 -61.817753 
L 85.749502 -61.149677 
L 85.154305 -60.524153 
L 84.568002 -59.930934 
L 83.990459 -59.385622 
L 83.421545 -58.901797 
L 82.861132 -58.464108 
L 82.309091 -58.120906 
L 81.765299 -57.83987 
L 81.229631 -57.571427 
L 80.701967 -57.335432 
L 80.182187 -57.146409 
L 79.670174 -56.986534 
L 79.16581 -56.905022 
L 78.668982 -56.895271 
L 78.179577 -56.898386 
L 77.697485 -56.889914 
L 77.222595 -56.849105 
L 76.754801 -56.794519 
L 76.293997 -56.729523 
L 75.840077 -56.645478 
L 75.392939 -56.608804 
L 74.952483 -56.546864 
L 74.518607 -56.457863 
L 74.091214 -56.302081 
L 73.670206 -56.11478 
L 73.255489 -55.890021 
L 72.846968 -55.644221 
L 72.444551 -55.383913 
L 72.048147 -55.103508 
L 71.657665 -54.796753 
L 71.273018 -54.524697 
L 70.894118 -54.297404 
L 70.520879 -54.191911 
L 70.153216 -54.134141 
L 69.791047 -54.163794 
L 69.434289 -54.280583 
L 69.082862 -54.505422 
L 68.736685 -54.797901 
L 68.395681 -55.066351 
L 68.059771 -55.248715 
L 67.728881 -55.350278 
L 67.402934 -55.433122 
L 67.081857 -55.434688 
L 66.765578 -55.412985 
L 66.454024 -55.348266 
L 66.147125 -55.300831 
L 65.844812 -55.196364 
L 65.547016 -55.077212 
L 65.253669 -55.024352 
L 64.964705 -55.073166 
L 64.680058 -55.111557 
L 64.399664 -55.081494 
L 64.12346 -55.036093 
L 63.851383 -55.041803 
L 63.583371 -55.098204 
L 63.319363 -55.21354 
L 63.0593 -55.311882 
L 62.803122 -55.390165 
L 62.550772 -55.366513 
L 62.302193 -55.295963 
L 62.057327 -55.321578 
L 61.81612 -55.488879 
L 61.578517 -55.840079 
L 61.344464 -56.34106 
L 61.113908 -56.8315 
L 60.886797 -57.215164 
L 60.663079 -57.504317 
L 60.442704 -57.65637 
L 60.225622 -57.655432 
L 60.011783 -57.574557 
L 59.801139 -57.498614 
L 59.593642 -57.46861 
L 59.389245 -57.423381 
L 59.187903 -57.394404 
L 58.989568 -57.420356 
L 58.794197 -57.531311 
L 58.601746 -57.644176 
L 58.412169 -57.71403 
L 58.225425 -57.779285 
L 58.041471 -58.024663 
L 57.860266 -58.352064 
L 57.681768 -58.597341 
L 57.505937 -58.694159 
z
"/>
    </defs>
    <g clip-path="url(#pf2c220707b)">
     <use xlink:href="#m5c5927eda1" x="0" y="206.889688" style="fill: #de8f05; fill-opacity: 0.3"/>
    </g>
   </g>
   <g id="FillBetweenPolyCollection_3">
    <defs>
     <path id="m327c05f965" d="M 57.505937 -70.632641 
L 57.505937 -68.110383 
L 57.681768 -68.221527 
L 57.860266 -68.359722 
L 58.041471 -68.455732 
L 58.225425 -68.41365 
L 58.412169 -68.226872 
L 58.601746 -67.750269 
L 58.794197 -67.02635 
L 58.989568 -66.285161 
L 59.187903 -65.610517 
L 59.389245 -65.029325 
L 59.593642 -64.588848 
L 59.801139 -64.277916 
L 60.011783 -64.206019 
L 60.225622 -64.169167 
L 60.442704 -63.910099 
L 60.663079 -63.41893 
L 60.886797 -62.913565 
L 61.113908 -62.587972 
L 61.344464 -62.487874 
L 61.578517 -62.48837 
L 61.81612 -62.412584 
L 62.057327 -62.269739 
L 62.302193 -62.053152 
L 62.550772 -61.744717 
L 62.803122 -61.429447 
L 63.0593 -61.09325 
L 63.319363 -60.752629 
L 63.583371 -60.544418 
L 63.851383 -60.415621 
L 64.12346 -60.318397 
L 64.399664 -60.181789 
L 64.680058 -59.966696 
L 64.964705 -59.713992 
L 65.253669 -59.443272 
L 65.547016 -59.145349 
L 65.844812 -58.848763 
L 66.147125 -58.572265 
L 66.454024 -58.352811 
L 66.765578 -58.151462 
L 67.081857 -57.854757 
L 67.402934 -57.480312 
L 67.728881 -57.045051 
L 68.059771 -56.637717 
L 68.395681 -56.297697 
L 68.736685 -56.024249 
L 69.082862 -55.804221 
L 69.434289 -55.675378 
L 69.791047 -55.643781 
L 70.153216 -55.727079 
L 70.520879 -55.823524 
L 70.894118 -55.923126 
L 71.273018 -55.967757 
L 71.657665 -55.963229 
L 72.048147 -55.945725 
L 72.444551 -55.991581 
L 72.846968 -56.113825 
L 73.255489 -56.262521 
L 73.670206 -56.353666 
L 74.091214 -56.347637 
L 74.518607 -56.293806 
L 74.952483 -56.20511 
L 75.392939 -56.141187 
L 75.840077 -56.100314 
L 76.293997 -56.044186 
L 76.754801 -55.957867 
L 77.222595 -55.858609 
L 77.697485 -55.785834 
L 78.179577 -55.769848 
L 78.668982 -55.820211 
L 79.16581 -55.94063 
L 79.670174 -56.125363 
L 80.182187 -56.368711 
L 80.701967 -56.645285 
L 81.229631 -56.924307 
L 81.765299 -57.157921 
L 82.309091 -57.339213 
L 82.861132 -57.496237 
L 83.421545 -57.663226 
L 83.990459 -57.858205 
L 84.568002 -58.08738 
L 85.154305 -58.341317 
L 85.749502 -58.612053 
L 86.353725 -58.910629 
L 86.967114 -59.28338 
L 87.589807 -59.71812 
L 88.221944 -60.18 
L 88.863669 -60.656601 
L 89.515129 -61.144721 
L 90.176469 -61.620081 
L 90.84784 -62.057909 
L 91.529395 -62.492262 
L 92.221287 -62.920451 
L 92.923674 -63.339079 
L 93.636714 -63.745775 
L 94.36057 -64.138807 
L 95.095405 -64.510318 
L 95.841386 -64.850106 
L 96.598682 -65.152056 
L 97.367464 -65.442403 
L 98.147907 -65.720905 
L 98.940187 -66.00516 
L 99.744485 -66.311172 
L 100.560982 -66.643576 
L 101.389864 -66.992746 
L 102.231318 -67.349314 
L 103.085535 -67.71642 
L 103.952709 -68.086919 
L 104.833036 -68.443412 
L 105.726715 -68.78228 
L 106.63395 -69.117084 
L 107.554945 -69.456557 
L 108.48991 -69.796717 
L 109.439056 -70.126021 
L 110.402599 -70.433959 
L 111.380756 -70.725869 
L 112.37375 -70.997242 
L 113.381806 -71.251114 
L 114.405151 -71.496196 
L 115.444019 -71.737957 
L 116.498643 -71.970525 
L 117.569265 -72.188958 
L 118.656125 -72.38542 
L 119.75947 -72.560214 
L 120.879551 -72.691244 
L 122.016621 -72.764724 
L 123.170938 -72.782723 
L 124.342763 -72.751584 
L 125.532362 -72.683869 
L 126.740005 -72.583233 
L 127.965965 -72.431874 
L 129.21052 -72.229039 
L 130.473953 -72.001984 
L 131.756549 -71.782219 
L 133.058599 -71.565333 
L 134.380399 -71.352287 
L 135.722247 -71.144556 
L 137.084448 -70.940361 
L 138.467311 -70.731867 
L 139.871149 -70.518933 
L 141.29628 -70.297761 
L 142.743027 -70.077811 
L 144.211718 -69.850638 
L 145.702685 -69.622368 
L 147.216268 -69.400269 
L 148.752808 -69.194945 
L 150.312655 -69.008456 
L 151.89616 -68.830979 
L 153.503684 -68.660528 
L 155.135591 -68.498179 
L 156.79225 -68.350171 
L 158.474037 -68.209937 
L 160.181333 -68.084712 
L 161.914525 -67.958314 
L 163.674006 -67.83483 
L 165.460174 -67.710319 
L 167.273435 -67.594336 
L 169.114198 -67.492791 
L 170.982882 -67.406756 
L 172.87991 -67.323341 
L 174.805712 -67.240292 
L 176.760723 -67.168321 
L 178.745389 -67.10896 
L 180.760157 -67.070332 
L 182.805484 -67.056269 
L 184.881835 -67.060567 
L 186.98968 -67.08532 
L 189.129496 -67.111667 
L 191.301768 -67.160982 
L 193.506989 -67.228849 
L 195.745658 -67.315894 
L 198.018283 -67.421482 
L 200.325379 -67.53571 
L 202.667468 -67.656095 
L 205.045082 -67.78146 
L 207.458759 -67.902815 
L 209.909046 -68.013629 
L 212.396498 -68.119993 
L 214.92168 -68.223806 
L 217.485164 -68.332715 
L 220.087529 -68.448021 
L 222.729367 -68.571559 
L 225.411276 -68.70013 
L 228.133864 -68.820572 
L 230.897747 -68.929034 
L 233.703552 -69.021214 
L 236.551915 -69.096148 
L 239.443482 -69.157731 
L 242.378907 -69.206818 
L 245.358856 -69.248646 
L 248.384005 -69.284008 
L 251.455039 -69.316254 
L 254.572653 -69.347072 
L 257.737555 -69.37489 
L 260.950461 -69.39707 
L 264.212101 -69.414251 
L 267.523212 -69.421083 
L 270.884545 -69.419053 
L 274.296863 -69.411623 
L 277.760938 -69.405608 
L 277.760938 -74.003981 
L 277.760938 -74.003981 
L 274.296863 -73.985709 
L 270.884545 -73.968285 
L 267.523212 -73.936855 
L 264.212101 -73.893214 
L 260.950461 -73.834885 
L 257.737555 -73.760203 
L 254.572653 -73.678479 
L 251.455039 -73.58931 
L 248.384005 -73.497934 
L 245.358856 -73.404473 
L 242.378907 -73.310563 
L 239.443482 -73.216022 
L 236.551915 -73.115812 
L 233.703552 -73.011657 
L 230.897747 -72.900842 
L 228.133864 -72.782458 
L 225.411276 -72.660579 
L 222.729367 -72.540848 
L 220.087529 -72.431617 
L 217.485164 -72.337909 
L 214.92168 -72.258707 
L 212.396498 -72.186153 
L 209.909046 -72.111899 
L 207.458759 -72.031381 
L 205.045082 -71.933823 
L 202.667468 -71.824546 
L 200.325379 -71.7082 
L 198.018283 -71.592165 
L 195.745658 -71.480679 
L 193.506989 -71.376877 
L 191.301768 -71.284419 
L 189.129496 -71.202698 
L 186.98968 -71.144398 
L 184.881835 -71.092166 
L 182.805484 -71.058369 
L 180.760157 -71.050117 
L 178.745389 -71.071727 
L 176.760723 -71.116686 
L 174.805712 -71.189307 
L 172.87991 -71.281424 
L 170.982882 -71.383924 
L 169.114198 -71.498574 
L 167.273435 -71.636318 
L 165.460174 -71.793094 
L 163.674006 -71.958933 
L 161.914525 -72.125156 
L 160.181333 -72.286976 
L 158.474037 -72.446102 
L 156.79225 -72.609244 
L 155.135591 -72.77825 
L 153.503684 -72.954093 
L 151.89616 -73.135141 
L 150.312655 -73.320515 
L 148.752808 -73.511201 
L 147.216268 -73.716286 
L 145.702685 -73.933535 
L 144.211718 -74.158586 
L 142.743027 -74.385735 
L 141.29628 -74.611749 
L 139.871149 -74.84101 
L 138.467311 -75.060835 
L 137.084448 -75.266473 
L 135.722247 -75.458968 
L 134.380399 -75.655687 
L 133.058599 -75.849743 
L 131.756549 -76.04536 
L 130.473953 -76.245337 
L 129.21052 -76.445256 
L 127.965965 -76.621238 
L 126.740005 -76.757964 
L 125.532362 -76.841255 
L 124.342763 -76.886342 
L 123.170938 -76.929271 
L 122.016621 -76.936812 
L 120.879551 -76.887495 
L 119.75947 -76.789509 
L 118.656125 -76.649673 
L 117.569265 -76.488629 
L 116.498643 -76.310732 
L 115.444019 -76.126407 
L 114.405151 -75.927522 
L 113.381806 -75.713054 
L 112.37375 -75.486628 
L 111.380756 -75.235743 
L 110.402599 -74.959517 
L 109.439056 -74.668764 
L 108.48991 -74.343813 
L 107.554945 -73.974748 
L 106.63395 -73.581837 
L 105.726715 -73.175806 
L 104.833036 -72.755876 
L 103.952709 -72.321284 
L 103.085535 -71.872133 
L 102.231318 -71.41946 
L 101.389864 -70.979569 
L 100.560982 -70.548061 
L 99.744485 -70.136516 
L 98.940187 -69.753538 
L 98.147907 -69.395043 
L 97.367464 -69.05331 
L 96.598682 -68.69101 
L 95.841386 -68.320006 
L 95.095405 -67.893651 
L 94.36057 -67.427795 
L 93.636714 -66.931176 
L 92.923674 -66.423978 
L 92.221287 -65.91176 
L 91.529395 -65.394549 
L 90.84784 -64.875274 
L 90.176469 -64.353524 
L 89.515129 -63.802306 
L 88.863669 -63.227896 
L 88.221944 -62.656317 
L 87.589807 -62.097639 
L 86.967114 -61.557564 
L 86.353725 -61.078912 
L 85.749502 -60.680361 
L 85.154305 -60.329715 
L 84.568002 -60.01127 
L 83.990459 -59.743596 
L 83.421545 -59.532557 
L 82.861132 -59.365014 
L 82.309091 -59.222804 
L 81.765299 -59.065644 
L 81.229631 -58.861662 
L 80.701967 -58.620761 
L 80.182187 -58.370049 
L 79.670174 -58.133492 
L 79.16581 -57.929199 
L 78.668982 -57.774497 
L 78.179577 -57.68034 
L 77.697485 -57.674482 
L 77.222595 -57.7475 
L 76.754801 -57.863854 
L 76.293997 -57.960271 
L 75.840077 -58.022415 
L 75.392939 -58.053909 
L 74.952483 -58.09387 
L 74.518607 -58.156264 
L 74.091214 -58.189725 
L 73.670206 -58.195107 
L 73.255489 -58.117127 
L 72.846968 -58.012033 
L 72.444551 -57.948785 
L 72.048147 -57.988622 
L 71.657665 -58.095252 
L 71.273018 -58.155827 
L 70.894118 -58.131605 
L 70.520879 -58.03463 
L 70.153216 -57.915487 
L 69.791047 -57.823752 
L 69.434289 -57.827986 
L 69.082862 -57.949556 
L 68.736685 -58.172831 
L 68.395681 -58.47287 
L 68.059771 -58.867704 
L 67.728881 -59.367769 
L 67.402934 -59.887346 
L 67.081857 -60.339438 
L 66.765578 -60.654264 
L 66.454024 -60.80926 
L 66.147125 -60.893583 
L 65.844812 -61.034118 
L 65.547016 -61.225652 
L 65.253669 -61.488523 
L 64.964705 -61.753943 
L 64.680058 -61.95166 
L 64.399664 -62.091956 
L 64.12346 -62.225729 
L 63.851383 -62.454319 
L 63.583371 -62.793924 
L 63.319363 -63.181327 
L 63.0593 -63.580446 
L 62.803122 -63.833545 
L 62.550772 -63.993202 
L 62.302193 -64.155069 
L 62.057327 -64.304801 
L 61.81612 -64.452067 
L 61.578517 -64.589794 
L 61.344464 -64.663561 
L 61.113908 -64.818208 
L 60.886797 -65.169303 
L 60.663079 -65.683874 
L 60.442704 -66.172198 
L 60.225622 -66.424068 
L 60.011783 -66.472134 
L 59.801139 -66.56116 
L 59.593642 -66.873341 
L 59.389245 -67.299121 
L 59.187903 -67.826085 
L 58.989568 -68.38931 
L 58.794197 -69.023324 
L 58.601746 -69.740896 
L 58.412169 -70.315457 
L 58.225425 -70.668894 
L 58.041471 -70.90041 
L 57.860266 -70.855038 
L 57.681768 -70.70784 
L 57.505937 -70.632641 
z
"/>
    </defs>
    <g clip-path="url(#pf2c220707b)">
     <use xlink:href="#m327c05f965" x="0" y="206.889688" style="fill: #029e73; fill-opacity: 0.3"/>
    </g>
   </g>
   <g id="FillBetweenPolyCollection_4">
    <defs>
     <path id="mc19c32a12d" d="M 57.505937 -53.28192 
L 57.505937 -51.264267 
L 57.681768 -51.112787 
L 57.860266 -50.759574 
L 58.041471 -49.973968 
L 58.225425 -49.011103 
L 58.412169 -48.227408 
L 58.601746 -47.760057 
L 58.794197 -47.535639 
L 58.989568 -47.437613 
L 59.187903 -47.518717 
L 59.389245 -47.690746 
L 59.593642 -47.93883 
L 59.801139 -48.199936 
L 60.011783 -48.289354 
L 60.225622 -48.203805 
L 60.442704 -48.077469 
L 60.663079 -47.991347 
L 60.886797 -47.947971 
L 61.113908 -47.784895 
L 61.344464 -47.529437 
L 61.578517 -47.369065 
L 61.81612 -47.340076 
L 62.057327 -47.345858 
L 62.302193 -47.268696 
L 62.550772 -47.100057 
L 62.803122 -46.890709 
L 63.0593 -46.653216 
L 63.319363 -46.418318 
L 63.583371 -46.285275 
L 63.851383 -46.215982 
L 64.12346 -46.167242 
L 64.399664 -46.171354 
L 64.680058 -46.240279 
L 64.964705 -46.380679 
L 65.253669 -46.595233 
L 65.547016 -46.812589 
L 65.844812 -47.02217 
L 66.147125 -47.193465 
L 66.454024 -47.371786 
L 66.765578 -47.523124 
L 67.081857 -47.616101 
L 67.402934 -47.693268 
L 67.728881 -47.728659 
L 68.059771 -47.690905 
L 68.395681 -47.550474 
L 68.736685 -47.326978 
L 69.082862 -47.061836 
L 69.434289 -46.807531 
L 69.791047 -46.602244 
L 70.153216 -46.44624 
L 70.520879 -46.303467 
L 70.894118 -46.174165 
L 71.273018 -46.08103 
L 71.657665 -46.036842 
L 72.048147 -46.01733 
L 72.444551 -46.030687 
L 72.846968 -46.155109 
L 73.255489 -46.300631 
L 73.670206 -46.659764 
L 74.091214 -47.084309 
L 74.518607 -47.66414 
L 74.952483 -48.265061 
L 75.392939 -48.841933 
L 75.840077 -49.402797 
L 76.293997 -49.939032 
L 76.754801 -50.446377 
L 77.222595 -50.940518 
L 77.697485 -51.461985 
L 78.179577 -52.054862 
L 78.668982 -52.742337 
L 79.16581 -53.557417 
L 79.670174 -54.450581 
L 80.182187 -55.449864 
L 80.701967 -56.538996 
L 81.229631 -57.682527 
L 81.765299 -58.94406 
L 82.309091 -60.294403 
L 82.861132 -61.664707 
L 83.421545 -63.100967 
L 83.990459 -64.626473 
L 84.568002 -66.240006 
L 85.154305 -67.981518 
L 85.749502 -69.860544 
L 86.353725 -71.843284 
L 86.967114 -74.003099 
L 87.589807 -76.313567 
L 88.221944 -78.710959 
L 88.863669 -81.177143 
L 89.515129 -83.676687 
L 90.176469 -86.213269 
L 90.84784 -88.780549 
L 91.529395 -91.376551 
L 92.221287 -93.989034 
L 92.923674 -96.612762 
L 93.636714 -99.23899 
L 94.36057 -101.852458 
L 95.095405 -104.425093 
L 95.841386 -106.948411 
L 96.598682 -109.421412 
L 97.367464 -111.802115 
L 98.147907 -114.105041 
L 98.940187 -116.375213 
L 99.744485 -118.59589 
L 100.560982 -120.720571 
L 101.389864 -122.732139 
L 102.231318 -124.672517 
L 103.085535 -126.481914 
L 103.952709 -128.199859 
L 104.833036 -129.768013 
L 105.726715 -131.304448 
L 106.63395 -132.803856 
L 107.554945 -134.241224 
L 108.48991 -135.69556 
L 109.439056 -137.130856 
L 110.402599 -138.616932 
L 111.380756 -140.111837 
L 112.37375 -141.564972 
L 113.381806 -142.97561 
L 114.405151 -144.365193 
L 115.444019 -145.739239 
L 116.498643 -147.06901 
L 117.569265 -148.341052 
L 118.656125 -149.542196 
L 119.75947 -150.674898 
L 120.879551 -151.759217 
L 122.016621 -152.804322 
L 123.170938 -153.795106 
L 124.342763 -154.702105 
L 125.532362 -155.495435 
L 126.740005 -156.120803 
L 127.965965 -156.582913 
L 129.21052 -156.864309 
L 130.473953 -157.136339 
L 131.756549 -157.269118 
L 133.058599 -157.344893 
L 134.380399 -157.280261 
L 135.722247 -157.082442 
L 137.084448 -156.736766 
L 138.467311 -156.241895 
L 139.871149 -155.676692 
L 141.29628 -155.037348 
L 142.743027 -154.34274 
L 144.211718 -153.608564 
L 145.702685 -152.895184 
L 147.216268 -152.161529 
L 148.752808 -151.390278 
L 150.312655 -150.573683 
L 151.89616 -149.720911 
L 153.503684 -148.840306 
L 155.135591 -147.917272 
L 156.79225 -146.938692 
L 158.474037 -145.954005 
L 160.181333 -144.965345 
L 161.914525 -143.983269 
L 163.674006 -143.028482 
L 165.460174 -142.086669 
L 167.273435 -141.157813 
L 169.114198 -140.229634 
L 170.982882 -139.317996 
L 172.87991 -138.41029 
L 174.805712 -137.501073 
L 176.760723 -136.600328 
L 178.745389 -135.704927 
L 180.760157 -134.806161 
L 182.805484 -133.902196 
L 184.881835 -132.990615 
L 186.98968 -132.066405 
L 189.129496 -131.14449 
L 191.301768 -130.239473 
L 193.506989 -129.356879 
L 195.745658 -128.483959 
L 198.018283 -127.6116 
L 200.325379 -126.753555 
L 202.667468 -125.901866 
L 205.045082 -125.074754 
L 207.458759 -124.25687 
L 209.909046 -123.457623 
L 212.396498 -122.667652 
L 214.92168 -121.886482 
L 217.485164 -121.120467 
L 220.087529 -120.340185 
L 222.729367 -119.571811 
L 225.411276 -118.79681 
L 228.133864 -118.010596 
L 230.897747 -117.221752 
L 233.703552 -116.42906 
L 236.551915 -115.624087 
L 239.443482 -114.802345 
L 242.378907 -113.961243 
L 245.358856 -113.1138 
L 248.384005 -112.273154 
L 251.455039 -111.445848 
L 254.572653 -110.632852 
L 257.737555 -109.848694 
L 260.950461 -109.072583 
L 264.212101 -108.319453 
L 267.523212 -107.588923 
L 270.884545 -106.863126 
L 274.296863 -106.162376 
L 277.760938 -105.496736 
L 277.760938 -114.905316 
L 277.760938 -114.905316 
L 274.296863 -115.646874 
L 270.884545 -116.429876 
L 267.523212 -117.245767 
L 264.212101 -118.082346 
L 260.950461 -118.949052 
L 257.737555 -119.842322 
L 254.572653 -120.747308 
L 251.455039 -121.681321 
L 248.384005 -122.63103 
L 245.358856 -123.594263 
L 242.378907 -124.562021 
L 239.443482 -125.51776 
L 236.551915 -126.454573 
L 233.703552 -127.372418 
L 230.897747 -128.278911 
L 228.133864 -129.178423 
L 225.411276 -130.07402 
L 222.729367 -130.965491 
L 220.087529 -131.844886 
L 217.485164 -132.737359 
L 214.92168 -133.621532 
L 212.396498 -134.527481 
L 209.909046 -135.449796 
L 207.458759 -136.396522 
L 205.045082 -137.377721 
L 202.667468 -138.37995 
L 200.325379 -139.411723 
L 198.018283 -140.460463 
L 195.745658 -141.533452 
L 193.506989 -142.61381 
L 191.301768 -143.706464 
L 189.129496 -144.81877 
L 186.98968 -145.947468 
L 184.881835 -147.075489 
L 182.805484 -148.194075 
L 180.760157 -149.295337 
L 178.745389 -150.369846 
L 176.760723 -151.427786 
L 174.805712 -152.46998 
L 172.87991 -153.505232 
L 170.982882 -154.531163 
L 169.114198 -155.565003 
L 167.273435 -156.622787 
L 165.460174 -157.685472 
L 163.674006 -158.761141 
L 161.914525 -159.852559 
L 160.181333 -160.977657 
L 158.474037 -162.100566 
L 156.79225 -163.2108 
L 155.135591 -164.293095 
L 153.503684 -165.321835 
L 151.89616 -166.307742 
L 150.312655 -167.249087 
L 148.752808 -168.156318 
L 147.216268 -169.025791 
L 145.702685 -169.83416 
L 144.211718 -170.547876 
L 142.743027 -171.270357 
L 141.29628 -171.902148 
L 139.871149 -172.446368 
L 138.467311 -172.871746 
L 137.084448 -173.229832 
L 135.722247 -173.399031 
L 134.380399 -173.438929 
L 133.058599 -173.346975 
L 131.756549 -173.10912 
L 130.473953 -172.792046 
L 129.21052 -172.315443 
L 127.965965 -171.853045 
L 126.740005 -171.176557 
L 125.532362 -170.358861 
L 124.342763 -169.383617 
L 123.170938 -168.313099 
L 122.016621 -167.156325 
L 120.879551 -165.933417 
L 119.75947 -164.670322 
L 118.656125 -163.311622 
L 117.569265 -161.886794 
L 116.498643 -160.336852 
L 115.444019 -158.737937 
L 114.405151 -157.092738 
L 113.381806 -155.390338 
L 112.37375 -153.65588 
L 111.380756 -151.8387 
L 110.402599 -149.975517 
L 109.439056 -148.148302 
L 108.48991 -146.406471 
L 107.554945 -144.608733 
L 106.63395 -142.848249 
L 105.726715 -141.000718 
L 104.833036 -139.130283 
L 103.952709 -137.265651 
L 103.085535 -135.216678 
L 102.231318 -133.03987 
L 101.389864 -130.699608 
L 100.560982 -128.31998 
L 99.744485 -125.857315 
L 98.940187 -123.321929 
L 98.147907 -120.72263 
L 97.367464 -118.146782 
L 96.598682 -115.543948 
L 95.841386 -112.903076 
L 95.095405 -110.270047 
L 94.36057 -107.592546 
L 93.636714 -104.948901 
L 92.923674 -102.321175 
L 92.221287 -99.70237 
L 91.529395 -97.084073 
L 90.84784 -94.465217 
L 90.176469 -91.866162 
L 89.515129 -89.306177 
L 88.863669 -86.782831 
L 88.221944 -84.285465 
L 87.589807 -81.841796 
L 86.967114 -79.454396 
L 86.353725 -77.183165 
L 85.749502 -75.038862 
L 85.154305 -72.97687 
L 84.568002 -71.018084 
L 83.990459 -69.150788 
L 83.421545 -67.356533 
L 82.861132 -65.649183 
L 82.309091 -63.991032 
L 81.765299 -62.382133 
L 81.229631 -60.871559 
L 80.701967 -59.466918 
L 80.182187 -58.175159 
L 79.670174 -56.989627 
L 79.16581 -55.931372 
L 78.668982 -55.003562 
L 78.179577 -54.22628 
L 77.697485 -53.579635 
L 77.222595 -53.048537 
L 76.754801 -52.567181 
L 76.293997 -52.097124 
L 75.840077 -51.590897 
L 75.392939 -51.055451 
L 74.952483 -50.498235 
L 74.518607 -49.9092 
L 74.091214 -49.355486 
L 73.670206 -48.921619 
L 73.255489 -48.608268 
L 72.846968 -48.482201 
L 72.444551 -48.418706 
L 72.048147 -48.454652 
L 71.657665 -48.542781 
L 71.273018 -48.66827 
L 70.894118 -48.825706 
L 70.520879 -49.019089 
L 70.153216 -49.192486 
L 69.791047 -49.341729 
L 69.434289 -49.510171 
L 69.082862 -49.712094 
L 68.736685 -49.940556 
L 68.395681 -50.15215 
L 68.059771 -50.27997 
L 67.728881 -50.265392 
L 67.402934 -50.134546 
L 67.081857 -49.936202 
L 66.765578 -49.735713 
L 66.454024 -49.505924 
L 66.147125 -49.260778 
L 65.844812 -49.063667 
L 65.547016 -48.872329 
L 65.253669 -48.739325 
L 64.964705 -48.648488 
L 64.680058 -48.640027 
L 64.399664 -48.645402 
L 64.12346 -48.705357 
L 63.851383 -48.819955 
L 63.583371 -48.969883 
L 63.319363 -49.156441 
L 63.0593 -49.398929 
L 62.803122 -49.590314 
L 62.550772 -49.711327 
L 62.302193 -49.774502 
L 62.057327 -49.754762 
L 61.81612 -49.663982 
L 61.578517 -49.653468 
L 61.344464 -49.830378 
L 61.113908 -50.154676 
L 60.886797 -50.405731 
L 60.663079 -50.516659 
L 60.442704 -50.662482 
L 60.225622 -50.844515 
L 60.011783 -50.953729 
L 59.801139 -50.81981 
L 59.593642 -50.481913 
L 59.389245 -50.194945 
L 59.187903 -50.089186 
L 58.989568 -50.138601 
L 58.794197 -50.285345 
L 58.601746 -50.451856 
L 58.412169 -50.810139 
L 58.225425 -51.481962 
L 58.041471 -52.335094 
L 57.860266 -52.987701 
L 57.681768 -53.21545 
L 57.505937 -53.28192 
z
"/>
    </defs>
    <g clip-path="url(#pf2c220707b)">
     <use xlink:href="#mc19c32a12d" x="0" y="206.889688" style="fill: #d55e00; fill-opacity: 0.3"/>
    </g>
   </g>
   <g id="matplotlib.axis_1">
    <g id="xtick_1">
     <g id="line2d_1">
      <defs>
       <path id="m6105b45789" d="M 0 0 
L 0 3.5 
" style="stroke: #000000; stroke-width: 0.8"/>
      </defs>
      <g>
       <use xlink:href="#m6105b45789" x="92.283043" y="167.397813" style="stroke: #000000; stroke-width: 0.8"/>
      </g>
     </g>
     <g id="text_1">
      <!-- 2 -->
      <g transform="translate(89.101793 181.99625) scale(0.1 -0.1)">
       <defs>
        <path id="DejaVuSans-32" d="M 1228 531 
L 3431 531 
L 3431 0 
L 469 0 
L 469 531 
Q 828 903 1448 1529 
Q 2069 2156 2228 2338 
Q 2531 2678 2651 2914 
Q 2772 3150 2772 3378 
Q 2772 3750 2511 3984 
Q 2250 4219 1831 4219 
Q 1534 4219 1204 4116 
Q 875 4013 500 3803 
L 500 4441 
Q 881 4594 1212 4672 
Q 1544 4750 1819 4750 
Q 2544 4750 2975 4387 
Q 3406 4025 3406 3419 
Q 3406 3131 3298 2873 
Q 3191 2616 2906 2266 
Q 2828 2175 2409 1742 
Q 1991 1309 1228 531 
z
" transform="scale(0.015625)"/>
       </defs>
       <use xlink:href="#DejaVuSans-32"/>
      </g>
     </g>
    </g>
    <g id="xtick_2">
     <g id="line2d_2">
      <g>
       <use xlink:href="#m6105b45789" x="138.652516" y="167.397813" style="stroke: #000000; stroke-width: 0.8"/>
      </g>
     </g>
     <g id="text_2">
      <!-- 4 -->
      <g transform="translate(135.471266 181.99625) scale(0.1 -0.1)">
       <defs>
        <path id="DejaVuSans-34" d="M 2419 4116 
L 825 1625 
L 2419 1625 
L 2419 4116 
z
M 2253 4666 
L 3047 4666 
L 3047 1625 
L 3713 1625 
L 3713 1100 
L 3047 1100 
L 3047 0 
L 2419 0 
L 2419 1100 
L 313 1100 
L 313 1709 
L 2253 4666 
z
" transform="scale(0.015625)"/>
       </defs>
       <use xlink:href="#DejaVuSans-34"/>
      </g>
     </g>
    </g>
    <g id="xtick_3">
     <g id="line2d_3">
      <g>
       <use xlink:href="#m6105b45789" x="185.02199" y="167.397813" style="stroke: #000000; stroke-width: 0.8"/>
      </g>
     </g>
     <g id="text_3">
      <!-- 6 -->
      <g transform="translate(181.84074 181.99625) scale(0.1 -0.1)">
       <defs>
        <path id="DejaVuSans-36" d="M 2113 2584 
Q 1688 2584 1439 2293 
Q 1191 2003 1191 1497 
Q 1191 994 1439 701 
Q 1688 409 2113 409 
Q 2538 409 2786 701 
Q 3034 994 3034 1497 
Q 3034 2003 2786 2293 
Q 2538 2584 2113 2584 
z
M 3366 4563 
L 3366 3988 
Q 3128 4100 2886 4159 
Q 2644 4219 2406 4219 
Q 1781 4219 1451 3797 
Q 1122 3375 1075 2522 
Q 1259 2794 1537 2939 
Q 1816 3084 2150 3084 
Q 2853 3084 3261 2657 
Q 3669 2231 3669 1497 
Q 3669 778 3244 343 
Q 2819 -91 2113 -91 
Q 1303 -91 875 529 
Q 447 1150 447 2328 
Q 447 3434 972 4092 
Q 1497 4750 2381 4750 
Q 2619 4750 2861 4703 
Q 3103 4656 3366 4563 
z
" transform="scale(0.015625)"/>
       </defs>
       <use xlink:href="#DejaVuSans-36"/>
      </g>
     </g>
    </g>
    <g id="xtick_4">
     <g id="line2d_4">
      <g>
       <use xlink:href="#m6105b45789" x="231.391464" y="167.397813" style="stroke: #000000; stroke-width: 0.8"/>
      </g>
     </g>
     <g id="text_4">
      <!-- 8 -->
      <g transform="translate(228.210214 181.99625) scale(0.1 -0.1)">
       <defs>
        <path id="DejaVuSans-38" d="M 2034 2216 
Q 1584 2216 1326 1975 
Q 1069 1734 1069 1313 
Q 1069 891 1326 650 
Q 1584 409 2034 409 
Q 2484 409 2743 651 
Q 3003 894 3003 1313 
Q 3003 1734 2745 1975 
Q 2488 2216 2034 2216 
z
M 1403 2484 
Q 997 2584 770 2862 
Q 544 3141 544 3541 
Q 544 4100 942 4425 
Q 1341 4750 2034 4750 
Q 2731 4750 3128 4425 
Q 3525 4100 3525 3541 
Q 3525 3141 3298 2862 
Q 3072 2584 2669 2484 
Q 3125 2378 3379 2068 
Q 3634 1759 3634 1313 
Q 3634 634 3220 271 
Q 2806 -91 2034 -91 
Q 1263 -91 848 271 
Q 434 634 434 1313 
Q 434 1759 690 2068 
Q 947 2378 1403 2484 
z
M 1172 3481 
Q 1172 3119 1398 2916 
Q 1625 2713 2034 2713 
Q 2441 2713 2670 2916 
Q 2900 3119 2900 3481 
Q 2900 3844 2670 4047 
Q 2441 4250 2034 4250 
Q 1625 4250 1398 4047 
Q 1172 3844 1172 3481 
z
" transform="scale(0.015625)"/>
       </defs>
       <use xlink:href="#DejaVuSans-38"/>
      </g>
     </g>
    </g>
    <g id="xtick_5">
     <g id="line2d_5">
      <g>
       <use xlink:href="#m6105b45789" x="277.760938" y="167.397813" style="stroke: #000000; stroke-width: 0.8"/>
      </g>
     </g>
     <g id="text_5">
      <!-- 10 -->
      <g transform="translate(271.398438 181.99625) scale(0.1 -0.1)">
       <defs>
        <path id="DejaVuSans-31" d="M 794 531 
L 1825 531 
L 1825 4091 
L 703 3866 
L 703 4441 
L 1819 4666 
L 2450 4666 
L 2450 531 
L 3481 531 
L 3481 0 
L 794 0 
L 794 531 
z
" transform="scale(0.015625)"/>
        <path id="DejaVuSans-30" d="M 2034 4250 
Q 1547 4250 1301 3770 
Q 1056 3291 1056 2328 
Q 1056 1369 1301 889 
Q 1547 409 2034 409 
Q 2525 409 2770 889 
Q 3016 1369 3016 2328 
Q 3016 3291 2770 3770 
Q 2525 4250 2034 4250 
z
M 2034 4750 
Q 2819 4750 3233 4129 
Q 3647 3509 3647 2328 
Q 3647 1150 3233 529 
Q 2819 -91 2034 -91 
Q 1250 -91 836 529 
Q 422 1150 422 2328 
Q 422 3509 836 4129 
Q 1250 4750 2034 4750 
z
" transform="scale(0.015625)"/>
       </defs>
       <use xlink:href="#DejaVuSans-31"/>
       <use xlink:href="#DejaVuSans-30" transform="translate(63.623047 0)"/>
      </g>
     </g>
    </g>
    <g id="text_6">
     <!-- Spacing (nm) -->
     <g transform="translate(127.525313 197.194063) scale(0.12 -0.12)">
      <defs>
       <path id="DejaVuSans-53" d="M 3425 4513 
L 3425 3897 
Q 3066 4069 2747 4153 
Q 2428 4238 2131 4238 
Q 1616 4238 1336 4038 
Q 1056 3838 1056 3469 
Q 1056 3159 1242 3001 
Q 1428 2844 1947 2747 
L 2328 2669 
Q 3034 2534 3370 2195 
Q 3706 1856 3706 1288 
Q 3706 609 3251 259 
Q 2797 -91 1919 -91 
Q 1588 -91 1214 -16 
Q 841 59 441 206 
L 441 856 
Q 825 641 1194 531 
Q 1563 422 1919 422 
Q 2459 422 2753 634 
Q 3047 847 3047 1241 
Q 3047 1584 2836 1778 
Q 2625 1972 2144 2069 
L 1759 2144 
Q 1053 2284 737 2584 
Q 422 2884 422 3419 
Q 422 4038 858 4394 
Q 1294 4750 2059 4750 
Q 2388 4750 2728 4690 
Q 3069 4631 3425 4513 
z
" transform="scale(0.015625)"/>
       <path id="DejaVuSans-70" d="M 1159 525 
L 1159 -1331 
L 581 -1331 
L 581 3500 
L 1159 3500 
L 1159 2969 
Q 1341 3281 1617 3432 
Q 1894 3584 2278 3584 
Q 2916 3584 3314 3078 
Q 3713 2572 3713 1747 
Q 3713 922 3314 415 
Q 2916 -91 2278 -91 
Q 1894 -91 1617 61 
Q 1341 213 1159 525 
z
M 3116 1747 
Q 3116 2381 2855 2742 
Q 2594 3103 2138 3103 
Q 1681 3103 1420 2742 
Q 1159 2381 1159 1747 
Q 1159 1113 1420 752 
Q 1681 391 2138 391 
Q 2594 391 2855 752 
Q 3116 1113 3116 1747 
z
" transform="scale(0.015625)"/>
       <path id="DejaVuSans-61" d="M 2194 1759 
Q 1497 1759 1228 1600 
Q 959 1441 959 1056 
Q 959 750 1161 570 
Q 1363 391 1709 391 
Q 2188 391 2477 730 
Q 2766 1069 2766 1631 
L 2766 1759 
L 2194 1759 
z
M 3341 1997 
L 3341 0 
L 2766 0 
L 2766 531 
Q 2569 213 2275 61 
Q 1981 -91 1556 -91 
Q 1019 -91 701 211 
Q 384 513 384 1019 
Q 384 1609 779 1909 
Q 1175 2209 1959 2209 
L 2766 2209 
L 2766 2266 
Q 2766 2663 2505 2880 
Q 2244 3097 1772 3097 
Q 1472 3097 1187 3025 
Q 903 2953 641 2809 
L 641 3341 
Q 956 3463 1253 3523 
Q 1550 3584 1831 3584 
Q 2591 3584 2966 3190 
Q 3341 2797 3341 1997 
z
" transform="scale(0.015625)"/>
       <path id="DejaVuSans-63" d="M 3122 3366 
L 3122 2828 
Q 2878 2963 2633 3030 
Q 2388 3097 2138 3097 
Q 1578 3097 1268 2742 
Q 959 2388 959 1747 
Q 959 1106 1268 751 
Q 1578 397 2138 397 
Q 2388 397 2633 464 
Q 2878 531 3122 666 
L 3122 134 
Q 2881 22 2623 -34 
Q 2366 -91 2075 -91 
Q 1284 -91 818 406 
Q 353 903 353 1747 
Q 353 2603 823 3093 
Q 1294 3584 2113 3584 
Q 2378 3584 2631 3529 
Q 2884 3475 3122 3366 
z
" transform="scale(0.015625)"/>
       <path id="DejaVuSans-69" d="M 603 3500 
L 1178 3500 
L 1178 0 
L 603 0 
L 603 3500 
z
M 603 4863 
L 1178 4863 
L 1178 4134 
L 603 4134 
L 603 4863 
z
" transform="scale(0.015625)"/>
       <path id="DejaVuSans-6e" d="M 3513 2113 
L 3513 0 
L 2938 0 
L 2938 2094 
Q 2938 2591 2744 2837 
Q 2550 3084 2163 3084 
Q 1697 3084 1428 2787 
Q 1159 2491 1159 1978 
L 1159 0 
L 581 0 
L 581 3500 
L 1159 3500 
L 1159 2956 
Q 1366 3272 1645 3428 
Q 1925 3584 2291 3584 
Q 2894 3584 3203 3211 
Q 3513 2838 3513 2113 
z
" transform="scale(0.015625)"/>
       <path id="DejaVuSans-67" d="M 2906 1791 
Q 2906 2416 2648 2759 
Q 2391 3103 1925 3103 
Q 1463 3103 1205 2759 
Q 947 2416 947 1791 
Q 947 1169 1205 825 
Q 1463 481 1925 481 
Q 2391 481 2648 825 
Q 2906 1169 2906 1791 
z
M 3481 434 
Q 3481 -459 3084 -895 
Q 2688 -1331 1869 -1331 
Q 1566 -1331 1297 -1286 
Q 1028 -1241 775 -1147 
L 775 -588 
Q 1028 -725 1275 -790 
Q 1522 -856 1778 -856 
Q 2344 -856 2625 -561 
Q 2906 -266 2906 331 
L 2906 616 
Q 2728 306 2450 153 
Q 2172 0 1784 0 
Q 1141 0 747 490 
Q 353 981 353 1791 
Q 353 2603 747 3093 
Q 1141 3584 1784 3584 
Q 2172 3584 2450 3431 
Q 2728 3278 2906 2969 
L 2906 3500 
L 3481 3500 
L 3481 434 
z
" transform="scale(0.015625)"/>
       <path id="DejaVuSans-20" transform="scale(0.015625)"/>
       <path id="DejaVuSans-28" d="M 1984 4856 
Q 1566 4138 1362 3434 
Q 1159 2731 1159 2009 
Q 1159 1288 1364 580 
Q 1569 -128 1984 -844 
L 1484 -844 
Q 1016 -109 783 600 
Q 550 1309 550 2009 
Q 550 2706 781 3412 
Q 1013 4119 1484 4856 
L 1984 4856 
z
" transform="scale(0.015625)"/>
       <path id="DejaVuSans-6d" d="M 3328 2828 
Q 3544 3216 3844 3400 
Q 4144 3584 4550 3584 
Q 5097 3584 5394 3201 
Q 5691 2819 5691 2113 
L 5691 0 
L 5113 0 
L 5113 2094 
Q 5113 2597 4934 2840 
Q 4756 3084 4391 3084 
Q 3944 3084 3684 2787 
Q 3425 2491 3425 1978 
L 3425 0 
L 2847 0 
L 2847 2094 
Q 2847 2600 2669 2842 
Q 2491 3084 2119 3084 
Q 1678 3084 1418 2786 
Q 1159 2488 1159 1978 
L 1159 0 
L 581 0 
L 581 3500 
L 1159 3500 
L 1159 2956 
Q 1356 3278 1631 3431 
Q 1906 3584 2284 3584 
Q 2666 3584 2933 3390 
Q 3200 3197 3328 2828 
z
" transform="scale(0.015625)"/>
       <path id="DejaVuSans-29" d="M 513 4856 
L 1013 4856 
Q 1481 4119 1714 3412 
Q 1947 2706 1947 2009 
Q 1947 1309 1714 600 
Q 1481 -109 1013 -844 
L 513 -844 
Q 928 -128 1133 580 
Q 1338 1288 1338 2009 
Q 1338 2731 1133 3434 
Q 928 4138 513 4856 
z
" transform="scale(0.015625)"/>
      </defs>
      <use xlink:href="#DejaVuSans-53"/>
      <use xlink:href="#DejaVuSans-70" transform="translate(63.476562 0)"/>
      <use xlink:href="#DejaVuSans-61" transform="translate(126.953125 0)"/>
      <use xlink:href="#DejaVuSans-63" transform="translate(188.232422 0)"/>
      <use xlink:href="#DejaVuSans-69" transform="translate(243.212891 0)"/>
      <use xlink:href="#DejaVuSans-6e" transform="translate(270.996094 0)"/>
      <use xlink:href="#DejaVuSans-67" transform="translate(334.375 0)"/>
      <use xlink:href="#DejaVuSans-20" transform="translate(397.851562 0)"/>
      <use xlink:href="#DejaVuSans-28" transform="translate(429.638672 0)"/>
      <use xlink:href="#DejaVuSans-6e" transform="translate(468.652344 0)"/>
      <use xlink:href="#DejaVuSans-6d" transform="translate(532.03125 0)"/>
      <use xlink:href="#DejaVuSans-29" transform="translate(629.443359 0)"/>
     </g>
    </g>
   </g>
   <g id="matplotlib.axis_2">
    <g id="ytick_1">
     <g id="line2d_6">
      <defs>
       <path id="ma527e8c76c" d="M 0 0 
L -3.5 0 
" style="stroke: #000000; stroke-width: 0.8"/>
      </defs>
      <g>
       <use xlink:href="#ma527e8c76c" x="57.505937" y="159.520232" style="stroke: #000000; stroke-width: 0.8"/>
      </g>
     </g>
     <g id="text_7">
      <!-- 1.5 -->
      <g transform="translate(34.602812 163.319451) scale(0.1 -0.1)">
       <defs>
        <path id="DejaVuSans-2e" d="M 684 794 
L 1344 794 
L 1344 0 
L 684 0 
L 684 794 
z
" transform="scale(0.015625)"/>
        <path id="DejaVuSans-35" d="M 691 4666 
L 3169 4666 
L 3169 4134 
L 1269 4134 
L 1269 2991 
Q 1406 3038 1543 3061 
Q 1681 3084 1819 3084 
Q 2600 3084 3056 2656 
Q 3513 2228 3513 1497 
Q 3513 744 3044 326 
Q 2575 -91 1722 -91 
Q 1428 -91 1123 -41 
Q 819 9 494 109 
L 494 744 
Q 775 591 1075 516 
Q 1375 441 1709 441 
Q 2250 441 2565 725 
Q 2881 1009 2881 1497 
Q 2881 1984 2565 2268 
Q 2250 2553 1709 2553 
Q 1456 2553 1204 2497 
Q 953 2441 691 2322 
L 691 4666 
z
" transform="scale(0.015625)"/>
       </defs>
       <use xlink:href="#DejaVuSans-31"/>
       <use xlink:href="#DejaVuSans-2e" transform="translate(63.623047 0)"/>
       <use xlink:href="#DejaVuSans-35" transform="translate(95.410156 0)"/>
      </g>
     </g>
    </g>
    <g id="ytick_2">
     <g id="line2d_7">
      <g>
       <use xlink:href="#ma527e8c76c" x="57.505937" y="137.372854" style="stroke: #000000; stroke-width: 0.8"/>
      </g>
     </g>
     <g id="text_8">
      <!-- 2.0 -->
      <g transform="translate(34.602812 141.172073) scale(0.1 -0.1)">
       <use xlink:href="#DejaVuSans-32"/>
       <use xlink:href="#DejaVuSans-2e" transform="translate(63.623047 0)"/>
       <use xlink:href="#DejaVuSans-30" transform="translate(95.410156 0)"/>
      </g>
     </g>
    </g>
    <g id="ytick_3">
     <g id="line2d_8">
      <g>
       <use xlink:href="#ma527e8c76c" x="57.505937" y="115.225476" style="stroke: #000000; stroke-width: 0.8"/>
      </g>
     </g>
     <g id="text_9">
      <!-- 2.5 -->
      <g transform="translate(34.602812 119.024695) scale(0.1 -0.1)">
       <use xlink:href="#DejaVuSans-32"/>
       <use xlink:href="#DejaVuSans-2e" transform="translate(63.623047 0)"/>
       <use xlink:href="#DejaVuSans-35" transform="translate(95.410156 0)"/>
      </g>
     </g>
    </g>
    <g id="ytick_4">
     <g id="line2d_9">
      <g>
       <use xlink:href="#ma527e8c76c" x="57.505937" y="93.078098" style="stroke: #000000; stroke-width: 0.8"/>
      </g>
     </g>
     <g id="text_10">
      <!-- 3.0 -->
      <g transform="translate(34.602812 96.877316) scale(0.1 -0.1)">
       <defs>
        <path id="DejaVuSans-33" d="M 2597 2516 
Q 3050 2419 3304 2112 
Q 3559 1806 3559 1356 
Q 3559 666 3084 287 
Q 2609 -91 1734 -91 
Q 1441 -91 1130 -33 
Q 819 25 488 141 
L 488 750 
Q 750 597 1062 519 
Q 1375 441 1716 441 
Q 2309 441 2620 675 
Q 2931 909 2931 1356 
Q 2931 1769 2642 2001 
Q 2353 2234 1838 2234 
L 1294 2234 
L 1294 2753 
L 1863 2753 
Q 2328 2753 2575 2939 
Q 2822 3125 2822 3475 
Q 2822 3834 2567 4026 
Q 2313 4219 1838 4219 
Q 1578 4219 1281 4162 
Q 984 4106 628 3988 
L 628 4550 
Q 988 4650 1302 4700 
Q 1616 4750 1894 4750 
Q 2613 4750 3031 4423 
Q 3450 4097 3450 3541 
Q 3450 3153 3228 2886 
Q 3006 2619 2597 2516 
z
" transform="scale(0.015625)"/>
       </defs>
       <use xlink:href="#DejaVuSans-33"/>
       <use xlink:href="#DejaVuSans-2e" transform="translate(63.623047 0)"/>
       <use xlink:href="#DejaVuSans-30" transform="translate(95.410156 0)"/>
      </g>
     </g>
    </g>
    <g id="ytick_5">
     <g id="line2d_10">
      <g>
       <use xlink:href="#ma527e8c76c" x="57.505937" y="70.93072" style="stroke: #000000; stroke-width: 0.8"/>
      </g>
     </g>
     <g id="text_11">
      <!-- 3.5 -->
      <g transform="translate(34.602812 74.729938) scale(0.1 -0.1)">
       <use xlink:href="#DejaVuSans-33"/>
       <use xlink:href="#DejaVuSans-2e" transform="translate(63.623047 0)"/>
       <use xlink:href="#DejaVuSans-35" transform="translate(95.410156 0)"/>
      </g>
     </g>
    </g>
    <g id="ytick_6">
     <g id="line2d_11">
      <g>
       <use xlink:href="#ma527e8c76c" x="57.505937" y="48.783341" style="stroke: #000000; stroke-width: 0.8"/>
      </g>
     </g>
     <g id="text_12">
      <!-- 4.0 -->
      <g transform="translate(34.602812 52.58256) scale(0.1 -0.1)">
       <use xlink:href="#DejaVuSans-34"/>
       <use xlink:href="#DejaVuSans-2e" transform="translate(63.623047 0)"/>
       <use xlink:href="#DejaVuSans-30" transform="translate(95.410156 0)"/>
      </g>
     </g>
    </g>
    <g id="ytick_7">
     <g id="line2d_12">
      <g>
       <use xlink:href="#ma527e8c76c" x="57.505937" y="26.635963" style="stroke: #000000; stroke-width: 0.8"/>
      </g>
     </g>
     <g id="text_13">
      <!-- 4.5 -->
      <g transform="translate(34.602812 30.435182) scale(0.1 -0.1)">
       <use xlink:href="#DejaVuSans-34"/>
       <use xlink:href="#DejaVuSans-2e" transform="translate(63.623047 0)"/>
       <use xlink:href="#DejaVuSans-35" transform="translate(95.410156 0)"/>
      </g>
     </g>
    </g>
    <g id="text_14">
     <!-- Amplitude -->
     <g transform="translate(28.107187 126.365) rotate(-90) scale(0.12 -0.12)">
      <defs>
       <path id="DejaVuSans-41" d="M 2188 4044 
L 1331 1722 
L 3047 1722 
L 2188 4044 
z
M 1831 4666 
L 2547 4666 
L 4325 0 
L 3669 0 
L 3244 1197 
L 1141 1197 
L 716 0 
L 50 0 
L 1831 4666 
z
" transform="scale(0.015625)"/>
       <path id="DejaVuSans-6c" d="M 603 4863 
L 1178 4863 
L 1178 0 
L 603 0 
L 603 4863 
z
" transform="scale(0.015625)"/>
       <path id="DejaVuSans-74" d="M 1172 4494 
L 1172 3500 
L 2356 3500 
L 2356 3053 
L 1172 3053 
L 1172 1153 
Q 1172 725 1289 603 
Q 1406 481 1766 481 
L 2356 481 
L 2356 0 
L 1766 0 
Q 1100 0 847 248 
Q 594 497 594 1153 
L 594 3053 
L 172 3053 
L 172 3500 
L 594 3500 
L 594 4494 
L 1172 4494 
z
" transform="scale(0.015625)"/>
       <path id="DejaVuSans-75" d="M 544 1381 
L 544 3500 
L 1119 3500 
L 1119 1403 
Q 1119 906 1312 657 
Q 1506 409 1894 409 
Q 2359 409 2629 706 
Q 2900 1003 2900 1516 
L 2900 3500 
L 3475 3500 
L 3475 0 
L 2900 0 
L 2900 538 
Q 2691 219 2414 64 
Q 2138 -91 1772 -91 
Q 1169 -91 856 284 
Q 544 659 544 1381 
z
M 1991 3584 
L 1991 3584 
z
" transform="scale(0.015625)"/>
       <path id="DejaVuSans-64" d="M 2906 2969 
L 2906 4863 
L 3481 4863 
L 3481 0 
L 2906 0 
L 2906 525 
Q 2725 213 2448 61 
Q 2172 -91 1784 -91 
Q 1150 -91 751 415 
Q 353 922 353 1747 
Q 353 2572 751 3078 
Q 1150 3584 1784 3584 
Q 2172 3584 2448 3432 
Q 2725 3281 2906 2969 
z
M 947 1747 
Q 947 1113 1208 752 
Q 1469 391 1925 391 
Q 2381 391 2643 752 
Q 2906 1113 2906 1747 
Q 2906 2381 2643 2742 
Q 2381 3103 1925 3103 
Q 1469 3103 1208 2742 
Q 947 2381 947 1747 
z
" transform="scale(0.015625)"/>
       <path id="DejaVuSans-65" d="M 3597 1894 
L 3597 1613 
L 953 1613 
Q 991 1019 1311 708 
Q 1631 397 2203 397 
Q 2534 397 2845 478 
Q 3156 559 3463 722 
L 3463 178 
Q 3153 47 2828 -22 
Q 2503 -91 2169 -91 
Q 1331 -91 842 396 
Q 353 884 353 1716 
Q 353 2575 817 3079 
Q 1281 3584 2069 3584 
Q 2775 3584 3186 3129 
Q 3597 2675 3597 1894 
z
M 3022 2063 
Q 3016 2534 2758 2815 
Q 2500 3097 2075 3097 
Q 1594 3097 1305 2825 
Q 1016 2553 972 2059 
L 3022 2063 
z
" transform="scale(0.015625)"/>
      </defs>
      <use xlink:href="#DejaVuSans-41"/>
      <use xlink:href="#DejaVuSans-6d" transform="translate(68.408203 0)"/>
      <use xlink:href="#DejaVuSans-70" transform="translate(165.820312 0)"/>
      <use xlink:href="#DejaVuSans-6c" transform="translate(229.296875 0)"/>
      <use xlink:href="#DejaVuSans-69" transform="translate(257.080078 0)"/>
      <use xlink:href="#DejaVuSans-74" transform="translate(284.863281 0)"/>
      <use xlink:href="#DejaVuSans-75" transform="translate(324.072266 0)"/>
      <use xlink:href="#DejaVuSans-64" transform="translate(387.451172 0)"/>
      <use xlink:href="#DejaVuSans-65" transform="translate(450.927734 0)"/>
     </g>
    </g>
   </g>
   <g id="line2d_13">
    <path d="M 57.505937 144.968859 
L 58.225425 146.592966 
L 58.412169 146.788085 
L 58.601746 146.764311 
L 58.989568 146.377938 
L 60.442704 146.093638 
L 60.663079 146.211346 
L 60.886797 146.520543 
L 61.578517 147.929662 
L 62.302193 148.445176 
L 62.803122 148.711108 
L 63.319363 148.657715 
L 64.12346 148.468642 
L 64.680058 148.644632 
L 65.844812 149.112634 
L 67.728881 149.630576 
L 68.395681 149.763286 
L 71.273018 150.106196 
L 72.048147 150.31514 
L 72.846968 150.338862 
L 73.670206 150.1694 
L 75.392939 149.641388 
L 76.293997 148.991067 
L 80.701967 144.869088 
L 82.309091 143.628726 
L 84.568002 141.543662 
L 85.154305 140.85938 
L 86.353725 138.99483 
L 87.589807 136.794424 
L 89.515129 132.854197 
L 92.923674 124.638596 
L 95.841386 116.810876 
L 100.560982 103.722543 
L 103.085535 97.64922 
L 104.833036 94.114632 
L 106.63395 90.938906 
L 108.48991 88.377654 
L 110.402599 86.328089 
L 113.381806 83.77391 
L 114.405151 82.995225 
L 116.498643 81.780937 
L 119.75947 80.256019 
L 122.016621 79.649173 
L 123.170938 79.351299 
L 125.532362 79.094025 
L 127.965965 79.221812 
L 130.473953 79.681099 
L 134.380399 80.53341 
L 139.871149 81.629973 
L 144.211718 82.781576 
L 150.312655 84.6712 
L 155.135591 86.325081 
L 160.181333 88.304625 
L 182.805484 97.899336 
L 189.129496 100.391619 
L 195.745658 102.782644 
L 202.667468 105.07493 
L 209.909046 107.257858 
L 217.485164 109.318117 
L 225.411276 111.216191 
L 236.551915 113.51972 
L 251.455039 116.288285 
L 264.212101 118.344611 
L 274.296863 119.746004 
L 277.760938 120.161016 
L 277.760938 120.161016 
" clip-path="url(#pf2c220707b)" style="fill: none; stroke: #0173b2; stroke-opacity: 0.8; stroke-width: 2; stroke-linecap: square"/>
   </g>
   <g id="line2d_14">
    <path d="M 57.505937 149.600055 
L 57.681768 149.663734 
L 58.225425 150.328799 
L 58.601746 150.383121 
L 59.187903 150.70395 
L 59.801139 150.631058 
L 60.442704 150.417868 
L 60.663079 150.579781 
L 61.113908 151.270312 
L 61.81612 152.703956 
L 62.057327 152.923869 
L 62.550772 152.939583 
L 63.0593 153.024969 
L 63.851383 153.318815 
L 64.399664 153.295694 
L 64.964705 153.255139 
L 65.253669 153.27653 
L 65.844812 153.013118 
L 66.454024 152.780605 
L 67.402934 152.649927 
L 68.059771 152.827983 
L 68.736685 153.30782 
L 69.434289 153.813981 
L 70.153216 153.946832 
L 70.894118 153.772976 
L 72.444551 152.696708 
L 73.670206 151.97693 
L 74.518607 151.659978 
L 75.392939 151.558889 
L 77.222595 151.447742 
L 79.670174 151.220845 
L 81.229631 150.636033 
L 82.861132 149.788635 
L 84.568002 148.397845 
L 86.353725 146.554245 
L 88.221944 144.173919 
L 92.923674 137.978391 
L 96.598682 133.64674 
L 98.147907 131.412961 
L 99.744485 128.71488 
L 101.389864 125.578031 
L 103.952709 119.903802 
L 106.63395 113.383693 
L 120.879551 77.924386 
L 123.170938 72.765454 
L 125.532362 68.24438 
L 127.965965 64.221058 
L 130.473953 60.626275 
L 133.058599 57.263654 
L 137.084448 52.905414 
L 139.871149 50.331451 
L 144.211718 46.821795 
L 147.216268 44.594618 
L 151.89616 41.61897 
L 153.503684 40.810301 
L 155.135591 40.113897 
L 158.474037 39.090567 
L 163.674006 38.126822 
L 167.273435 37.713149 
L 170.982882 37.444383 
L 176.760723 37.478337 
L 180.760157 37.740836 
L 184.881835 38.108945 
L 189.129496 38.693909 
L 193.506989 39.42399 
L 202.667468 41.365862 
L 209.909046 43.171785 
L 222.729367 46.407263 
L 233.703552 49.194663 
L 251.455039 53.951848 
L 260.950461 56.181538 
L 277.760938 59.831017 
L 277.760938 59.831017 
" clip-path="url(#pf2c220707b)" style="fill: none; stroke: #de8f05; stroke-opacity: 0.8; stroke-width: 2; stroke-linecap: square"/>
   </g>
   <g id="line2d_15">
    <path d="M 57.505937 137.575927 
L 58.041471 137.134564 
L 58.225425 137.24633 
L 58.412169 137.516181 
L 58.794197 138.750145 
L 59.389245 140.673111 
L 59.801139 141.438056 
L 60.225622 141.593764 
L 60.442704 141.881177 
L 61.113908 143.238308 
L 62.803122 144.338737 
L 64.12346 145.592571 
L 64.680058 145.885817 
L 67.081857 147.821032 
L 68.395681 149.510128 
L 69.082862 149.962956 
L 69.791047 150.054895 
L 71.273018 149.67003 
L 72.444551 149.791335 
L 74.091214 149.507598 
L 76.293997 149.697058 
L 78.179577 149.999072 
L 79.16581 149.805201 
L 80.182187 149.408966 
L 81.765299 148.713962 
L 84.568002 147.808245 
L 86.353725 146.887517 
L 87.589807 145.995763 
L 91.529395 142.997271 
L 94.36057 141.173897 
L 95.841386 140.392147 
L 105.726715 136.052113 
L 109.439056 134.717564 
L 112.37375 133.915443 
L 116.498643 133.040136 
L 119.75947 132.509674 
L 122.016621 132.336264 
L 125.532362 132.430855 
L 127.965965 132.676923 
L 137.084448 134.105684 
L 148.752808 135.840274 
L 156.79225 136.735539 
L 167.273435 137.595124 
L 174.805712 138.002186 
L 180.760157 138.170178 
L 189.129496 138.083253 
L 198.018283 137.74506 
L 230.897747 136.257212 
L 242.378907 135.886398 
L 264.212101 135.491469 
L 277.760938 135.433687 
L 277.760938 135.433687 
" clip-path="url(#pf2c220707b)" style="fill: none; stroke: #029e73; stroke-opacity: 0.8; stroke-width: 2; stroke-linecap: square"/>
   </g>
   <g id="line2d_16">
    <path d="M 57.505937 154.571368 
L 57.681768 154.65807 
L 57.860266 154.933793 
L 58.601746 157.742607 
L 58.989568 158.108067 
L 59.187903 158.11571 
L 59.389245 157.992294 
L 60.011783 157.273624 
L 60.886797 157.692577 
L 61.81612 158.445283 
L 62.302193 158.446475 
L 62.803122 158.708239 
L 63.583371 159.278038 
L 64.399664 159.457477 
L 64.964705 159.35185 
L 67.728881 157.977353 
L 68.059771 158.001673 
L 68.736685 158.364325 
L 69.791047 159.013544 
L 71.657665 159.624283 
L 72.444551 159.673226 
L 73.255489 159.450039 
L 74.091214 158.674989 
L 76.293997 155.851518 
L 78.179577 153.724038 
L 79.16581 152.14203 
L 80.182187 150.105538 
L 81.765299 146.300635 
L 84.568002 138.38973 
L 86.353725 132.528117 
L 88.863669 123.078917 
L 93.636714 105.030542 
L 96.598682 94.669502 
L 99.744485 84.869491 
L 101.389864 80.374247 
L 103.085535 76.197324 
L 104.833036 72.614209 
L 106.63395 69.241453 
L 111.380756 61.109649 
L 113.381806 57.950276 
L 116.498643 53.503141 
L 118.656125 50.787657 
L 120.879551 48.410273 
L 123.170938 46.234633 
L 125.532362 44.37813 
L 126.740005 43.675482 
L 127.965965 43.135939 
L 131.756549 42.127889 
L 133.058599 42.01516 
L 134.380399 42.030497 
L 137.084448 42.37632 
L 139.871149 43.411214 
L 144.211718 45.424533 
L 151.89616 49.532001 
L 158.474037 53.549412 
L 163.674006 56.675115 
L 167.273435 58.679769 
L 174.805712 62.535623 
L 186.98968 68.437962 
L 193.506989 71.410445 
L 200.325379 74.288747 
L 207.458759 77.001825 
L 214.92168 79.528923 
L 233.703552 85.35359 
L 254.572653 91.564435 
L 264.212101 94.041979 
L 270.884545 95.591429 
L 277.760938 97.016254 
L 277.760938 97.016254 
" clip-path="url(#pf2c220707b)" style="fill: none; stroke: #d55e00; stroke-opacity: 0.8; stroke-width: 2; stroke-linecap: square"/>
   </g>
   <g id="patch_3">
    <path d="M 57.505937 167.397813 
L 57.505937 23.837813 
" style="fill: none; stroke: #000000; stroke-width: 0.8; stroke-linejoin: miter; stroke-linecap: square"/>
   </g>
   <g id="patch_4">
    <path d="M 57.505937 167.397813 
L 277.760938 167.397813 
" style="fill: none; stroke: #000000; stroke-width: 0.8; stroke-linejoin: miter; stroke-linecap: square"/>
   </g>
   <g id="text_15">
    <!-- Power Spectrum (Radial Average: 2.0-5.0 nm) -->
    <g transform="translate(7.2 17.837813) scale(0.14 -0.14)">
     <defs>
      <path id="DejaVuSans-50" d="M 1259 4147 
L 1259 2394 
L 2053 2394 
Q 2494 2394 2734 2622 
Q 2975 2850 2975 3272 
Q 2975 3691 2734 3919 
Q 2494 4147 2053 4147 
L 1259 4147 
z
M 628 4666 
L 2053 4666 
Q 2838 4666 3239 4311 
Q 3641 3956 3641 3272 
Q 3641 2581 3239 2228 
Q 2838 1875 2053 1875 
L 1259 1875 
L 1259 0 
L 628 0 
L 628 4666 
z
" transform="scale(0.015625)"/>
      <path id="DejaVuSans-6f" d="M 1959 3097 
Q 1497 3097 1228 2736 
Q 959 2375 959 1747 
Q 959 1119 1226 758 
Q 1494 397 1959 397 
Q 2419 397 2687 759 
Q 2956 1122 2956 1747 
Q 2956 2369 2687 2733 
Q 2419 3097 1959 3097 
z
M 1959 3584 
Q 2709 3584 3137 3096 
Q 3566 2609 3566 1747 
Q 3566 888 3137 398 
Q 2709 -91 1959 -91 
Q 1206 -91 779 398 
Q 353 888 353 1747 
Q 353 2609 779 3096 
Q 1206 3584 1959 3584 
z
" transform="scale(0.015625)"/>
      <path id="DejaVuSans-77" d="M 269 3500 
L 844 3500 
L 1563 769 
L 2278 3500 
L 2956 3500 
L 3675 769 
L 4391 3500 
L 4966 3500 
L 4050 0 
L 3372 0 
L 2619 2869 
L 1863 0 
L 1184 0 
L 269 3500 
z
" transform="scale(0.015625)"/>
      <path id="DejaVuSans-72" d="M 2631 2963 
Q 2534 3019 2420 3045 
Q 2306 3072 2169 3072 
Q 1681 3072 1420 2755 
Q 1159 2438 1159 1844 
L 1159 0 
L 581 0 
L 581 3500 
L 1159 3500 
L 1159 2956 
Q 1341 3275 1631 3429 
Q 1922 3584 2338 3584 
Q 2397 3584 2469 3576 
Q 2541 3569 2628 3553 
L 2631 2963 
z
" transform="scale(0.015625)"/>
      <path id="DejaVuSans-52" d="M 2841 2188 
Q 3044 2119 3236 1894 
Q 3428 1669 3622 1275 
L 4263 0 
L 3584 0 
L 2988 1197 
Q 2756 1666 2539 1819 
Q 2322 1972 1947 1972 
L 1259 1972 
L 1259 0 
L 628 0 
L 628 4666 
L 2053 4666 
Q 2853 4666 3247 4331 
Q 3641 3997 3641 3322 
Q 3641 2881 3436 2590 
Q 3231 2300 2841 2188 
z
M 1259 4147 
L 1259 2491 
L 2053 2491 
Q 2509 2491 2742 2702 
Q 2975 2913 2975 3322 
Q 2975 3731 2742 3939 
Q 2509 4147 2053 4147 
L 1259 4147 
z
" transform="scale(0.015625)"/>
      <path id="DejaVuSans-76" d="M 191 3500 
L 800 3500 
L 1894 563 
L 2988 3500 
L 3597 3500 
L 2284 0 
L 1503 0 
L 191 3500 
z
" transform="scale(0.015625)"/>
      <path id="DejaVuSans-3a" d="M 750 794 
L 1409 794 
L 1409 0 
L 750 0 
L 750 794 
z
M 750 3309 
L 1409 3309 
L 1409 2516 
L 750 2516 
L 750 3309 
z
" transform="scale(0.015625)"/>
      <path id="DejaVuSans-2d" d="M 313 2009 
L 1997 2009 
L 1997 1497 
L 313 1497 
L 313 2009 
z
" transform="scale(0.015625)"/>
     </defs>
     <use xlink:href="#DejaVuSans-50"/>
     <use xlink:href="#DejaVuSans-6f" transform="translate(56.677734 0)"/>
     <use xlink:href="#DejaVuSans-77" transform="translate(117.859375 0)"/>
     <use xlink:href="#DejaVuSans-65" transform="translate(199.646484 0)"/>
     <use xlink:href="#DejaVuSans-72" transform="translate(261.169922 0)"/>
     <use xlink:href="#DejaVuSans-20" transform="translate(302.283203 0)"/>
     <use xlink:href="#DejaVuSans-53" transform="translate(334.070312 0)"/>
     <use xlink:href="#DejaVuSans-70" transform="translate(397.546875 0)"/>
     <use xlink:href="#DejaVuSans-65" transform="translate(461.023438 0)"/>
     <use xlink:href="#DejaVuSans-63" transform="translate(522.546875 0)"/>
     <use xlink:href="#DejaVuSans-74" transform="translate(577.527344 0)"/>
     <use xlink:href="#DejaVuSans-72" transform="translate(616.736328 0)"/>
     <use xlink:href="#DejaVuSans-75" transform="translate(657.849609 0)"/>
     <use xlink:href="#DejaVuSans-6d" transform="translate(721.228516 0)"/>
     <use xlink:href="#DejaVuSans-20" transform="translate(818.640625 0)"/>
     <use xlink:href="#DejaVuSans-28" transform="translate(850.427734 0)"/>
     <use xlink:href="#DejaVuSans-52" transform="translate(889.441406 0)"/>
     <use xlink:href="#DejaVuSans-61" transform="translate(956.673828 0)"/>
     <use xlink:href="#DejaVuSans-64" transform="translate(1017.953125 0)"/>
     <use xlink:href="#DejaVuSans-69" transform="translate(1081.429688 0)"/>
     <use xlink:href="#DejaVuSans-61" transform="translate(1109.212891 0)"/>
     <use xlink:href="#DejaVuSans-6c" transform="translate(1170.492188 0)"/>
     <use xlink:href="#DejaVuSans-20" transform="translate(1198.275391 0)"/>
     <use xlink:href="#DejaVuSans-41" transform="translate(1230.0625 0)"/>
     <use xlink:href="#DejaVuSans-76" transform="translate(1292.595703 0)"/>
     <use xlink:href="#DejaVuSans-65" transform="translate(1351.775391 0)"/>
     <use xlink:href="#DejaVuSans-72" transform="translate(1413.298828 0)"/>
     <use xlink:href="#DejaVuSans-61" transform="translate(1454.412109 0)"/>
     <use xlink:href="#DejaVuSans-67" transform="translate(1515.691406 0)"/>
     <use xlink:href="#DejaVuSans-65" transform="translate(1579.167969 0)"/>
     <use xlink:href="#DejaVuSans-3a" transform="translate(1640.691406 0)"/>
     <use xlink:href="#DejaVuSans-20" transform="translate(1674.382812 0)"/>
     <use xlink:href="#DejaVuSans-32" transform="translate(1706.169922 0)"/>
     <use xlink:href="#DejaVuSans-2e" transform="translate(1769.792969 0)"/>
     <use xlink:href="#DejaVuSans-30" transform="translate(1801.580078 0)"/>
     <use xlink:href="#DejaVuSans-2d" transform="translate(1865.203125 0)"/>
     <use xlink:href="#DejaVuSans-35" transform="translate(1901.287109 0)"/>
     <use xlink:href="#DejaVuSans-2e" transform="translate(1964.910156 0)"/>
     <use xlink:href="#DejaVuSans-30" transform="translate(1996.697266 0)"/>
     <use xlink:href="#DejaVuSans-20" transform="translate(2060.320312 0)"/>
     <use xlink:href="#DejaVuSans-6e" transform="translate(2092.107422 0)"/>
     <use xlink:href="#DejaVuSans-6d" transform="translate(2155.486328 0)"/>
     <use xlink:href="#DejaVuSans-29" transform="translate(2252.898438 0)"/>
    </g>
   </g>
   <g id="legend_1">
    <g id="line2d_17">
     <path d="M 178.571875 108.78375 
L 188.571875 108.78375 
L 198.571875 108.78375 
" style="fill: none; stroke: #0173b2; stroke-opacity: 0.8; stroke-width: 2; stroke-linecap: square"/>
    </g>
    <g id="text_16">
     <!-- 38bp-dense -->
     <g transform="translate(206.571875 112.28375) scale(0.1 -0.1)">
      <defs>
       <path id="DejaVuSans-62" d="M 3116 1747 
Q 3116 2381 2855 2742 
Q 2594 3103 2138 3103 
Q 1681 3103 1420 2742 
Q 1159 2381 1159 1747 
Q 1159 1113 1420 752 
Q 1681 391 2138 391 
Q 2594 391 2855 752 
Q 3116 1113 3116 1747 
z
M 1159 2969 
Q 1341 3281 1617 3432 
Q 1894 3584 2278 3584 
Q 2916 3584 3314 3078 
Q 3713 2572 3713 1747 
Q 3713 922 3314 415 
Q 2916 -91 2278 -91 
Q 1894 -91 1617 61 
Q 1341 213 1159 525 
L 1159 0 
L 581 0 
L 581 4863 
L 1159 4863 
L 1159 2969 
z
" transform="scale(0.015625)"/>
       <path id="DejaVuSans-73" d="M 2834 3397 
L 2834 2853 
Q 2591 2978 2328 3040 
Q 2066 3103 1784 3103 
Q 1356 3103 1142 2972 
Q 928 2841 928 2578 
Q 928 2378 1081 2264 
Q 1234 2150 1697 2047 
L 1894 2003 
Q 2506 1872 2764 1633 
Q 3022 1394 3022 966 
Q 3022 478 2636 193 
Q 2250 -91 1575 -91 
Q 1294 -91 989 -36 
Q 684 19 347 128 
L 347 722 
Q 666 556 975 473 
Q 1284 391 1588 391 
Q 1994 391 2212 530 
Q 2431 669 2431 922 
Q 2431 1156 2273 1281 
Q 2116 1406 1581 1522 
L 1381 1569 
Q 847 1681 609 1914 
Q 372 2147 372 2553 
Q 372 3047 722 3315 
Q 1072 3584 1716 3584 
Q 2034 3584 2315 3537 
Q 2597 3491 2834 3397 
z
" transform="scale(0.015625)"/>
      </defs>
      <use xlink:href="#DejaVuSans-33"/>
      <use xlink:href="#DejaVuSans-38" transform="translate(63.623047 0)"/>
      <use xlink:href="#DejaVuSans-62" transform="translate(127.246094 0)"/>
      <use xlink:href="#DejaVuSans-70" transform="translate(190.722656 0)"/>
      <use xlink:href="#DejaVuSans-2d" transform="translate(254.199219 0)"/>
      <use xlink:href="#DejaVuSans-64" transform="translate(290.283203 0)"/>
      <use xlink:href="#DejaVuSans-65" transform="translate(353.759766 0)"/>
      <use xlink:href="#DejaVuSans-6e" transform="translate(415.283203 0)"/>
      <use xlink:href="#DejaVuSans-73" transform="translate(478.662109 0)"/>
      <use xlink:href="#DejaVuSans-65" transform="translate(530.761719 0)"/>
     </g>
    </g>
    <g id="line2d_18">
     <path d="M 178.571875 123.461875 
L 188.571875 123.461875 
L 198.571875 123.461875 
" style="fill: none; stroke: #de8f05; stroke-opacity: 0.8; stroke-width: 2; stroke-linecap: square"/>
    </g>
    <g id="text_17">
     <!-- 68bp-dense -->
     <g transform="translate(206.571875 126.961875) scale(0.1 -0.1)">
      <use xlink:href="#DejaVuSans-36"/>
      <use xlink:href="#DejaVuSans-38" transform="translate(63.623047 0)"/>
      <use xlink:href="#DejaVuSans-62" transform="translate(127.246094 0)"/>
      <use xlink:href="#DejaVuSans-70" transform="translate(190.722656 0)"/>
      <use xlink:href="#DejaVuSans-2d" transform="translate(254.199219 0)"/>
      <use xlink:href="#DejaVuSans-64" transform="translate(290.283203 0)"/>
      <use xlink:href="#DejaVuSans-65" transform="translate(353.759766 0)"/>
      <use xlink:href="#DejaVuSans-6e" transform="translate(415.283203 0)"/>
      <use xlink:href="#DejaVuSans-73" transform="translate(478.662109 0)"/>
      <use xlink:href="#DejaVuSans-65" transform="translate(530.761719 0)"/>
     </g>
    </g>
    <g id="line2d_19">
     <path d="M 178.571875 138.14 
L 188.571875 138.14 
L 198.571875 138.14 
" style="fill: none; stroke: #029e73; stroke-opacity: 0.8; stroke-width: 2; stroke-linecap: square"/>
    </g>
    <g id="text_18">
     <!-- 68bp-sparse -->
     <g transform="translate(206.571875 141.64) scale(0.1 -0.1)">
      <use xlink:href="#DejaVuSans-36"/>
      <use xlink:href="#DejaVuSans-38" transform="translate(63.623047 0)"/>
      <use xlink:href="#DejaVuSans-62" transform="translate(127.246094 0)"/>
      <use xlink:href="#DejaVuSans-70" transform="translate(190.722656 0)"/>
      <use xlink:href="#DejaVuSans-2d" transform="translate(254.199219 0)"/>
      <use xlink:href="#DejaVuSans-73" transform="translate(290.283203 0)"/>
      <use xlink:href="#DejaVuSans-70" transform="translate(342.382812 0)"/>
      <use xlink:href="#DejaVuSans-61" transform="translate(405.859375 0)"/>
      <use xlink:href="#DejaVuSans-72" transform="translate(467.138672 0)"/>
      <use xlink:href="#DejaVuSans-73" transform="translate(508.251953 0)"/>
      <use xlink:href="#DejaVuSans-65" transform="translate(560.351562 0)"/>
     </g>
    </g>
    <g id="line2d_20">
     <path d="M 178.571875 152.818125 
L 188.571875 152.818125 
L 198.571875 152.818125 
" style="fill: none; stroke: #d55e00; stroke-opacity: 0.8; stroke-width: 2; stroke-linecap: square"/>
    </g>
    <g id="text_19">
     <!-- star-dense -->
     <g transform="translate(206.571875 156.318125) scale(0.1 -0.1)">
      <use xlink:href="#DejaVuSans-73"/>
      <use xlink:href="#DejaVuSans-74" transform="translate(52.099609 0)"/>
      <use xlink:href="#DejaVuSans-61" transform="translate(91.308594 0)"/>
      <use xlink:href="#DejaVuSans-72" transform="translate(152.587891 0)"/>
      <use xlink:href="#DejaVuSans-2d" transform="translate(187.326172 0)"/>
      <use xlink:href="#DejaVuSans-64" transform="translate(223.410156 0)"/>
      <use xlink:href="#DejaVuSans-65" transform="translate(286.886719 0)"/>
      <use xlink:href="#DejaVuSans-6e" transform="translate(348.410156 0)"/>
      <use xlink:href="#DejaVuSans-73" transform="translate(411.789062 0)"/>
      <use xlink:href="#DejaVuSans-65" transform="translate(463.888672 0)"/>
     </g>
    </g>
   </g>
  </g>
 </g>
 <defs>
  <clipPath id="pf2c220707b">
   <rect x="57.505937" y="23.837813" width="220.255" height="143.56"/>
  </clipPath>
 </defs>
</svg>
